{"glyphs":{"0":{"ha":836,"x_min":77,"x_max":803,"o":"m 366 115 l 392 115 q 480 150 437 115 q 555 239 524 184 q 612 390 587 294 q 638 575 638 486 l 638 612 q 605 756 638 703 q 507 809 572 809 l 498 809 q 269 534 344 809 q 243 350 243 436 l 243 313 q 277 168 243 221 q 366 115 311 115 m 77 307 l 77 347 q 116 585 77 467 q 213 783 155 703 q 352 903 271 863 q 513 943 433 943 l 527 943 q 738 848 660 943 q 783 756 763 817 q 803 618 803 694 l 803 591 q 768 358 803 482 q 674 152 733 234 q 538 25 615 70 q 381 -19 460 -19 l 338 -19 q 228 8 279 -19 q 96 170 130 59 q 77 307 77 238 z "},"1":{"ha":602,"x_min":159,"x_max":526,"o":"m 321 667 q 290 697 321 697 q 288 697 289 697 q 231 696 255 696 q 189 711 207 696 q 172 755 172 727 q 254 838 172 789 q 463 926 401 926 l 476 926 q 526 898 526 926 l 526 886 q 477 602 526 881 q 429 303 429 323 q 444 249 429 284 q 458 195 458 214 q 397 41 458 112 q 288 0 361 0 l 246 0 q 177 18 195 0 q 159 71 159 36 q 203 205 159 148 q 262 311 247 262 l 270 352 q 275 380 275 375 l 280 408 l 286 435 l 290 463 l 296 490 l 300 518 q 321 667 321 620 z "},"2":{"ha":749,"x_min":50,"x_max":727,"o":"m 640 102 q 601 15 640 30 q 437 -1 562 -1 l 373 -1 l 352 0 l 268 0 q 79 6 108 0 q 50 35 50 13 q 124 174 50 92 q 307 354 161 215 q 478 526 452 493 q 553 699 553 623 q 519 773 553 750 q 437 796 486 796 q 325 742 389 796 q 221 687 260 687 q 175 749 175 687 q 271 873 175 812 q 482 935 368 935 q 662 879 596 935 q 727 741 727 823 l 727 721 q 628 481 727 607 q 442 299 585 427 q 298 155 298 171 q 389 140 298 140 l 570 145 q 640 102 640 145 z "},"3":{"ha":749,"x_min":50,"x_max":703,"o":"m 533 742 q 510 777 533 760 q 450 793 486 793 q 354 775 414 793 q 249 756 295 756 q 202 796 202 756 q 268 889 202 856 q 476 935 358 935 q 648 899 594 935 q 703 785 703 863 q 600 561 703 659 q 544 506 544 507 q 583 475 544 505 q 644 405 624 444 q 665 298 665 365 q 543 66 665 162 q 293 -14 443 -14 q 121 25 193 -14 q 50 115 50 64 q 76 157 50 136 q 136 179 101 179 q 223 150 171 179 q 340 120 275 120 q 456 169 405 120 q 507 283 507 217 q 472 382 507 349 q 390 421 451 402 q 322 444 328 439 q 302 489 302 460 q 323 532 302 517 q 393 567 331 538 q 494 637 455 597 q 533 742 533 678 z "},"4":{"ha":788,"x_min":51,"x_max":732,"o":"m 538 676 l 538 682 l 536 682 l 406 526 q 396 515 399 519 l 331 437 q 243 331 243 332 q 249 330 243 330 l 450 330 q 473 348 467 330 q 487 418 475 351 l 532 652 q 538 676 538 671 m 51 241 q 84 328 51 287 q 550 877 473 800 q 672 913 586 913 l 700 913 q 724 882 724 913 q 682 639 724 870 q 640 352 640 408 q 686 327 640 332 q 732 295 732 321 q 714 219 732 239 q 659 195 696 198 q 610 173 621 192 q 586 80 600 154 q 558 -9 573 7 q 494 -25 544 -25 l 479 -24 q 449 -24 464 -24 q 410 10 410 -24 l 412 24 l 415 52 l 420 108 l 422 122 q 426 150 426 146 q 400 191 426 180 q 336 195 390 195 l 161 199 q 71 208 91 199 q 51 241 51 216 z "},"5":{"ha":756,"x_min":52,"x_max":739,"o":"m 430 922 l 661 926 l 703 926 q 739 905 739 926 q 696 804 739 829 q 530 791 674 791 q 373 777 387 791 q 339 697 359 763 q 319 598 319 631 q 334 583 319 583 l 414 589 q 613 524 541 589 q 686 337 686 460 q 659 205 686 273 q 448 10 602 70 q 300 -15 382 -15 l 278 -15 q 129 19 207 -15 q 52 84 52 52 q 78 147 52 121 q 130 173 104 173 q 217 146 156 173 q 333 119 278 119 q 472 180 419 119 q 525 323 525 241 q 488 419 525 380 q 383 458 451 458 q 296 449 349 458 q 220 439 242 439 q 163 486 163 439 q 203 703 163 532 q 258 893 243 873 q 318 921 274 913 q 430 922 326 922 z "},"6":{"ha":772,"x_min":80,"x_max":713,"o":"m 555 326 l 555 343 q 519 434 555 401 q 429 467 483 467 l 422 467 q 289 409 342 467 q 236 261 236 351 l 236 243 q 271 144 236 182 q 359 106 305 106 l 365 106 q 496 169 438 106 q 555 326 555 233 m 710 342 q 679 201 710 273 q 489 4 616 56 q 360 -24 421 -24 l 326 -24 q 149 46 218 -24 q 99 129 117 77 q 80 241 80 180 l 80 275 q 126 505 80 379 q 256 733 173 631 q 413 860 313 803 q 600 916 514 916 l 615 916 q 691 897 669 916 q 713 863 713 878 q 671 813 713 836 q 606 792 647 800 q 557 781 565 783 q 349 623 427 744 q 333 577 333 598 q 360 555 333 555 q 386 562 363 555 q 428 573 408 568 q 492 577 448 577 q 495 577 494 577 q 584 557 538 577 q 710 342 710 503 z "},"7":{"ha":720,"x_min":116,"x_max":758,"o":"m 758 892 l 758 880 q 599 606 758 867 q 388 246 439 345 q 311 90 336 148 q 281 26 285 31 q 221 -12 261 -12 l 205 -12 q 116 12 116 -12 q 250 291 116 60 q 436 587 326 421 q 547 762 547 753 q 477 789 547 789 l 445 790 l 410 790 l 201 779 q 163 791 175 779 q 152 848 152 802 q 172 910 152 893 q 290 927 191 927 l 307 927 l 323 926 l 389 925 l 422 924 l 572 923 q 723 921 707 923 q 758 892 758 916 z "},"8":{"ha":777,"x_min":60,"x_max":747,"o":"m 498 812 l 467 812 q 374 770 412 812 q 336 674 336 728 l 336 662 q 366 590 336 623 q 432 557 395 557 l 450 557 q 549 609 509 557 q 589 709 589 661 q 565 785 589 758 q 498 812 541 812 m 416 426 l 400 426 q 278 364 334 426 q 222 228 222 302 l 222 222 l 222 217 q 254 137 222 172 q 336 102 285 102 l 347 101 l 364 101 q 499 163 442 101 q 542 281 542 210 l 542 297 q 507 382 542 339 q 416 426 471 426 m 181 659 q 273 861 181 783 q 377 918 317 899 q 491 937 437 937 l 507 937 q 680 887 613 937 q 747 756 747 836 l 747 741 q 673 564 747 646 q 624 514 646 534 q 602 490 602 494 q 631 459 602 486 q 681 395 660 433 q 703 291 703 356 q 674 165 703 227 q 465 -9 616 40 q 332 -28 406 -28 q 131 34 201 -28 q 60 193 60 96 l 60 209 q 216 463 60 359 q 245 490 245 481 q 235 515 245 499 q 181 659 181 589 z "},"9":{"ha":771,"x_min":121,"x_max":756,"o":"m 601 661 q 569 753 601 713 q 484 792 536 792 l 463 792 q 343 730 400 792 q 286 586 286 668 l 286 553 q 318 472 286 507 q 400 437 351 437 l 428 437 q 547 490 494 437 q 600 622 600 543 l 601 633 l 601 661 m 129 564 q 160 703 129 631 q 240 823 191 776 q 354 896 288 869 q 491 922 420 922 l 509 922 q 621 899 571 922 q 756 658 755 837 l 756 623 q 708 384 756 513 q 591 169 661 254 q 422 34 521 83 q 233 -16 324 -16 l 218 -16 q 148 -1 175 -16 q 121 42 121 14 q 149 86 121 71 q 262 119 176 101 q 484 263 414 151 q 509 323 509 303 q 479 344 509 344 q 436 334 472 344 q 350 323 400 323 q 254 343 301 324 q 129 564 129 395 z "},"\u0000":{"ha":781,"x_min":36,"x_max":741,"o":"m 552 44 q 626 51 626 44 q 458 310 626 65 q 421 366 452 318 q 387 414 390 414 l 354 363 l 351 357 l 325 318 q 317 307 322 313 q 150 47 150 63 q 162 47 150 47 l 169 46 l 175 45 l 222 44 l 552 44 m 102 492 l 102 242 q 105 109 102 109 q 180 218 109 109 l 221 279 q 245 315 236 302 q 268 350 254 328 q 315 418 283 372 q 347 467 347 463 l 347 474 q 257 610 347 479 q 163 749 168 741 l 104 835 q 102 492 102 835 m 673 431 l 673 511 q 670 836 673 836 q 633 785 667 836 q 514 611 600 734 q 429 477 429 488 q 480 391 429 465 q 599 214 532 317 q 670 112 666 112 q 673 431 673 112 m 459 903 l 438 903 l 431 902 l 390 902 q 149 896 149 902 q 184 839 149 890 q 238 759 219 788 q 271 709 256 730 q 336 611 286 688 q 390 533 387 533 q 433 594 393 533 q 478 664 472 654 q 494 687 484 673 l 577 813 q 631 897 631 890 q 459 903 631 903 m 36 27 l 36 163 l 37 180 l 37 486 q 38 958 37 955 q 94 970 43 970 l 667 970 q 737 959 734 970 q 740 686 740 948 l 740 399 l 741 331 l 741 9 q 719 -17 741 -15 q 532 -20 698 -20 l 227 -20 q 43 -16 50 -20 q 36 27 36 -12 z "}," ":{"ha":401,"x_min":0,"x_max":0,"o":""},"!":{"ha":417,"x_min":65,"x_max":395,"o":"m 290 987 l 355 987 q 395 964 395 987 q 335 665 395 963 q 259 320 275 368 q 208 286 247 286 l 176 286 q 135 302 135 286 l 135 317 l 155 459 q 157 476 155 460 q 162 511 160 492 q 231 952 195 786 q 290 987 239 987 m 134 -5 q 67 26 67 -5 l 65 41 l 65 66 l 68 90 q 93 163 68 141 q 168 184 118 184 l 182 184 q 200 182 190 182 q 248 154 248 182 l 250 139 l 250 113 l 248 90 q 219 14 248 47 q 179 -1 206 -1 q 163 -3 168 -3 l 144 -5 l 134 -5 z "},"\"":{"ha":550,"x_min":137,"x_max":559,"o":"m 182 639 l 160 639 q 137 658 137 639 l 137 662 l 138 667 q 183 975 138 778 q 226 996 188 996 l 296 996 q 323 987 323 996 l 323 983 q 308 911 323 962 q 289 838 294 861 q 265 750 284 816 q 240 669 246 684 q 182 639 228 639 m 463 996 l 532 996 q 559 987 559 996 l 559 983 q 555 967 559 979 q 548 937 552 956 l 541 903 l 539 899 q 476 669 507 750 q 418 639 465 639 l 396 639 q 374 658 374 639 l 374 663 l 383 739 q 419 975 383 819 q 463 996 424 996 z "},"#":{"ha":868,"x_min":64,"x_max":852,"o":"m 550 588 l 430 588 q 399 578 404 588 q 353 418 353 486 l 353 416 q 360 410 353 410 l 477 410 q 511 419 506 410 q 556 576 556 510 l 556 585 q 550 588 556 588 m 414 288 q 328 277 343 288 q 288 192 313 267 q 240 87 263 117 q 173 58 216 58 q 130 100 130 58 l 134 121 l 141 144 l 146 166 q 153 241 153 198 q 108 290 153 262 q 64 343 64 317 q 82 383 64 369 q 149 407 100 397 q 212 434 197 416 q 255 553 255 486 q 247 585 255 577 q 187 592 238 592 q 136 621 136 592 q 168 698 136 675 q 234 713 183 709 q 301 735 286 718 q 341 827 317 753 q 372 913 365 901 q 423 943 389 943 l 446 943 q 489 900 489 943 q 469 815 489 886 q 450 727 450 745 q 518 708 450 708 q 599 730 586 708 q 620 800 601 734 q 650 886 639 865 q 727 941 680 941 q 774 903 774 941 l 770 882 l 760 838 q 751 760 751 795 q 790 717 751 724 q 852 669 852 705 q 810 601 852 621 q 753 594 801 597 q 694 575 706 592 q 656 448 656 524 q 713 416 656 423 q 769 372 769 409 q 753 315 769 332 q 689 295 738 299 q 618 272 640 291 q 569 171 596 252 q 526 74 541 89 q 464 58 511 58 l 441 58 q 421 98 421 58 q 435 162 421 114 l 455 231 l 460 254 q 414 288 460 288 z "},"$":{"ha":772,"x_min":62,"x_max":760,"o":"m 401 597 q 410 625 410 597 l 413 640 q 419 671 419 664 l 422 689 q 432 739 432 732 l 438 771 q 444 800 444 795 l 447 815 l 447 823 q 439 828 447 828 l 436 827 l 433 827 q 351 787 385 827 q 317 700 317 747 l 317 696 q 344 630 317 662 q 397 597 372 597 l 401 597 m 411 152 l 411 146 q 417 141 411 141 l 420 141 q 513 183 471 141 q 555 279 555 225 l 555 293 q 526 364 555 329 q 469 399 496 399 l 467 399 q 450 354 450 399 l 418 188 q 411 152 411 157 m 322 -104 l 304 -104 q 277 -74 277 -104 l 277 -55 l 279 -37 q 252 16 279 3 l 233 22 l 214 28 q 62 159 62 83 q 80 213 62 189 q 142 237 98 237 q 223 204 186 237 q 284 172 260 172 q 333 249 313 172 q 353 394 353 326 q 291 467 353 425 q 196 558 229 510 q 163 695 163 606 q 229 852 163 785 q 408 949 290 914 q 460 971 448 962 q 486 1020 472 981 q 530 1059 500 1059 q 572 1048 559 1059 q 589 1004 584 1038 q 604 959 593 970 q 653 931 614 947 q 726 891 692 916 q 760 838 760 867 l 760 819 q 736 779 760 804 q 684 753 713 753 q 614 775 654 753 q 570 797 574 797 q 545 775 559 797 q 503 607 503 711 q 582 518 503 566 q 687 426 661 471 q 713 307 713 381 q 638 119 713 201 q 556 56 598 75 q 463 23 513 37 q 405 4 413 9 q 374 -60 397 -1 q 322 -104 357 -104 z "},"%":{"ha":1061,"x_min":136,"x_max":1006,"o":"m 416 792 l 415 819 q 398 850 415 831 q 359 869 382 869 l 352 869 q 286 829 313 869 q 248 718 248 771 l 247 715 l 246 711 l 245 695 l 245 669 q 247 658 247 662 q 264 613 247 631 q 299 596 281 596 l 310 596 q 382 644 351 596 q 414 739 414 691 q 416 754 416 749 l 417 773 l 417 788 l 416 792 m 747 110 l 762 110 q 848 176 811 110 q 884 322 884 242 l 884 326 q 869 385 884 367 q 838 402 854 402 l 823 402 q 748 353 781 402 q 703 222 703 286 l 701 201 l 701 177 q 716 127 701 144 q 747 110 731 110 m 544 785 l 544 755 q 523 656 544 715 q 464 555 503 597 q 306 481 395 481 l 298 481 q 185 525 229 481 q 142 647 142 569 l 142 677 q 142 680 142 678 q 161 776 142 723 q 288 926 201 883 q 379 949 334 949 l 387 949 q 502 904 459 949 q 544 785 544 859 m 136 37 q 177 100 136 45 q 795 900 618 694 q 895 968 854 968 q 972 952 972 968 q 940 899 972 943 q 321 98 543 363 q 214 20 256 20 q 136 37 136 20 m 591 179 l 591 201 q 610 309 591 252 q 751 467 650 422 q 840 484 789 484 l 848 484 q 964 437 921 484 q 1006 310 1006 391 l 1006 302 q 926 85 1006 176 q 855 32 899 53 q 764 12 811 12 l 756 12 q 634 58 677 12 q 591 179 591 104 z "},"&":{"ha":941,"x_min":83,"x_max":906,"o":"m 478 620 l 484 620 q 595 698 517 620 q 636 784 636 739 l 636 802 q 615 848 636 830 q 566 865 595 865 l 551 865 q 469 830 505 865 q 433 743 433 794 l 433 725 q 464 633 433 674 q 478 620 474 620 m 397 432 l 389 432 q 288 347 349 432 q 247 242 247 291 l 247 222 q 282 141 247 173 q 374 110 317 110 l 397 110 q 512 141 454 110 q 570 193 570 172 q 488 322 570 213 q 397 432 406 432 m 578 983 q 726 939 674 983 q 778 823 777 895 q 643 595 778 699 q 564 504 564 534 q 627 380 564 473 q 685 331 661 331 q 756 407 709 331 q 842 483 802 483 q 906 450 906 483 q 845 311 906 409 q 785 192 785 214 q 823 127 785 171 q 861 52 861 83 q 814 10 861 10 q 718 37 767 10 q 640 64 669 64 q 539 26 637 64 q 362 -12 440 -12 l 340 -12 q 153 42 222 -12 q 83 191 84 96 q 221 461 83 342 q 318 562 318 545 q 300 632 318 578 q 283 732 283 686 q 363 909 283 834 q 578 983 443 983 z "},"'":{"ha":321,"x_min":155,"x_max":342,"o":"m 206 638 l 176 638 q 155 656 155 638 l 155 661 l 156 665 q 168 752 156 671 l 170 771 q 174 792 172 779 l 179 824 l 181 839 q 202 979 200 975 q 239 996 208 996 l 323 996 q 342 988 342 996 l 342 981 q 336 951 342 973 q 311 842 330 928 q 261 673 292 755 q 206 638 248 638 z "},"(":{"ha":494,"x_min":109,"x_max":556,"o":"m 260 193 q 273 39 260 96 q 314 -86 286 -19 q 342 -171 342 -154 q 332 -198 342 -188 q 258 -227 300 -227 q 217 -205 245 -227 q 159 -102 189 -183 q 109 172 109 32 l 109 231 q 141 479 109 340 q 231 737 173 617 q 365 945 290 857 q 498 1034 440 1034 q 538 1019 521 1034 q 556 993 556 1003 q 507 914 556 968 q 330 608 401 796 q 260 193 260 420 z "},")":{"ha":493,"x_min":-8,"x_max":433,"o":"m 288 612 q 272 783 288 718 q 232 907 256 848 q 208 983 208 966 q 226 1012 208 1001 q 286 1034 261 1034 q 333 1001 311 1034 q 395 868 356 968 q 433 625 433 768 l 433 596 l 433 581 q 400 328 433 466 q 308 68 368 189 q 189 -117 248 -52 q 47 -227 89 -227 q 10 -211 28 -227 q -8 -188 -8 -195 q 35 -119 -8 -166 q 217 199 146 5 q 288 612 288 393 z "},"*":{"ha":629,"x_min":154,"x_max":616,"o":"m 206 585 q 186 582 194 582 q 174 589 179 582 q 154 634 154 618 q 174 678 154 651 q 200 709 193 705 q 223 724 223 722 q 211 747 213 736 q 197 776 208 758 q 186 808 186 795 q 202 842 186 821 q 227 863 218 863 q 294 845 254 863 l 304 842 l 312 840 l 319 836 l 333 829 q 351 872 337 829 q 375 924 364 915 q 454 949 406 949 q 474 905 474 949 q 462 828 474 860 q 456 795 450 795 l 559 832 q 593 813 570 832 q 616 772 616 793 q 591 731 616 751 q 529 701 566 711 q 492 677 492 690 q 512 644 492 669 q 532 581 532 619 q 523 535 532 543 q 483 527 513 527 q 431 541 453 527 q 396 554 408 554 q 381 551 384 554 q 372 537 378 548 q 362 523 366 526 q 277 487 319 487 q 250 532 250 487 l 254 569 q 206 585 254 585 z "},"+":{"ha":750,"x_min":86,"x_max":705,"o":"m 474 490 q 579 480 474 480 q 694 475 684 480 q 705 442 705 469 q 681 356 705 368 q 566 351 670 351 q 457 345 463 351 q 437 239 452 340 q 421 133 423 139 q 382 105 413 105 l 321 105 q 288 132 288 105 l 314 336 q 212 351 314 351 q 98 356 109 351 q 86 385 86 361 q 107 473 86 458 q 225 480 119 480 q 336 493 331 480 q 351 594 338 496 q 367 696 365 691 q 433 722 376 722 l 457 722 q 499 693 499 722 l 474 490 z "},",":{"ha":372,"x_min":27,"x_max":253,"o":"m 27 -151 l 27 -144 q 52 -95 27 -136 q 77 -30 77 -54 l 77 -27 l 69 9 q 68 21 68 18 l 67 30 l 67 39 q 92 143 67 104 q 161 167 106 167 l 201 167 q 253 153 253 167 l 253 140 q 190 -60 253 58 q 111 -155 160 -115 q 68 -175 87 -175 l 64 -175 q 27 -151 27 -175 z "},"-":{"ha":562,"x_min":90,"x_max":511,"o":"m 511 444 l 511 435 q 492 347 511 385 q 465 334 486 334 l 113 334 q 90 346 90 334 l 90 355 q 109 443 90 408 q 131 456 116 456 l 494 456 q 511 444 511 456 z "},".":{"ha":374,"x_min":71,"x_max":257,"o":"m 71 37 l 71 62 l 72 75 l 74 92 q 102 164 74 131 q 146 179 115 179 l 150 180 l 153 180 l 182 182 l 189 182 q 208 180 199 180 q 254 153 254 180 q 256 144 256 148 l 257 132 l 257 116 q 227 13 257 60 q 178 -5 216 -5 q 168 -6 171 -6 l 152 -7 l 135 -7 l 113 -5 q 71 37 71 -5 z "},"/":{"ha":570,"x_min":-36,"x_max":656,"o":"m -36 -91 q 28 41 -36 -81 q 126 230 92 163 l 370 699 q 402 760 396 748 l 497 943 q 575 998 528 998 l 588 998 q 656 983 656 998 q 123 -51 656 931 q 45 -106 93 -106 q -36 -91 -36 -106 z "},":":{"ha":403,"x_min":72,"x_max":345,"o":"m 225 473 q 161 506 161 473 l 159 524 l 159 534 l 159 537 l 159 547 q 161 564 161 562 q 190 643 161 610 q 233 659 203 659 q 246 661 243 661 l 262 662 l 286 662 q 300 660 294 660 q 345 617 345 660 l 345 595 l 342 569 q 313 490 342 516 q 264 476 296 476 l 252 474 l 245 474 l 235 473 l 225 473 m 72 41 l 72 60 l 73 63 l 73 69 l 77 99 q 103 165 77 135 q 153 182 117 182 l 156 183 l 159 184 l 182 185 l 192 185 q 210 183 200 183 q 258 140 258 183 l 258 119 l 256 92 q 226 14 256 48 q 184 0 214 0 l 172 -2 l 155 -3 l 136 -3 l 114 -1 q 72 41 72 -1 z "},";":{"ha":387,"x_min":40,"x_max":352,"o":"m 306 655 q 349 626 349 655 q 351 617 351 621 l 352 602 l 352 595 l 351 593 q 320 488 351 519 q 248 469 301 469 l 232 469 q 168 515 168 469 l 168 538 l 170 564 q 197 636 170 598 q 245 654 210 654 q 255 656 252 656 l 268 657 l 290 657 q 306 655 300 655 m 81 71 q 103 146 81 122 q 178 171 125 171 l 209 171 q 260 148 260 171 l 260 139 l 260 134 l 260 130 q 214 -31 260 48 q 133 -139 168 -111 q 82 -167 98 -167 l 74 -167 q 40 -139 40 -167 l 41 -136 q 65 -86 41 -123 q 90 -25 90 -49 l 85 -7 q 80 30 80 20 l 79 34 l 79 56 q 81 71 81 66 z "},"<":{"ha":736,"x_min":92,"x_max":705,"o":"m 288 409 q 422 316 288 402 q 570 218 556 230 q 625 127 625 176 q 609 85 625 101 q 577 69 593 69 q 135 336 541 69 q 92 406 92 364 q 138 479 92 448 q 351 596 147 485 q 564 711 555 707 q 680 753 667 753 q 705 720 705 753 l 705 709 q 642 616 705 661 q 459 513 629 606 q 288 409 288 420 z "},"=":{"ha":794,"x_min":87,"x_max":733,"o":"m 162 597 l 708 597 q 733 580 733 597 l 733 574 q 718 488 733 512 q 677 475 709 475 l 174 475 q 120 492 120 475 l 120 498 q 162 597 120 597 m 136 349 l 660 349 q 700 332 700 349 l 700 326 q 687 245 700 262 q 650 228 675 228 l 119 228 q 87 245 87 228 l 87 257 q 102 336 87 311 q 136 349 109 349 z "},">":{"ha":733,"x_min":80,"x_max":680,"o":"m 161 694 q 192 755 161 755 q 633 490 240 755 q 680 427 680 458 q 606 328 680 370 q 104 70 158 70 q 80 100 80 70 l 80 110 q 150 211 80 160 q 335 314 172 227 q 498 411 498 400 q 369 505 498 421 q 221 604 239 589 q 161 694 161 652 z "},"?":{"ha":675,"x_min":166,"x_max":651,"o":"m 448 601 q 493 703 493 656 q 468 775 493 750 q 400 801 442 801 q 304 771 357 801 q 209 742 251 742 q 166 783 166 742 l 166 794 q 247 893 166 847 q 424 939 328 939 q 586 888 520 939 q 651 747 651 837 l 651 734 q 589 565 651 651 q 341 273 566 534 q 304 258 328 258 l 292 258 q 222 286 222 258 q 273 428 222 348 q 360 517 294 460 q 448 601 427 574 m 370 157 q 368 138 370 157 q 336 47 368 84 q 258 11 304 11 l 234 11 q 194 26 216 11 q 172 47 172 42 l 172 60 l 173 63 l 173 69 l 176 99 l 189 171 l 191 186 q 264 233 191 233 l 288 233 q 368 189 368 233 l 369 184 l 370 181 l 370 165 l 370 161 l 370 157 z "},"@":{"ha":1190,"x_min":111,"x_max":1149,"o":"m 700 572 l 686 572 q 624 551 663 572 q 562 496 585 530 q 486 300 486 386 l 486 275 q 501 225 486 243 q 533 208 516 208 l 542 208 q 715 407 644 208 q 744 526 744 487 l 744 540 q 700 572 744 572 m 1149 547 q 1064 243 1149 361 q 959 150 1018 180 q 860 120 901 120 q 778 141 820 120 q 726 163 736 163 q 662 138 715 163 q 562 113 608 113 q 447 169 493 113 q 401 309 401 224 q 471 528 401 425 q 566 628 517 597 q 661 659 616 659 l 689 658 q 741 656 730 656 l 791 663 q 832 645 815 663 q 848 587 848 628 q 828 452 848 546 q 808 338 808 359 q 844 275 808 275 q 907 335 879 275 q 935 472 935 395 q 862 675 935 606 q 699 745 789 745 q 551 720 608 745 q 437 635 495 696 q 317 334 317 509 q 329 188 317 250 q 380 68 341 126 q 476 -21 419 9 q 578 -52 532 -52 q 652 -48 623 -52 l 682 -44 q 735 -38 728 -38 q 779 -61 779 -38 q 726 -117 779 -94 q 546 -149 652 -149 q 364 -118 439 -149 q 153 83 216 -58 q 111 267 111 176 l 111 304 q 164 555 111 435 q 492 890 271 798 q 719 937 604 937 q 1044 822 928 937 q 1122 698 1095 771 q 1149 547 1149 625 z "},"A":{"ha":872,"x_min":8,"x_max":801,"o":"m 563 659 q 545 770 563 770 q 452 601 544 770 q 361 410 361 431 q 467 404 361 404 l 534 403 q 589 429 589 403 q 587 449 587 443 l 585 469 q 582 495 582 490 l 579 515 q 577 536 577 531 l 570 592 l 568 607 q 563 659 563 648 m 492 940 q 583 967 526 967 q 654 952 640 967 q 682 884 669 938 q 748 444 695 830 q 801 49 801 58 q 738 9 801 9 q 648 38 675 9 q 622 146 635 52 q 605 250 609 241 q 523 275 593 275 q 298 258 321 275 q 229 146 274 240 q 180 47 184 53 q 66 7 150 7 l 36 7 q 8 23 8 7 q 68 159 8 39 q 399 800 351 726 q 492 940 486 935 z "},"B":{"ha":832,"x_min":65,"x_max":808,"o":"m 354 571 l 425 571 q 576 604 530 571 q 642 728 642 652 l 642 745 q 500 842 642 842 l 449 842 l 444 841 l 404 839 q 394 838 398 838 q 372 822 376 838 q 328 593 328 681 l 328 585 q 354 571 328 571 m 284 144 l 378 144 q 593 241 549 144 q 612 321 612 281 l 611 328 q 567 418 611 391 q 434 446 522 446 l 376 446 q 302 436 309 446 q 269 271 296 426 l 266 260 q 250 170 250 172 l 250 160 q 284 144 250 144 m 353 11 l 208 11 q 87 16 109 11 q 65 50 65 21 q 142 474 65 79 l 151 520 q 173 636 163 583 q 193 739 182 690 q 211 852 203 789 q 223 930 218 915 q 258 966 235 961 q 429 972 282 972 l 527 972 q 785 865 728 972 q 808 774 808 823 l 808 758 q 704 559 807 646 q 658 517 658 521 q 673 505 658 515 q 776 330 776 438 q 744 194 776 258 q 513 25 677 62 q 353 11 448 11 z "},"C":{"ha":842,"x_min":94,"x_max":879,"o":"m 94 389 q 140 626 94 505 q 262 827 186 747 q 429 942 338 907 q 622 977 519 977 q 802 941 726 977 q 879 861 879 906 q 856 796 879 825 q 803 767 833 767 q 693 800 773 767 q 587 833 614 833 q 460 799 519 833 q 295 562 345 733 q 271 372 271 479 q 328 199 271 264 q 480 134 385 134 q 594 162 529 134 q 713 191 659 191 q 763 131 763 191 q 660 34 763 80 q 458 -12 557 -12 q 189 86 283 -12 q 94 389 94 184 z "},"D":{"ha":909,"x_min":62,"x_max":892,"o":"m 720 562 l 720 593 q 666 766 720 703 q 517 829 612 829 l 476 829 l 417 827 q 369 802 376 827 q 315 528 350 730 q 278 317 280 326 l 268 262 l 266 252 l 264 243 l 261 223 l 257 204 q 252 175 252 176 l 252 167 q 323 142 252 142 l 363 142 q 503 167 444 142 q 611 249 561 192 q 690 396 661 307 q 720 562 720 486 m 892 624 l 892 576 q 849 353 892 471 q 326 5 719 5 l 249 5 l 233 5 q 62 33 62 5 q 79 131 62 47 q 102 252 96 216 q 111 304 109 289 l 117 334 l 123 363 q 135 433 132 418 q 145 485 138 448 l 153 530 q 165 590 159 559 l 170 621 l 187 711 q 207 846 201 785 q 221 931 212 908 q 263 961 229 955 q 425 966 297 966 l 471 967 l 519 967 q 863 773 777 967 q 892 624 892 705 z "},"E":{"ha":773,"x_min":66,"x_max":804,"o":"m 338 619 q 379 581 338 588 q 531 571 420 574 q 652 562 641 568 q 677 521 677 550 q 649 441 677 458 q 506 431 631 431 q 352 424 380 431 q 304 393 324 416 q 264 203 264 348 q 290 150 264 162 q 369 138 315 138 q 470 140 423 138 l 539 144 q 633 130 606 144 q 659 71 659 116 q 608 7 659 26 q 445 -1 585 -1 l 255 -1 q 101 11 137 -1 q 66 66 66 22 q 121 371 66 110 q 181 667 176 631 q 227 930 222 923 q 515 962 247 962 l 706 962 q 790 952 777 962 q 804 922 804 943 q 771 837 804 860 q 669 814 739 814 l 463 822 q 377 791 397 822 q 338 619 338 730 z "},"F":{"ha":752,"x_min":71,"x_max":796,"o":"m 341 598 q 361 564 341 572 q 500 555 380 555 q 644 545 621 555 q 668 506 668 534 q 627 423 668 441 q 485 412 612 416 q 327 380 358 407 q 284 322 296 353 q 251 178 273 290 q 218 47 229 66 q 135 14 199 14 q 71 55 71 14 l 87 149 l 92 168 q 100 214 93 174 q 113 281 106 254 l 119 319 q 146 469 140 427 q 188 715 153 512 q 224 920 223 918 q 506 958 249 958 l 544 960 l 680 962 l 738 962 q 796 926 796 962 q 768 840 796 865 q 678 825 750 825 l 644 826 l 590 826 l 494 824 q 384 794 404 824 q 341 598 341 731 z "},"G":{"ha":914,"x_min":101,"x_max":886,"o":"m 101 416 q 146 634 101 524 q 266 825 191 745 q 432 940 340 904 q 626 977 524 977 q 798 947 728 977 q 886 859 886 909 q 864 807 886 831 q 813 783 842 783 q 710 805 784 783 q 578 828 636 828 q 460 794 519 828 q 357 696 400 760 q 273 405 273 572 q 337 223 273 283 q 505 163 401 163 q 620 197 569 163 q 670 278 670 231 q 624 325 670 298 q 578 395 578 351 q 595 431 578 424 q 701 446 627 446 q 798 427 776 446 q 819 362 819 409 q 785 174 819 315 q 741 73 767 104 q 617 12 715 43 q 455 -18 520 -18 q 326 11 390 -18 q 208 101 262 40 q 127 238 153 161 q 101 390 101 314 l 101 416 z "},"H":{"ha":935,"x_min":66,"x_max":936,"o":"m 894 949 q 936 926 936 949 q 892 647 936 843 q 815 260 848 451 q 775 52 781 69 q 754 27 770 34 q 676 20 739 20 q 613 71 613 20 q 640 231 613 91 q 667 398 667 370 q 651 435 667 427 q 606 444 635 444 q 307 405 338 444 q 263 232 292 387 q 220 50 234 78 q 136 11 201 11 l 113 11 q 66 35 66 11 q 104 218 66 50 q 171 587 142 387 q 226 890 201 787 q 245 924 232 916 q 305 931 259 931 q 363 921 351 931 q 376 869 376 911 l 342 618 q 360 574 342 585 q 454 564 379 564 l 598 559 l 645 557 q 709 592 692 557 q 732 683 712 597 q 764 825 753 769 q 783 897 774 882 q 894 949 809 949 z "},"I":{"ha":445,"x_min":84,"x_max":439,"o":"m 210 1 q 149 3 187 3 q 98 13 111 3 q 84 50 84 22 q 130 222 84 77 q 178 461 138 248 q 218 760 218 675 l 215 821 q 253 946 215 919 q 381 963 277 963 l 406 963 q 439 918 439 963 q 399 750 439 899 q 348 493 391 722 q 304 169 304 264 q 284 38 304 74 q 222 1 264 1 l 210 1 z "},"J":{"ha":541,"x_min":-22,"x_max":534,"o":"m 73 -100 q -22 -35 -22 -100 l -22 -22 q 88 66 -22 41 q 158 90 142 79 q 227 181 192 114 q 300 434 261 248 q 345 697 339 621 q 368 913 361 886 q 409 950 375 940 q 506 961 443 961 q 534 899 534 961 l 534 886 l 533 849 q 462 401 533 802 q 376 78 419 166 q 98 -100 288 -100 l 85 -100 l 73 -100 z "},"K":{"ha":857,"x_min":84,"x_max":889,"o":"m 860 951 q 889 946 889 951 q 704 744 889 941 q 518 517 518 547 q 557 428 518 496 q 669 198 595 359 q 742 24 742 37 q 672 -1 742 -1 q 569 43 603 -1 q 493 202 563 51 q 414 370 422 354 q 359 416 389 416 q 288 321 321 416 q 261 181 281 300 q 229 41 241 62 q 168 3 209 3 q 84 33 84 3 l 84 54 q 117 255 84 58 q 182 659 150 452 q 224 893 214 867 q 324 935 239 935 q 374 890 374 935 q 352 755 374 869 q 330 616 330 642 q 337 591 330 591 q 415 632 368 591 q 506 719 416 633 q 645 858 597 806 q 709 920 694 911 q 860 951 757 951 z "},"L":{"ha":726,"x_min":77,"x_max":665,"o":"m 202 -1 q 98 7 119 -1 q 77 43 77 16 l 77 56 q 91 143 77 71 q 138 402 105 215 q 192 746 170 589 q 220 927 214 902 q 307 960 228 960 l 337 960 q 385 922 385 960 q 328 536 385 829 q 271 194 271 243 q 302 138 271 144 q 483 130 341 130 q 640 125 625 130 q 665 74 665 117 q 650 4 665 30 q 613 -12 642 -12 l 565 -12 l 549 -11 l 517 -10 q 486 -9 502 -9 l 423 -7 l 391 -6 q 345 -5 359 -5 l 329 -4 q 297 -3 313 -3 l 281 -3 q 250 -2 266 -2 l 234 -1 l 202 -1 z "},"M":{"ha":1147,"x_min":84,"x_max":1118,"o":"m 349 620 q 303 464 345 620 q 240 217 262 309 q 210 103 219 125 q 169 64 200 81 q 123 47 138 47 q 84 114 84 47 l 90 146 q 104 210 96 174 l 118 274 q 146 429 135 354 q 231 873 202 789 q 271 922 241 903 q 338 942 300 942 q 393 932 377 942 q 452 848 423 914 q 533 581 481 782 q 597 380 585 380 l 613 402 q 749 610 690 515 l 821 726 q 910 867 896 848 q 1027 949 972 949 q 1094 926 1069 949 q 1118 864 1118 903 q 1013 128 1118 763 q 984 51 1004 75 q 940 27 964 27 q 888 53 916 27 q 861 118 861 78 q 873 238 861 135 q 891 394 886 341 q 908 532 897 447 q 920 629 920 618 q 916 640 920 640 q 777 411 907 640 q 617 156 646 182 q 531 130 589 130 q 483 157 499 130 q 426 393 477 167 q 349 620 374 620 z "},"N":{"ha":968,"x_min":79,"x_max":972,"o":"m 803 26 q 799 21 803 26 q 753 16 795 16 q 685 23 712 16 q 634 67 659 31 q 485 397 610 103 q 342 692 359 692 q 285 389 341 692 q 223 68 229 87 q 143 18 207 18 q 79 39 79 18 q 109 211 79 47 q 151 453 140 376 q 187 668 162 531 l 201 743 l 205 770 l 210 823 q 220 900 218 890 q 286 943 231 943 q 367 933 341 943 q 414 890 393 922 q 583 547 467 811 q 702 283 699 283 q 764 580 713 283 q 823 899 815 876 q 858 940 831 922 q 939 959 885 959 q 972 920 972 959 q 819 79 972 839 q 803 26 810 37 z "},"O":{"ha":988,"x_min":93,"x_max":975,"o":"m 466 127 l 487 127 q 707 261 612 127 q 774 404 747 317 q 802 578 802 491 l 802 589 q 747 780 802 715 q 593 844 692 844 q 368 720 456 844 q 294 569 322 655 q 267 394 267 483 l 267 373 q 319 196 267 264 q 466 127 372 127 m 975 614 l 975 583 q 934 359 975 474 q 823 161 893 243 q 462 -12 675 -12 l 446 -12 q 117 209 193 -12 q 93 389 93 280 q 134 613 93 498 q 245 810 174 728 q 623 984 393 984 q 951 763 876 984 q 975 614 975 693 z "},"P":{"ha":793,"x_min":60,"x_max":823,"o":"m 343 507 l 420 507 q 595 557 534 507 q 656 696 656 608 l 656 722 q 616 805 656 775 q 497 835 576 835 l 450 835 q 369 812 375 835 q 317 524 317 616 q 343 507 317 507 m 512 967 q 823 737 823 967 l 823 721 q 788 573 823 648 q 701 457 754 498 q 407 374 596 374 q 286 338 307 374 q 252 191 275 320 q 225 50 229 62 q 154 7 210 7 l 109 7 q 60 32 60 7 l 117 340 l 123 369 q 165 599 123 373 q 213 870 208 825 q 224 935 218 915 q 262 961 230 955 q 435 966 294 966 l 465 967 l 512 967 z "},"Q":{"ha":992,"x_min":90,"x_max":968,"o":"m 257 407 l 257 373 q 314 193 257 258 q 460 127 370 127 l 471 127 q 535 143 517 127 q 569 182 553 158 q 607 226 586 205 q 648 267 629 246 q 674 295 667 288 q 709 318 682 301 q 750 355 736 335 q 782 444 764 376 q 800 585 800 513 l 800 597 q 680 822 800 774 q 597 839 637 838 l 586 839 q 355 711 442 839 q 282 559 307 643 q 257 407 257 475 m 968 607 l 968 571 q 931 370 968 469 q 853 216 895 271 q 810 156 812 160 l 788 132 q 759 94 766 107 q 751 38 751 81 l 749 17 q 745 -17 745 -2 q 752 -56 745 -31 q 755 -80 758 -80 q 748 -84 752 -80 q 731 -97 744 -88 q 633 -129 684 -129 q 366 -44 539 -129 q 195 79 283 -3 q 117 203 144 127 q 90 359 90 279 l 90 378 q 130 607 90 490 q 244 808 171 724 q 407 933 317 892 q 585 974 496 974 l 623 974 q 766 947 697 974 q 877 875 835 921 q 944 760 919 829 q 968 607 968 690 z "},"R":{"ha":838,"x_min":62,"x_max":822,"o":"m 351 531 l 403 531 l 408 532 l 461 533 q 473 534 467 534 q 602 585 547 534 q 657 707 657 635 l 657 731 q 619 808 657 779 q 507 837 581 837 l 449 837 l 444 836 l 427 836 l 416 836 q 399 834 405 834 q 367 812 374 834 q 319 560 319 668 l 319 546 q 351 531 319 531 m 345 395 q 283 355 298 395 q 254 210 280 348 q 218 55 227 73 q 138 9 195 9 q 72 19 81 9 q 62 43 62 27 q 133 440 62 60 q 209 874 203 821 q 220 937 215 927 q 435 968 238 968 l 494 969 q 742 918 669 969 q 800 848 779 892 q 822 758 822 804 l 822 739 q 678 481 822 586 q 607 404 607 429 q 626 359 607 400 q 691 180 645 319 q 737 32 737 41 q 669 4 737 4 l 649 4 q 561 43 584 4 q 513 188 555 52 q 442 360 471 324 q 345 395 414 395 z "},"S":{"ha":785,"x_min":50,"x_max":777,"o":"m 720 935 q 777 870 777 909 q 754 805 777 831 q 707 779 730 779 q 601 809 684 779 q 477 840 519 840 q 370 800 408 840 q 332 701 332 760 q 385 619 332 659 q 507 556 404 605 q 650 470 610 507 q 720 298 720 403 q 693 179 720 233 q 515 21 638 70 q 368 -7 445 -7 l 346 -7 q 140 32 231 -7 q 50 115 50 71 q 75 181 50 151 q 134 211 100 211 q 242 171 168 211 q 383 130 317 130 q 500 168 450 130 q 551 268 551 206 q 498 371 551 330 q 365 440 471 392 q 213 542 259 489 q 166 694 166 595 q 191 795 166 745 q 368 949 245 903 q 492 972 430 972 l 536 972 q 720 935 639 972 z "},"T":{"ha":782,"x_min":128,"x_max":861,"o":"m 364 0 q 258 29 258 0 q 283 194 258 83 q 345 510 308 304 q 381 777 381 717 q 320 819 381 819 l 291 817 q 240 812 281 816 q 180 808 198 808 q 128 851 128 808 l 128 867 q 139 926 128 909 q 178 949 151 943 q 553 967 249 967 l 605 967 q 841 961 821 967 q 861 930 861 955 q 829 835 861 859 q 734 821 810 821 l 701 823 l 669 823 l 638 824 q 564 774 582 824 q 494 419 550 735 l 482 351 l 479 334 q 449 142 466 260 q 414 12 432 23 q 364 0 395 0 z "},"U":{"ha":930,"x_min":120,"x_max":947,"o":"m 372 907 q 354 767 372 901 q 333 609 336 632 q 310 467 330 587 q 289 281 289 347 q 331 172 289 216 q 441 130 374 130 q 444 130 443 130 q 644 258 583 130 q 725 605 670 313 q 787 916 780 897 q 901 966 805 966 l 923 966 q 947 945 947 966 q 847 385 947 857 q 777 182 820 257 q 633 37 723 86 q 448 -12 544 -12 q 197 63 274 -12 q 120 269 120 138 l 120 294 q 190 762 120 401 q 206 872 199 811 q 215 938 212 933 q 317 957 226 957 q 372 907 372 957 z "},"V":{"ha":871,"x_min":132,"x_max":946,"o":"m 376 522 q 396 373 376 522 q 424 224 415 224 q 587 544 433 224 q 764 900 741 864 q 873 965 806 965 l 895 965 q 946 943 946 965 q 914 871 946 934 q 537 147 604 263 q 454 18 470 31 q 388 5 438 5 q 317 15 338 5 q 286 62 296 24 q 251 265 275 100 q 206 530 227 430 q 173 707 185 629 q 146 848 161 784 q 132 924 132 913 q 208 958 132 958 q 303 909 284 958 q 376 522 338 820 z "},"W":{"ha":1277,"x_min":151,"x_max":1328,"o":"m 748 919 q 810 872 800 919 q 851 542 826 805 q 892 278 876 278 l 903 298 q 1063 651 984 462 q 1166 878 1141 840 q 1225 931 1191 916 q 1294 946 1259 946 q 1328 932 1328 946 q 1286 815 1328 907 q 1121 442 1244 722 q 975 117 998 161 q 915 50 951 73 q 846 26 879 26 q 800 41 814 27 q 749 249 774 66 l 740 319 q 687 615 703 615 l 629 497 q 441 132 519 270 q 349 35 385 35 q 254 74 292 35 q 232 119 237 91 q 218 251 227 146 q 199 429 209 355 q 170 677 190 502 q 151 880 151 852 q 209 939 151 939 q 317 837 292 939 q 354 531 333 775 q 386 288 374 288 q 480 461 402 288 q 595 746 557 635 q 640 870 633 857 l 654 898 q 748 919 673 919 z "},"X":{"ha":865,"x_min":14,"x_max":923,"o":"m 595 473 q 685 248 595 461 q 775 26 775 35 q 665 -1 775 -1 q 595 28 617 -1 q 518 208 573 58 q 450 357 464 357 q 382 273 447 357 q 279 134 317 188 q 215 52 241 80 q 107 5 172 5 q 14 23 14 5 q 188 260 14 27 q 361 522 361 492 q 272 729 361 536 q 182 936 182 921 q 283 950 182 950 q 370 911 344 950 q 434 770 375 903 q 498 637 492 637 q 574 721 507 637 q 679 855 642 806 q 730 915 716 904 q 873 952 774 952 l 896 952 q 923 943 923 952 q 775 745 923 935 q 624 551 627 556 q 595 473 595 507 z "},"Y":{"ha":813,"x_min":140,"x_max":894,"o":"m 140 895 l 140 907 q 217 945 140 945 q 291 928 262 945 q 329 882 304 920 q 389 726 331 878 q 450 574 448 574 q 584 722 473 574 q 670 843 631 784 q 724 916 709 903 q 848 954 766 954 l 865 954 q 894 941 894 954 q 727 692 894 928 q 533 406 561 455 q 483 233 505 357 q 435 47 460 110 q 384 5 419 5 q 294 14 315 5 q 273 45 273 22 l 331 355 q 308 490 331 419 q 275 562 304 501 q 220 693 247 623 l 184 786 q 154 861 168 827 q 140 895 140 894 z "},"Z":{"ha":809,"x_min":28,"x_max":865,"o":"m 865 947 q 818 829 865 890 q 706 691 804 811 q 445 366 608 571 q 282 148 282 161 q 374 135 282 135 q 533 141 465 135 q 650 148 601 148 q 710 130 699 148 q 722 73 722 113 q 701 16 722 33 q 549 0 681 0 l 128 0 q 28 35 28 0 q 77 144 28 79 q 197 295 126 210 q 438 594 268 380 q 608 818 608 808 q 526 833 608 833 q 361 825 444 833 q 255 817 278 817 q 200 869 200 817 q 219 951 200 935 q 326 966 237 966 l 347 966 l 393 966 l 814 966 q 865 947 865 966 z "},"[":{"ha":511,"x_min":49,"x_max":595,"o":"m 382 -163 q 324 -224 382 -224 l 109 -224 q 49 -183 49 -224 l 49 -168 q 76 5 49 -136 q 124 266 103 146 q 164 486 144 386 q 209 734 183 586 q 246 935 234 882 q 279 1008 258 987 q 351 1029 301 1029 l 566 1029 q 595 1007 595 1029 q 562 919 595 942 q 465 905 541 905 q 399 876 422 905 q 373 803 390 865 q 290 362 355 740 q 225 -44 225 -15 q 254 -88 225 -73 q 311 -98 266 -94 q 369 -114 356 -102 q 382 -163 382 -125 z "},"\\":{"ha":583,"x_min":134,"x_max":504,"o":"m 504 -79 q 410 -105 504 -105 q 354 -63 366 -105 q 347 -31 354 -62 l 335 24 q 325 73 330 48 l 314 123 q 269 330 273 311 q 261 370 264 349 l 237 481 l 208 616 q 169 795 205 631 q 134 975 134 960 q 227 1000 134 1000 q 283 958 272 1000 q 323 776 304 875 q 367 570 342 677 q 395 439 391 462 q 422 315 399 416 l 427 291 l 432 266 q 444 210 437 241 q 456 155 451 180 l 462 130 q 486 19 468 100 q 504 -79 504 -63 z "},"]":{"ha":515,"x_min":-25,"x_max":509,"o":"m 248 1029 l 365 1029 q 482 1021 455 1029 q 509 974 509 1012 q 424 445 509 937 q 319 -120 338 -47 q 275 -206 299 -192 q 202 -220 251 -220 q 119 -222 154 -220 l 50 -224 l 0 -224 q -25 -216 -25 -224 l -25 -201 q 9 -115 -25 -141 q 81 -100 29 -100 q 156 -81 132 -100 q 194 -11 180 -62 q 221 127 196 -3 l 227 163 l 234 198 l 240 233 l 247 269 q 276 427 258 324 q 319 662 294 530 q 345 835 345 793 q 315 893 345 876 q 260 907 304 900 q 204 924 216 913 q 193 967 193 935 q 204 1015 193 1000 q 248 1029 216 1029 z "},"^":{"ha":768,"x_min":161,"x_max":694,"o":"m 492 958 l 500 958 q 564 887 531 958 q 694 553 694 604 q 633 525 694 525 q 559 585 596 525 q 505 705 543 613 q 460 798 467 798 q 379 685 459 798 q 287 560 300 573 q 207 526 252 526 q 161 549 161 526 q 182 591 161 557 q 404 916 288 768 q 492 958 437 958 z "},"_":{"ha":728,"x_min":-18,"x_max":660,"o":"m 31 -35 l 635 -35 q 660 -54 660 -35 l 660 -61 q 642 -136 660 -113 q 603 -147 632 -147 l 7 -147 q -18 -134 -18 -147 l -18 -121 q 0 -46 -18 -69 q 31 -35 9 -35 z "},"`":{"ha":457,"x_min":180,"x_max":429,"o":"m 429 773 l 429 766 q 389 736 429 736 l 380 736 q 294 782 335 736 q 180 939 180 910 l 180 946 q 227 970 180 970 l 246 970 q 336 941 311 970 q 429 773 429 834 z "},"a":{"ha":749,"x_min":57,"x_max":719,"o":"m 226 279 l 226 260 q 251 163 226 200 q 316 126 277 126 l 328 126 q 397 151 359 126 q 463 222 435 175 q 522 454 522 319 l 522 473 q 505 549 522 530 q 442 569 488 569 l 430 569 l 424 568 q 357 546 394 568 q 290 479 320 524 q 226 279 226 387 m 703 659 q 711 654 703 659 q 719 616 719 649 q 686 435 719 583 q 653 191 653 287 q 659 137 653 162 q 665 108 665 113 q 573 12 665 12 q 522 36 541 12 q 485 81 486 81 q 454 61 479 81 q 366 20 428 41 q 260 -1 303 -1 q 114 68 170 -1 q 57 239 57 137 l 57 266 q 88 420 57 341 q 281 650 155 585 q 414 686 351 686 l 439 686 q 532 671 493 686 q 584 656 571 656 l 655 669 q 703 659 687 669 z "},"b":{"ha":747,"x_min":60,"x_max":716,"o":"m 347 116 l 366 116 q 434 137 400 116 q 491 191 469 157 q 559 410 559 292 l 559 429 q 534 529 559 493 q 458 566 509 566 l 451 565 q 375 543 412 565 q 317 484 338 520 q 273 368 295 448 q 250 220 250 288 l 250 195 q 279 137 250 157 q 347 116 308 116 m 507 26 q 387 -6 448 -6 q 286 9 327 -6 l 259 22 l 246 29 q 212 43 218 43 q 179 25 205 43 q 118 7 153 7 q 72 18 84 7 q 60 53 60 29 q 75 153 60 77 q 96 264 90 229 q 113 359 102 300 q 169 672 125 419 q 226 964 213 925 q 308 1003 239 1003 l 323 1003 q 377 966 377 1003 q 353 797 377 939 q 329 646 329 656 q 335 635 328 635 q 368 648 342 636 q 531 686 449 686 q 665 618 614 686 q 716 441 716 549 l 716 425 q 689 265 716 347 q 507 26 632 94 z "},"c":{"ha":636,"x_min":64,"x_max":642,"o":"m 64 243 l 64 273 q 98 439 64 350 q 318 667 163 610 q 469 692 386 692 l 483 692 q 592 661 542 692 q 642 602 642 630 q 618 548 642 573 q 575 522 594 522 q 508 543 556 522 q 424 564 460 564 q 288 478 348 564 q 229 264 229 393 q 260 159 229 199 q 351 119 292 119 q 434 137 385 119 q 516 155 483 155 q 562 109 562 155 q 490 27 562 64 q 334 -10 418 -10 l 319 -10 q 210 9 260 -10 q 131 58 160 28 q 83 137 102 88 q 64 243 64 186 z "},"d":{"ha":755,"x_min":62,"x_max":781,"o":"m 224 270 l 224 257 q 250 156 224 193 q 323 119 275 119 l 330 119 l 336 119 q 409 142 369 119 q 470 203 448 164 q 512 330 492 243 q 531 469 531 416 l 532 481 q 510 543 532 526 q 425 570 475 570 l 418 570 q 290 492 341 570 q 224 270 224 393 m 286 658 q 410 685 343 685 q 513 672 477 685 q 551 659 549 659 q 596 794 578 659 q 626 955 614 929 q 703 1002 647 1002 l 718 1002 q 769 994 758 1002 q 781 959 781 985 q 754 787 781 933 l 724 629 q 655 220 675 370 q 633 64 635 70 q 546 9 614 9 q 500 25 512 9 q 490 48 496 29 q 475 67 484 67 q 443 49 473 67 q 267 0 363 0 l 251 0 q 116 63 170 0 q 62 237 62 127 l 62 254 q 97 427 62 336 q 286 658 163 599 z "},"e":{"ha":689,"x_min":68,"x_max":674,"o":"m 256 414 l 256 404 q 271 391 256 391 l 304 391 l 307 391 l 327 393 l 330 393 l 354 395 q 412 403 399 403 q 505 433 459 403 q 529 486 529 450 l 529 496 q 506 550 529 527 q 450 574 482 574 l 421 574 q 410 572 413 572 q 307 514 358 572 q 256 414 256 455 m 355 -7 l 324 -7 q 90 134 145 -7 q 68 245 68 189 l 68 260 q 99 430 68 344 q 309 665 161 604 q 449 693 374 693 l 465 693 q 618 639 562 693 q 674 498 674 585 l 674 483 q 616 350 674 391 q 448 300 572 319 q 406 294 408 294 l 392 293 q 270 276 281 281 q 239 208 239 263 q 275 148 239 173 q 361 123 311 123 q 467 143 412 123 q 550 163 522 163 q 589 107 589 163 q 530 41 589 70 q 355 -7 433 -7 z "},"f":{"ha":505,"x_min":32,"x_max":620,"o":"m 386 738 q 448 690 386 701 q 510 640 510 679 q 456 574 510 609 q 368 504 378 524 q 287 222 319 404 q 234 -13 254 40 q 191 -86 213 -66 q 119 -106 170 -106 l 102 -106 q 32 -71 32 -106 q 72 59 32 -28 q 138 258 113 146 q 163 477 163 370 q 147 550 163 495 q 131 631 131 605 q 170 687 131 657 q 222 741 210 718 q 242 793 234 764 q 266 858 251 821 q 312 929 280 895 q 394 982 344 963 q 493 1000 445 1000 l 511 1000 q 599 986 578 1000 q 620 958 620 972 q 586 882 620 901 q 515 870 578 877 q 426 840 453 864 q 386 738 386 806 z "},"g":{"ha":750,"x_min":55,"x_max":724,"o":"m 445 555 l 431 555 l 424 555 q 308 488 357 555 q 237 302 237 391 l 237 285 l 246 208 q 268 133 246 162 q 319 103 289 103 l 336 101 l 352 101 q 425 128 376 101 q 490 192 473 155 q 551 451 551 320 l 551 471 q 530 531 551 515 q 445 555 498 555 m 292 14 q 141 77 196 14 q 87 260 87 140 q 117 414 87 330 q 302 635 174 577 q 416 663 361 663 q 497 653 471 663 q 550 629 523 644 q 588 615 576 615 q 619 631 600 615 q 670 647 638 647 q 724 619 724 647 l 724 604 q 694 449 724 587 q 648 218 665 311 q 564 -115 598 -44 q 452 -234 529 -185 q 280 -283 376 -283 q 109 -248 184 -283 q 55 -181 55 -222 q 73 -142 55 -157 q 125 -126 92 -126 q 200 -144 158 -126 q 282 -163 241 -163 q 405 -97 355 -163 q 456 68 456 -31 l 452 71 q 429 57 450 71 q 376 28 408 43 q 292 14 344 14 z "},"h":{"ha":749,"x_min":70,"x_max":673,"o":"m 526 453 q 447 553 526 553 q 375 530 412 553 q 313 464 337 507 q 258 258 289 421 q 215 65 227 96 q 144 7 192 7 q 70 44 70 7 q 124 355 70 76 q 200 777 178 635 q 227 941 221 920 q 317 989 239 989 q 370 953 370 989 q 358 853 370 924 q 333 728 346 783 q 320 653 320 672 q 335 635 320 635 q 363 647 338 635 q 415 666 389 659 q 512 673 441 673 q 628 621 583 673 q 673 487 673 570 q 645 228 673 404 q 608 36 617 52 q 515 12 595 12 q 483 28 490 12 q 476 93 476 44 q 501 293 476 142 q 526 453 526 444 z "},"i":{"ha":382,"x_min":71,"x_max":391,"o":"m 390 913 q 388 886 390 913 q 366 826 388 852 q 311 800 344 800 l 299 798 l 293 798 l 283 798 l 281 798 q 213 846 213 798 l 213 867 l 214 871 l 214 877 q 215 886 215 884 q 242 954 215 931 q 311 977 269 977 l 329 977 l 346 975 q 389 940 389 975 q 390 931 390 933 l 391 920 l 391 917 l 390 913 m 71 47 l 71 64 q 90 176 71 109 q 135 379 109 242 q 160 585 160 517 q 179 675 160 652 q 250 688 189 688 l 276 688 q 333 668 333 688 l 333 645 q 303 469 333 630 q 273 288 273 307 q 272 258 272 268 l 272 238 l 275 191 q 257 86 275 144 q 231 20 239 27 q 125 4 216 4 l 109 3 q 77 8 84 3 q 71 47 71 12 z "},"j":{"ha":383,"x_min":-96,"x_max":406,"o":"m 298 803 q 241 815 259 803 q 224 859 224 828 l 224 868 l 225 884 l 228 902 q 256 964 228 930 q 301 979 269 979 l 319 981 l 338 981 q 404 943 404 981 l 406 925 l 406 910 q 386 835 406 864 q 332 806 365 806 l 320 804 l 314 804 l 304 803 l 298 803 m -96 -211 q -39 -145 -96 -175 q 35 -95 17 -115 q 72 -9 52 -75 q 130 289 91 56 q 168 585 168 522 q 183 670 168 649 q 245 692 197 692 l 258 692 l 270 691 l 282 691 q 342 667 342 691 l 342 656 l 341 635 q 340 603 340 614 q 279 249 340 559 q 201 -104 219 -61 q 119 -219 168 -180 q -34 -280 41 -280 l -46 -280 q -82 -263 -68 -280 q -96 -222 -96 -247 l -96 -211 z "},"k":{"ha":692,"x_min":74,"x_max":668,"o":"m 292 296 q 232 168 260 296 q 193 25 205 40 q 128 11 182 11 q 74 36 74 11 q 119 395 74 88 q 226 943 165 703 q 307 987 237 987 l 326 987 q 366 938 366 987 q 328 710 366 888 q 289 499 289 532 q 307 466 289 466 q 369 517 309 466 q 462 602 429 568 q 524 653 495 635 q 626 672 552 672 q 668 652 668 672 q 561 507 668 633 q 454 339 454 380 q 481 283 454 336 q 546 132 508 229 q 584 31 584 34 q 494 3 584 3 q 428 32 452 3 q 361 178 405 60 q 292 296 317 296 z "},"l":{"ha":385,"x_min":79,"x_max":385,"o":"m 79 87 l 79 111 q 103 230 79 136 q 169 570 126 323 q 211 832 211 817 q 237 985 211 943 q 332 1006 250 1006 l 343 1007 q 385 977 385 1007 l 385 965 l 384 954 q 330 614 384 901 q 275 228 275 327 l 276 210 q 276 183 276 197 l 279 127 q 252 24 279 58 q 170 -1 233 -1 l 134 -1 q 91 20 102 -1 q 79 87 79 40 z "},"m":{"ha":1091,"x_min":61,"x_max":1039,"o":"m 902 16 q 838 68 838 16 q 856 306 838 199 q 873 449 873 412 q 853 514 873 486 q 798 543 833 543 q 687 473 724 543 q 625 242 660 423 q 586 47 589 61 q 514 0 573 0 l 486 0 q 441 8 450 0 q 433 40 433 16 q 466 245 433 64 q 499 464 499 427 q 425 548 499 548 q 358 523 393 548 q 299 460 323 498 q 244 254 276 421 q 193 56 212 87 q 103 16 169 16 q 61 60 61 16 q 90 258 61 105 q 130 491 119 410 q 164 626 140 572 q 220 661 180 661 q 275 646 260 661 l 286 633 q 303 610 300 610 q 374 646 307 610 q 497 682 441 682 q 600 652 553 682 q 681 603 679 603 l 719 626 q 879 677 806 677 q 995 631 951 677 q 1039 495 1039 585 q 1013 284 1039 461 q 979 78 987 108 q 958 32 971 48 q 902 16 944 16 z "},"n":{"ha":748,"x_min":54,"x_max":692,"o":"m 496 35 q 490 99 490 42 q 513 293 490 156 q 537 467 537 431 q 516 530 537 503 q 456 557 496 557 q 375 536 416 557 q 307 473 335 514 q 243 247 279 432 q 192 38 208 62 q 95 14 176 14 q 54 36 54 14 q 85 210 54 83 q 131 449 115 338 q 157 600 146 561 q 222 665 175 665 q 274 656 258 665 q 297 621 290 648 q 316 594 304 594 q 349 616 319 594 q 517 678 433 678 q 646 629 600 678 q 692 500 692 580 l 692 484 q 678 366 692 458 q 649 164 663 273 q 632 47 635 55 q 566 13 620 13 q 496 35 513 13 z "},"o":{"ha":745,"x_min":65,"x_max":724,"o":"m 343 115 l 363 115 q 426 134 388 115 q 491 193 463 153 q 555 392 555 286 l 555 432 q 525 535 555 496 q 443 574 494 574 l 423 574 q 356 553 393 574 q 291 491 319 532 q 229 290 229 400 l 229 257 q 259 155 229 194 q 343 115 290 115 m 345 -10 l 321 -10 q 133 60 203 -10 q 84 141 102 91 q 65 248 65 192 l 65 271 q 98 438 65 349 q 185 585 130 527 q 444 696 292 696 l 456 696 l 468 696 q 654 622 572 696 q 705 544 686 593 q 724 454 724 495 l 724 431 q 692 271 724 358 q 492 26 626 91 q 345 -10 416 -10 z "},"p":{"ha":753,"x_min":14,"x_max":728,"o":"m 339 107 l 357 107 q 442 138 396 107 q 513 207 488 168 q 574 410 574 298 l 574 437 q 548 537 574 501 q 477 572 523 572 l 464 572 q 385 551 423 572 q 324 491 347 529 q 278 365 301 452 q 255 201 255 277 l 255 188 q 278 127 255 146 q 339 107 302 107 m 728 439 q 699 270 728 357 q 616 121 667 183 q 365 3 518 3 q 289 21 330 3 q 240 39 248 39 q 201 -90 227 39 q 158 -248 174 -218 q 76 -278 141 -278 l 46 -278 q 14 -251 14 -278 q 53 -18 14 -210 q 107 257 92 174 q 127 368 121 339 q 140 434 133 397 l 145 465 l 150 495 q 159 556 153 511 q 173 627 165 602 q 254 680 190 680 q 293 668 281 680 q 312 638 304 657 q 324 619 320 619 q 363 636 336 620 q 533 686 446 686 q 674 625 621 686 q 728 455 728 563 l 728 439 z "},"q":{"ha":745,"x_min":67,"x_max":730,"o":"m 437 572 l 425 572 q 289 485 349 572 q 229 268 229 397 q 253 160 229 199 q 326 122 278 122 l 339 122 q 410 144 371 122 q 469 198 450 166 q 511 314 488 231 q 534 465 534 397 l 534 495 q 509 551 534 530 q 437 572 483 572 m 445 51 q 414 38 438 51 q 378 19 391 25 q 273 -4 328 -4 q 123 61 178 -4 q 67 245 67 127 l 67 260 q 96 421 67 337 q 172 567 125 506 q 412 690 268 689 q 511 670 461 690 q 570 650 561 650 q 607 665 579 650 q 682 680 634 680 q 730 648 730 680 q 694 444 730 621 q 648 204 659 267 q 620 54 637 142 q 585 -135 603 -35 q 566 -243 568 -236 q 538 -287 555 -281 q 479 -293 522 -293 l 463 -293 q 406 -259 406 -293 l 456 40 q 445 51 456 51 z "},"r":{"ha":532,"x_min":58,"x_max":576,"o":"m 137 0 l 90 0 q 58 25 58 0 l 58 35 q 79 149 58 52 q 101 251 100 246 l 105 274 l 110 297 q 118 344 114 320 l 126 390 q 148 543 141 473 q 163 647 154 613 q 226 682 173 682 q 303 659 279 682 q 319 620 313 650 q 328 589 325 589 q 355 613 331 589 q 501 684 429 684 l 512 684 q 576 645 576 684 q 543 569 576 616 q 503 546 527 546 q 501 546 502 546 q 452 547 476 547 q 386 524 429 547 q 321 464 343 501 q 261 248 279 395 q 224 41 243 100 q 137 0 211 0 z "},"s":{"ha":620,"x_min":40,"x_max":594,"o":"m 378 687 l 394 687 q 533 665 471 687 q 594 618 594 642 q 575 557 594 576 q 536 538 555 538 q 454 555 516 538 q 383 573 393 573 q 301 554 334 573 q 269 501 269 536 q 307 441 269 467 q 395 400 312 437 q 514 324 476 363 q 552 224 552 285 q 471 53 552 115 q 272 -9 391 -9 q 115 17 191 -9 q 40 70 40 43 q 64 132 40 108 q 110 157 87 157 q 186 132 132 157 q 289 108 240 108 q 372 133 338 108 q 406 195 406 158 q 378 251 406 231 q 274 300 351 271 q 159 367 197 329 q 121 472 121 406 q 196 625 121 562 q 378 687 271 687 z "},"t":{"ha":503,"x_min":104,"x_max":497,"o":"m 497 668 l 497 647 q 472 581 497 598 q 415 566 461 573 q 360 545 370 559 q 318 401 351 531 q 286 217 286 271 q 300 151 286 163 q 351 134 314 139 q 394 126 389 130 q 412 73 412 116 q 376 13 412 31 q 265 -5 340 -5 q 153 36 190 -5 q 117 169 117 77 q 140 323 117 204 q 164 520 164 441 q 134 567 164 549 q 104 600 104 585 q 125 658 104 637 q 174 688 146 679 q 211 713 202 697 q 234 784 220 728 q 262 858 248 840 q 340 892 290 892 l 353 892 q 393 858 393 892 l 382 753 q 392 712 382 722 q 449 690 401 702 q 497 668 497 678 z "},"u":{"ha":749,"x_min":79,"x_max":718,"o":"m 243 216 q 333 124 243 124 q 400 148 359 124 q 467 208 442 171 q 523 413 492 245 q 575 626 555 580 q 657 671 596 671 q 718 635 718 671 q 690 468 718 631 q 648 203 662 304 q 627 75 633 102 q 604 29 620 47 q 551 12 589 12 q 503 18 513 12 q 482 52 493 25 q 467 79 471 79 q 432 58 462 79 q 359 18 401 37 q 237 -1 316 -1 q 114 58 159 -1 q 79 185 79 103 q 104 358 79 227 q 140 557 129 489 q 153 631 151 626 q 208 675 165 675 l 224 675 q 289 661 275 675 q 302 608 302 646 q 273 411 302 569 q 243 216 243 253 z "},"v":{"ha":684,"x_min":104,"x_max":717,"o":"m 284 -4 q 229 5 246 -4 q 203 50 212 14 q 149 366 193 86 q 104 646 104 645 l 104 659 q 170 682 104 682 l 185 682 q 263 632 248 682 q 296 400 267 618 q 332 181 326 181 q 393 297 336 181 q 473 459 451 413 l 530 582 q 559 646 557 643 q 672 681 584 681 q 717 669 717 681 q 640 496 717 650 q 387 31 445 106 q 284 -4 360 -4 z "},"w":{"ha":992,"x_min":125,"x_max":998,"o":"m 646 20 q 606 45 616 20 q 553 241 587 88 q 512 393 518 393 q 476 332 511 393 q 384 178 441 271 q 313 68 327 84 q 239 22 273 22 q 157 96 169 22 q 127 545 127 263 l 126 589 l 125 610 l 125 631 q 149 663 125 663 q 250 615 233 663 q 264 398 256 595 q 298 202 272 202 q 359 328 307 202 q 446 547 411 453 q 487 647 481 641 q 579 665 503 665 q 630 635 623 665 q 651 408 638 604 q 668 212 664 212 q 736 327 676 212 q 825 513 795 443 q 868 604 854 584 q 952 659 906 659 q 998 646 998 659 q 973 583 998 634 q 928 475 948 531 q 759 81 829 190 q 646 20 720 20 z "},"x":{"ha":688,"x_min":3,"x_max":714,"o":"m 500 1 q 434 23 452 1 q 379 139 417 45 q 337 233 342 233 q 261 140 332 233 q 179 35 191 46 q 74 2 144 2 q 3 19 3 2 q 127 183 3 23 q 252 355 252 343 q 188 495 252 387 q 124 646 124 604 q 232 675 124 675 q 297 649 278 675 q 350 541 316 623 q 390 458 385 458 q 499 593 409 458 q 540 648 528 636 q 656 680 574 680 l 673 680 q 714 672 714 680 q 592 502 714 646 q 471 326 471 358 q 538 179 471 294 q 605 33 605 64 q 517 1 605 1 l 500 1 z "},"y":{"ha":715,"x_min":54,"x_max":738,"o":"m 279 28 q 227 113 279 39 q 153 255 175 186 q 108 591 108 399 q 119 634 108 622 q 202 667 151 667 q 271 614 254 667 q 304 365 296 535 q 330 194 313 194 q 517 488 391 194 q 593 642 574 620 q 710 677 625 677 q 738 653 738 677 q 604 340 738 648 q 416 -49 469 33 q 269 -199 362 -130 q 115 -267 176 -267 q 54 -242 54 -267 q 117 -184 54 -232 l 215 -111 q 279 28 279 -32 z "},"z":{"ha":652,"x_min":24,"x_max":655,"o":"m 254 347 q 335 441 254 347 q 417 547 417 535 q 376 559 417 559 q 286 553 335 559 q 199 547 236 547 q 150 557 161 547 q 138 609 138 568 q 156 667 138 650 q 231 684 174 684 l 281 684 l 297 684 q 330 682 330 682 l 484 682 q 635 681 629 682 q 655 653 655 675 q 610 552 655 610 q 432 345 600 538 q 264 138 264 151 q 338 124 264 124 q 401 130 347 124 q 497 136 455 136 q 551 123 538 136 q 564 70 564 110 q 547 15 564 31 q 454 -1 530 -1 l 201 -1 q 47 2 58 -1 q 24 27 24 7 q 68 130 24 71 q 254 347 90 158 z "},"{":{"ha":520,"x_min":80,"x_max":593,"o":"m 385 -163 q 323 -234 385 -234 q 174 -188 225 -234 q 122 -37 122 -142 q 142 99 122 -5 q 163 249 163 203 q 135 321 163 296 q 80 380 80 373 q 120 457 80 436 q 162 479 160 478 q 220 553 202 507 q 253 718 225 566 q 320 924 281 870 q 417 1003 359 977 q 535 1029 475 1029 l 553 1029 q 593 1000 593 1029 l 593 985 q 563 917 593 937 q 532 904 556 912 q 492 889 507 897 q 435 837 457 873 q 391 674 413 800 q 349 503 370 548 q 289 430 328 458 q 250 398 250 401 q 267 376 250 395 q 297 331 283 357 q 311 261 311 306 q 293 127 311 217 q 275 -11 275 37 q 317 -88 275 -60 q 385 -163 385 -134 z "},"|":{"ha":420,"x_min":92,"x_max":378,"o":"m 176 -246 l 135 -246 q 92 -235 92 -246 l 92 -208 l 122 33 l 124 47 l 134 132 l 136 146 q 241 995 231 935 q 281 1032 248 1032 l 335 1032 q 378 1021 378 1032 l 378 1008 q 357 825 378 1007 l 355 810 l 338 669 l 336 654 l 332 626 q 230 -209 239 -159 q 176 -246 223 -246 z "},"}":{"ha":524,"x_min":-18,"x_max":483,"o":"m 239 1029 q 440 827 440 1029 q 423 687 440 773 q 406 559 406 600 q 429 489 406 519 q 456 466 430 488 q 483 427 483 444 l 483 412 q 430 337 483 364 q 359 271 378 309 q 314 85 340 233 q 251 -116 288 -63 q 158 -201 214 -169 q 45 -233 101 -233 l 29 -233 q -18 -200 -18 -233 q 12 -131 -18 -162 l 77 -98 q 138 -44 116 -79 q 182 118 160 -9 q 218 279 203 244 q 297 374 242 337 q 332 401 332 397 q 315 420 331 404 q 264 543 264 471 q 282 669 264 574 q 301 816 301 764 q 249 896 301 867 q 196 963 196 924 q 239 1029 196 1029 z "},"~":{"ha":713,"x_min":110,"x_max":702,"o":"m 702 549 l 702 536 q 630 416 702 475 q 529 376 581 376 q 393 420 477 376 q 293 464 310 464 q 222 428 258 464 q 148 392 186 392 q 110 412 110 392 q 168 525 110 471 q 288 579 225 579 l 302 579 q 421 536 343 579 q 527 493 499 493 q 593 528 555 493 q 666 563 631 563 q 702 549 702 563 z "},"":{"ha":401,"x_min":0,"x_max":0,"o":""},"":{"ha":399,"x_min":35,"x_max":366,"o":"m 277 806 l 280 806 q 353 784 326 806 q 366 741 366 772 l 366 719 l 363 700 q 336 641 363 664 q 264 617 309 617 l 257 617 q 174 688 174 617 l 174 694 l 176 720 q 207 785 176 764 q 277 806 237 806 m 155 -195 l 77 -195 q 35 -177 35 -195 l 35 -170 q 56 -52 35 -136 q 116 235 76 33 q 169 477 157 436 q 216 517 180 517 l 277 517 q 298 494 298 517 l 298 479 q 285 369 298 476 l 279 326 l 278 318 l 276 300 l 275 292 l 273 275 l 271 266 l 271 257 q 214 -149 233 -56 q 155 -195 204 -195 z "},"":{"ha":699,"x_min":81,"x_max":664,"o":"m 241 293 q 262 211 241 252 q 307 170 283 170 q 323 188 319 170 q 399 573 399 545 l 399 577 q 397 582 399 582 l 393 582 q 293 504 342 582 q 243 354 243 426 l 243 349 l 242 344 l 241 329 l 241 293 m 81 298 l 81 315 q 105 452 81 384 q 262 654 153 588 q 353 696 300 677 q 415 722 406 715 q 439 770 423 730 q 459 814 456 810 q 503 833 474 833 q 543 821 532 833 q 553 762 553 809 q 593 688 553 715 q 664 615 664 640 q 643 578 664 597 q 601 560 623 560 q 556 569 578 560 q 521 578 534 578 q 498 551 507 578 q 458 372 496 545 q 420 193 420 199 q 441 164 420 164 q 491 174 458 164 q 539 184 524 184 q 571 165 555 184 q 587 135 587 146 q 524 68 587 102 l 497 56 l 484 49 l 471 43 q 425 17 433 24 q 400 -20 416 9 q 374 -58 385 -50 q 300 -83 345 -83 q 272 -38 277 -83 q 265 8 267 6 l 244 22 l 234 30 l 222 37 q 132 125 163 73 q 81 298 81 211 z "},"":{"ha":766,"x_min":32,"x_max":745,"o":"m 292 170 q 399 133 292 133 q 521 146 456 133 q 602 159 586 159 q 637 144 618 159 q 656 104 656 129 q 617 23 656 47 q 465 -1 578 -1 l 307 3 l 104 -1 q 32 62 32 -1 q 103 170 32 99 q 174 332 174 241 q 168 382 174 370 l 157 393 l 143 400 l 131 409 q 100 456 100 435 q 145 517 100 477 q 195 565 191 557 q 209 623 199 572 q 299 845 240 777 q 405 923 342 895 q 528 950 468 950 l 551 950 q 684 916 623 950 q 745 846 745 882 l 745 827 q 725 785 745 801 q 686 769 705 769 q 622 787 667 769 q 538 804 578 804 q 534 804 536 804 q 408 729 452 804 q 374 565 374 670 q 384 539 374 544 q 481 523 393 534 q 569 491 569 512 q 534 422 569 451 q 448 386 515 406 q 357 339 381 366 q 313 244 334 312 q 292 170 292 177 z "},"":{"ha":788,"x_min":89,"x_max":766,"o":"m 578 535 l 578 562 q 576 578 576 572 q 540 660 576 620 q 454 700 504 700 l 444 700 q 327 637 374 700 q 279 502 279 574 l 279 492 q 311 393 279 435 q 395 351 342 351 l 416 351 q 523 405 469 351 q 578 535 578 460 m 688 618 q 693 553 693 593 q 683 484 693 514 q 656 417 673 453 q 640 360 640 380 q 665 301 640 340 q 690 254 690 261 q 673 207 690 227 q 637 187 655 187 q 585 221 618 187 q 525 255 551 255 l 513 252 l 486 244 q 385 231 435 231 q 304 238 335 231 q 263 246 274 246 q 205 206 252 246 q 148 166 157 166 q 114 193 139 166 q 89 237 89 220 q 127 293 89 254 q 165 363 165 333 l 158 389 q 146 517 146 429 q 169 597 146 550 q 191 668 191 644 q 172 733 191 692 q 153 790 153 774 q 175 830 153 806 q 211 854 197 854 q 260 820 225 854 q 307 785 294 785 q 360 798 320 785 q 451 810 401 810 q 541 797 502 810 q 595 784 580 784 q 653 819 610 784 q 707 854 696 854 q 741 828 717 854 q 766 785 766 802 q 723 725 766 768 q 680 658 680 682 l 682 645 l 688 618 z "},"":{"ha":829,"x_min":130,"x_max":881,"o":"m 386 732 q 418 643 386 732 q 456 554 449 554 q 585 733 463 554 q 725 928 707 911 q 846 972 771 972 q 881 935 881 972 q 814 832 881 924 q 729 711 747 739 q 613 505 613 536 q 649 468 613 487 q 685 434 685 448 q 646 381 685 397 q 587 372 629 374 q 530 357 545 369 q 515 317 515 345 q 592 283 515 292 q 669 245 669 275 q 569 184 669 189 q 487 166 507 182 q 451 84 468 150 q 431 14 435 18 q 366 0 418 0 l 340 0 q 291 8 305 0 q 277 59 277 16 l 279 124 q 204 174 279 161 q 130 210 130 188 l 130 227 q 150 267 130 254 q 224 287 171 279 q 289 304 278 294 q 299 335 299 313 q 290 365 299 357 q 226 373 281 373 q 170 404 170 373 q 217 474 170 439 q 264 519 264 508 q 171 829 264 604 q 139 940 139 906 q 189 973 139 973 q 310 930 279 973 q 386 732 323 911 z "},"":{"ha":371,"x_min":61,"x_max":332,"o":"m 253 502 l 164 502 q 140 519 140 502 l 140 531 q 147 610 140 560 q 171 827 155 660 q 193 1020 188 994 q 225 1046 199 1046 l 307 1046 q 332 1022 332 1046 q 316 846 332 948 q 291 640 301 745 q 279 528 280 534 q 253 502 273 502 m 171 -241 l 97 -241 q 61 -222 61 -241 l 61 -216 q 112 264 61 -58 q 142 293 117 293 l 222 293 q 252 275 252 293 l 252 269 q 201 -212 252 110 q 171 -241 196 -241 z "},"":{"ha":691,"x_min":71,"x_max":647,"o":"m 492 430 l 492 444 q 431 534 492 487 q 335 581 370 581 l 328 581 q 276 551 302 581 q 250 492 250 522 l 250 473 q 289 400 250 435 q 402 332 366 332 l 418 332 q 466 365 439 332 q 492 430 492 399 m 214 772 q 289 949 214 883 q 466 1016 365 1016 l 486 1016 q 597 995 547 1016 q 647 947 647 974 q 588 863 647 863 q 530 875 572 863 q 453 887 488 887 q 395 865 417 887 q 373 807 373 843 q 400 744 373 772 q 501 666 427 716 q 606 572 574 616 q 637 457 637 528 q 579 322 637 387 q 522 225 522 257 l 524 211 q 525 177 525 199 q 374 -79 525 -14 q 262 -104 316 -104 l 243 -104 q 112 -75 173 -104 q 71 -19 71 -55 q 86 37 71 16 q 126 57 102 57 q 193 43 149 57 q 274 30 237 30 q 335 53 311 30 q 359 112 359 77 q 339 170 359 147 q 247 245 319 192 q 141 343 175 298 q 108 449 108 386 q 191 621 108 554 q 231 663 231 653 q 214 772 214 719 z "},"":{"ha":573,"x_min":136,"x_max":569,"o":"m 304 781 l 304 775 l 303 772 q 280 706 303 734 q 220 678 257 678 l 201 678 q 154 694 173 678 q 136 739 136 709 l 136 755 q 156 815 136 786 q 205 844 177 844 l 219 846 l 241 846 q 257 845 247 845 q 286 830 267 845 q 304 781 304 814 m 569 786 l 569 766 q 567 745 567 758 q 546 706 567 731 q 503 681 526 681 q 489 678 492 678 l 464 678 q 418 695 435 678 q 401 738 401 711 l 401 755 q 405 782 405 768 q 427 821 405 795 q 484 846 448 846 l 504 846 q 552 829 535 846 q 569 786 569 812 z "},"":{"ha":1071,"x_min":110,"x_max":1046,"o":"m 624 885 l 599 885 q 452 851 525 885 q 238 616 302 781 q 210 462 210 543 q 306 198 210 298 q 414 128 352 151 q 533 105 476 105 l 558 105 q 561 105 559 105 q 701 137 629 105 q 919 374 852 203 q 947 516 947 444 l 947 541 q 850 791 947 691 q 747 860 808 836 q 624 885 687 885 m 601 770 l 623 770 q 722 746 675 770 q 768 694 768 722 q 750 663 768 678 q 725 648 732 648 q 676 657 717 648 q 593 667 635 667 q 494 609 530 667 q 457 477 457 552 q 576 321 457 321 q 642 331 600 321 q 699 341 684 341 q 730 297 730 341 q 680 247 730 273 q 577 220 630 220 l 543 220 q 396 286 456 220 q 336 446 336 351 l 336 481 q 357 589 336 533 q 504 749 402 705 q 601 770 554 770 m 630 971 q 918 859 799 971 q 1013 721 979 802 q 1046 557 1046 640 l 1046 526 q 1007 336 1046 430 q 897 170 967 243 q 733 58 826 98 q 542 18 640 18 l 527 18 q 237 132 357 18 q 144 268 179 186 q 110 433 110 349 l 110 464 q 149 651 110 556 q 255 814 189 745 q 412 927 321 882 q 600 971 503 971 l 630 971 z "},"":{"ha":541,"x_min":122,"x_max":503,"o":"m 369 740 q 337 772 369 772 l 321 772 l 307 769 q 256 736 289 769 q 224 663 224 704 l 224 650 q 267 597 224 597 l 275 597 q 332 627 302 597 q 363 691 363 658 q 365 702 365 699 l 366 704 l 366 707 l 368 722 l 368 730 l 369 735 l 369 740 m 475 654 l 485 597 q 470 532 485 546 q 426 519 456 519 q 385 530 396 519 q 357 555 360 555 q 306 535 353 555 q 221 516 259 516 q 153 545 183 516 q 122 618 122 573 l 122 626 q 178 737 122 678 q 258 840 258 823 q 249 864 258 857 q 239 874 239 872 q 340 918 239 918 q 388 926 359 918 q 429 935 416 935 l 446 935 q 485 914 467 935 q 503 859 503 894 l 503 829 l 475 654 z "},"":{"ha":799,"x_min":85,"x_max":765,"o":"m 458 606 q 296 409 458 563 q 252 362 252 368 q 315 259 252 357 q 379 135 379 161 q 358 92 379 110 q 323 74 338 74 q 239 136 288 74 q 85 361 85 332 q 106 394 85 368 q 332 608 179 486 q 414 649 385 649 l 421 649 q 458 613 458 649 l 458 606 m 628 252 q 686 139 686 163 q 665 96 686 115 q 635 77 644 77 q 550 136 599 77 q 395 357 395 321 q 630 596 395 375 q 716 646 683 646 l 723 646 q 765 607 765 646 l 765 600 q 663 467 765 569 q 560 357 560 364 l 628 252 z "},"":{"ha":835,"x_min":112,"x_max":759,"o":"m 155 562 l 709 562 q 750 552 741 562 q 759 505 759 543 l 759 479 q 758 451 758 461 q 728 223 758 318 q 702 206 723 206 q 621 220 633 206 q 608 286 608 234 q 610 306 608 286 q 613 378 613 326 q 601 438 613 431 q 539 446 589 446 l 490 448 l 329 448 q 140 450 153 448 q 112 479 112 454 l 113 489 l 113 498 q 119 550 113 538 q 155 562 126 562 z "},"":{"ha":551,"x_min":81,"x_max":500,"o":"m 123 477 l 488 477 q 500 469 500 477 q 484 357 500 401 q 458 342 478 342 l 93 342 q 81 351 81 342 q 123 477 81 477 z "},"":{"ha":977,"x_min":63,"x_max":888,"o":"m 422 673 l 473 673 l 475 673 l 497 675 q 502 676 500 676 q 546 697 525 676 q 566 744 566 718 l 566 758 q 564 770 564 766 q 514 807 564 807 q 507 808 510 808 l 493 810 l 454 810 q 422 733 422 810 q 422 728 422 730 l 422 726 q 422 720 422 723 l 418 679 q 422 673 418 673 m 519 989 l 496 989 q 363 959 428 989 q 250 876 298 928 q 175 753 201 823 q 149 615 149 683 l 149 593 q 149 590 149 592 q 171 477 149 535 q 236 377 194 418 q 444 296 320 297 l 454 297 l 465 297 q 587 326 522 297 q 772 522 715 384 q 802 669 802 594 l 802 680 l 802 691 q 781 804 802 750 q 644 959 741 911 q 519 989 584 989 m 657 773 l 657 753 q 637 687 657 716 q 587 639 616 657 q 558 614 558 621 q 573 583 558 614 q 616 486 588 552 q 644 420 644 420 q 593 408 644 408 l 585 408 q 511 504 553 408 q 436 599 469 599 q 407 582 412 599 q 399 505 403 564 q 384 428 395 446 q 338 410 374 410 q 302 423 302 410 l 302 432 q 318 597 302 436 q 335 809 335 758 q 346 872 335 861 q 414 883 356 883 l 484 883 q 611 854 564 883 q 657 773 657 826 m 459 222 l 418 222 q 278 254 347 222 q 87 457 138 317 q 63 600 63 525 l 63 614 q 199 934 63 794 q 333 1027 253 990 q 506 1063 414 1063 l 519 1063 q 670 1033 600 1063 q 786 954 741 1003 q 888 699 888 845 l 888 672 q 853 503 888 585 q 612 256 778 328 q 459 222 532 222 z "},"":{"ha":562,"x_min":130,"x_max":562,"o":"m 166 812 l 547 812 q 562 795 562 812 l 562 790 q 531 701 562 701 l 139 701 q 130 713 130 701 l 130 722 q 166 812 130 812 z "},"":{"ha":488,"x_min":109,"x_max":495,"o":"m 323 811 l 309 811 q 242 778 275 811 q 208 699 208 744 l 208 675 q 210 665 210 668 q 232 618 210 644 q 286 593 254 593 l 293 593 q 363 625 330 593 q 395 695 395 658 l 397 715 l 397 719 l 397 722 q 376 783 397 754 q 323 811 356 811 m 294 509 l 269 509 q 156 560 202 509 q 109 676 109 610 l 109 688 q 172 833 109 770 q 317 895 234 895 l 323 895 q 448 845 401 895 q 495 722 495 794 l 494 715 l 494 709 q 433 571 494 633 q 294 509 371 509 z "},"":{"ha":754,"x_min":77,"x_max":715,"o":"m 327 271 l 342 440 q 232 455 342 455 q 123 478 123 455 q 144 570 123 554 q 255 577 155 577 q 358 582 355 577 q 374 691 362 587 q 410 795 387 795 l 456 795 q 511 760 511 795 q 508 728 511 754 q 503 682 505 702 l 497 637 q 494 593 494 609 q 605 577 494 577 q 715 556 715 577 q 694 465 715 484 q 585 455 684 455 q 480 449 486 455 q 464 350 475 442 q 451 254 452 257 q 416 240 446 240 l 394 240 l 382 241 q 336 247 345 241 q 327 271 327 253 m 114 173 l 651 173 q 668 155 668 173 l 667 149 l 667 142 q 657 73 667 92 q 624 54 648 54 l 94 54 q 77 66 77 54 l 77 79 q 114 173 77 173 z "},"":{"ha":500,"x_min":96,"x_max":495,"o":"m 323 433 l 287 433 l 275 433 l 238 433 q 96 455 96 433 q 136 536 96 489 q 231 630 151 554 q 340 750 310 707 q 370 831 370 794 q 322 882 370 882 q 245 853 300 882 q 188 825 191 825 q 165 868 165 825 q 224 945 165 910 q 351 979 283 979 q 457 945 420 979 q 495 861 495 910 l 495 837 q 456 734 495 786 q 345 615 417 682 q 272 538 272 548 q 339 534 272 534 q 427 524 406 534 q 448 483 448 513 q 418 440 448 452 q 323 433 399 433 z "},"":{"ha":495,"x_min":93,"x_max":478,"o":"m 329 981 l 354 981 q 452 956 425 981 q 478 882 478 930 q 408 750 477 806 q 387 723 387 732 l 393 718 l 411 706 q 459 600 459 671 q 398 473 459 530 q 244 416 336 416 l 232 416 q 131 441 168 416 q 93 477 93 467 l 93 486 q 110 522 93 500 q 143 543 126 543 q 196 530 160 543 q 263 517 233 517 q 318 541 293 517 q 343 607 343 565 q 293 665 343 649 q 229 715 229 686 q 291 774 229 737 q 354 845 354 811 q 299 880 354 880 l 203 867 q 175 911 175 867 q 222 958 175 935 q 329 981 269 981 z "},"":{"ha":451,"x_min":185,"x_max":476,"o":"m 457 960 q 476 948 476 960 q 331 772 476 903 q 241 728 283 728 l 208 728 q 185 738 185 728 l 185 741 q 299 926 185 798 q 374 958 328 958 l 382 959 l 387 960 l 408 960 l 457 960 z "},"":{"ha":767,"x_min":11,"x_max":720,"o":"m 249 243 q 347 121 249 121 q 422 150 382 121 q 484 220 463 179 q 538 445 506 260 q 600 656 571 629 q 666 674 619 674 q 720 614 720 674 q 691 424 720 589 q 662 170 662 258 q 670 112 662 158 q 637 33 670 69 q 596 17 624 17 q 551 29 568 17 q 521 56 534 41 q 503 71 508 71 q 439 36 498 71 q 313 1 380 1 q 263 12 298 1 q 227 22 229 22 q 166 -175 197 22 q 157 -229 158 -227 q 81 -269 144 -269 l 60 -269 q 11 -233 11 -269 l 11 -216 q 43 -5 11 -185 l 60 102 q 68 146 67 142 l 72 168 q 79 210 75 189 l 94 296 q 146 595 143 583 q 208 673 163 673 q 286 660 271 673 q 300 606 300 646 q 274 418 300 566 q 249 243 249 270 z "},"":{"ha":855,"x_min":119,"x_max":871,"o":"m 871 960 q 871 958 871 960 q 831 814 871 894 q 781 682 791 732 q 723 313 772 632 q 667 -26 674 -5 q 632 -62 661 -46 q 593 -78 603 -78 q 564 -60 583 -78 q 545 -4 545 -41 q 610 431 545 34 q 675 859 675 829 q 604 889 675 889 q 565 841 574 889 q 544 706 561 819 q 502 441 526 593 q 454 137 477 290 q 426 -35 431 -17 q 364 -83 413 -83 l 340 -83 q 302 -22 302 -83 q 320 106 302 0 q 338 235 338 213 q 320 398 338 367 q 238 480 302 430 q 147 577 175 531 q 119 690 119 623 q 156 825 119 757 q 379 987 224 951 q 568 1002 446 1002 l 622 1002 l 648 1002 q 832 995 793 1002 q 871 960 871 988 z "},"":{"ha":355,"x_min":98,"x_max":299,"o":"m 99 427 l 100 444 q 128 505 100 481 q 194 529 155 529 l 218 529 q 280 507 261 529 q 299 449 299 484 l 299 435 l 298 431 l 297 415 q 268 350 297 371 q 200 329 238 329 l 186 329 l 183 330 l 176 330 q 166 331 169 331 q 117 353 135 331 q 98 410 98 374 l 98 423 l 99 427 z "},"":{"ha":485,"x_min":85,"x_max":346,"o":"m 190 -293 l 173 -293 q 95 -274 123 -293 q 85 -260 85 -267 l 85 -252 q 149 -214 85 -214 q 202 -199 185 -214 q 220 -165 220 -183 q 195 -131 220 -148 q 170 -104 170 -115 q 194 -33 170 -62 q 236 -4 217 -4 l 258 -4 q 288 -28 288 -4 q 285 -55 285 -49 q 302 -73 285 -61 q 314 -83 309 -79 q 346 -141 346 -107 l 346 -157 q 298 -249 346 -205 q 190 -293 250 -293 z "},"":{"ha":399,"x_min":159,"x_max":382,"o":"m 262 434 l 200 434 q 165 465 165 434 q 199 595 165 477 q 233 782 233 714 l 234 795 l 234 806 q 215 817 234 817 q 159 868 159 817 l 159 873 q 199 914 159 886 q 338 972 285 972 l 353 972 l 359 972 q 382 958 382 972 l 382 945 q 356 795 382 943 q 330 624 330 647 l 332 599 q 311 488 332 542 q 262 434 290 434 z "},"":{"ha":547,"x_min":105,"x_max":549,"o":"m 356 834 l 345 834 q 267 787 303 834 q 231 691 231 741 l 229 683 l 229 667 l 229 651 q 249 586 229 610 q 301 563 270 563 l 305 563 q 384 606 346 563 q 422 701 422 650 q 424 713 424 709 l 425 729 l 425 745 q 406 809 425 784 q 356 834 386 834 m 357 927 l 372 927 q 498 880 448 927 q 549 754 549 833 l 549 732 q 527 631 549 684 q 470 544 505 578 q 304 470 396 470 l 281 470 q 156 517 207 470 q 105 642 105 564 l 105 673 q 184 853 105 769 q 263 907 216 888 q 357 927 309 927 z "},"":{"ha":794,"x_min":73,"x_max":753,"o":"m 122 80 l 109 80 q 88 96 102 80 q 73 117 73 112 l 73 124 q 176 259 73 157 q 279 367 279 362 q 215 466 279 372 q 151 584 151 559 q 171 628 151 609 q 202 648 190 648 l 209 648 q 275 607 237 648 q 421 412 313 567 q 442 363 442 382 q 299 215 442 350 q 122 80 155 80 m 589 366 q 523 468 589 375 q 458 588 458 562 q 480 634 458 615 q 509 652 503 652 l 515 652 q 589 602 547 652 q 753 364 753 406 q 516 128 753 339 q 422 77 458 77 l 416 77 q 379 113 379 77 l 379 119 q 484 258 379 153 q 589 366 589 363 z "},"":{"ha":1116,"x_min":177,"x_max":1013,"o":"m 869 383 l 869 387 l 867 387 q 806 315 867 387 l 796 302 q 791 296 793 298 q 785 290 789 294 l 775 277 l 739 237 q 716 210 716 214 l 716 209 l 718 208 l 749 208 l 752 209 l 771 209 q 840 229 840 209 q 846 262 842 241 q 851 289 850 283 q 852 298 852 294 q 859 325 853 301 q 864 363 864 348 q 869 383 869 377 m 294 406 l 255 406 q 212 443 212 406 q 233 539 212 480 q 255 608 253 597 q 283 784 283 768 q 262 796 283 796 q 225 820 241 796 q 210 857 210 844 q 287 930 210 882 q 371 957 329 957 l 394 957 q 422 927 422 957 q 421 909 421 913 q 395 756 421 904 q 370 578 370 608 q 338 430 370 500 q 294 406 328 406 m 830 946 q 920 993 865 993 q 975 979 975 993 l 975 969 q 938 901 975 959 q 321 -1 557 313 q 232 -48 286 -48 q 177 -34 177 -48 l 177 -24 q 214 43 177 -10 q 568 563 370 267 q 830 946 765 859 m 817 100 q 697 119 817 119 q 576 147 576 119 q 602 201 576 170 q 891 535 793 437 q 966 556 912 556 l 974 556 q 1001 530 1001 556 q 977 391 1001 521 q 953 239 953 261 q 983 209 953 218 q 1013 183 1013 200 l 1013 176 q 996 130 1013 145 q 964 118 990 123 q 931 103 938 113 q 918 46 925 94 q 902 -10 911 -1 q 846 -18 892 -18 l 827 -18 q 801 0 801 -18 l 817 100 z "},"":{"ha":1138,"x_min":165,"x_max":1055,"o":"m 293 405 l 245 405 q 208 435 208 405 q 217 492 208 454 q 234 555 225 530 q 258 662 243 580 q 272 771 272 745 q 244 797 272 797 q 218 810 229 797 q 197 854 197 838 q 241 901 197 871 q 372 960 327 960 l 395 960 q 424 937 424 960 l 424 923 l 394 751 q 368 583 368 603 q 339 436 368 515 q 293 405 328 405 m 845 978 q 856 987 845 978 q 918 996 867 996 q 968 977 968 996 q 340 37 968 939 q 225 -42 285 -42 q 165 -24 165 -42 q 785 906 165 17 q 845 978 823 960 m 890 -1 l 802 -1 q 646 22 646 -1 q 669 82 646 52 q 777 195 692 113 q 893 323 863 277 q 924 410 924 370 q 872 458 924 458 q 798 426 849 458 q 739 395 746 395 q 715 437 715 395 q 771 518 715 479 q 899 558 826 558 l 912 558 q 1015 524 975 558 q 1055 429 1055 490 l 1055 417 q 1006 296 1055 362 q 905 189 983 264 q 827 109 827 115 q 892 102 827 102 q 966 100 957 102 q 1006 64 1006 88 q 985 12 1006 25 q 890 -1 964 -1 z "},"":{"ha":1221,"x_min":68,"x_max":1020,"o":"m 880 393 l 880 393 q 836 343 876 393 q 768 265 795 293 q 740 233 740 237 l 740 231 l 741 231 l 753 231 l 756 231 l 793 231 q 853 245 853 231 q 869 323 869 308 q 874 359 870 339 q 879 385 879 378 l 880 390 l 880 393 m 186 873 q 157 906 157 873 q 187 955 157 939 q 326 981 238 981 l 339 981 q 442 962 416 981 q 454 916 454 953 l 454 905 q 391 774 454 840 q 367 752 378 761 q 356 741 356 743 l 387 715 q 434 609 434 678 q 372 483 434 541 q 224 426 309 426 l 201 426 q 110 448 152 426 q 68 490 68 469 q 84 529 68 511 q 117 546 101 546 q 163 536 133 546 q 236 526 193 526 q 304 554 279 526 q 330 617 330 582 q 305 669 330 652 q 251 687 297 674 q 204 720 204 700 q 264 782 204 741 q 325 857 325 824 q 276 881 325 881 l 186 873 m 210 -21 q 238 40 210 1 q 334 181 266 80 q 411 294 402 282 q 479 395 419 306 q 553 504 540 485 q 587 553 566 523 q 633 621 607 583 l 671 677 q 719 749 699 719 q 747 790 740 779 q 786 846 755 802 l 824 903 q 863 960 852 946 q 949 1006 897 1006 l 962 1006 q 1010 995 1010 1006 q 970 917 1010 976 q 352 9 383 50 q 270 -33 321 -33 l 257 -33 q 210 -21 210 -33 m 604 160 l 604 173 q 627 218 604 190 q 903 532 842 471 q 974 553 925 553 l 982 553 q 1009 531 1009 553 q 1000 478 1009 529 q 986 402 990 427 q 980 366 983 377 l 977 348 l 974 330 q 963 261 963 262 q 985 235 963 240 q 1020 212 1020 226 l 1020 196 q 996 153 1020 163 l 943 129 q 929 75 936 116 q 917 24 923 35 q 888 14 911 14 l 844 14 q 816 29 816 14 l 831 131 q 718 146 831 146 q 604 160 604 146 z "},"":{"ha":650,"x_min":28,"x_max":543,"o":"m 352 680 l 353 696 q 379 760 353 734 q 450 785 405 785 l 463 785 q 489 783 473 783 q 524 767 505 783 q 543 719 543 751 l 543 706 l 543 703 l 541 687 q 512 619 541 640 q 451 598 482 598 l 425 598 q 368 618 396 598 q 351 665 351 630 l 351 677 l 352 680 m 393 511 l 419 511 q 473 463 473 511 q 341 231 473 350 q 234 120 267 165 q 201 25 201 75 q 231 -49 201 -24 q 306 -74 260 -74 q 412 -40 352 -74 q 490 -6 471 -6 q 523 -24 508 -6 q 538 -71 538 -43 q 452 -168 538 -123 q 286 -213 365 -213 l 258 -213 q 95 -156 162 -213 q 28 -12 28 -99 l 28 14 q 90 178 28 93 q 200 286 121 220 q 298 375 278 351 q 335 451 317 399 q 359 506 353 502 q 393 511 366 511 z "},"":{"ha":894,"x_min":15,"x_max":828,"o":"m 557 794 l 555 794 l 549 781 q 540 763 545 772 l 522 728 q 378 445 378 460 l 378 441 q 486 435 378 435 l 541 433 l 551 433 q 602 456 602 433 l 602 461 l 602 466 l 580 625 q 577 644 577 634 l 567 724 q 557 794 567 794 m 684 1117 q 649 1094 684 1094 l 645 1095 l 637 1095 l 621 1096 q 538 1143 579 1096 q 435 1293 435 1258 l 435 1296 q 470 1324 435 1324 l 513 1324 q 548 1320 537 1320 q 610 1285 587 1320 q 685 1127 685 1173 q 684 1117 684 1120 m 526 992 q 538 1000 526 992 q 603 1008 551 1008 q 666 987 655 1008 q 713 831 677 967 l 781 390 q 828 83 828 85 l 828 69 q 780 33 828 33 q 669 71 702 33 q 641 181 658 85 q 619 284 625 277 q 532 307 603 307 q 315 285 357 307 q 235 157 288 271 l 220 125 q 187 64 193 70 q 67 33 158 33 l 37 33 q 15 56 15 33 q 52 144 15 71 q 477 939 349 726 q 526 992 500 977 z "},"":{"ha":884,"x_min":12,"x_max":825,"o":"m 553 802 l 551 802 q 537 773 550 802 q 513 725 524 745 q 372 442 372 462 q 475 435 372 435 l 532 433 l 547 433 l 552 434 l 562 434 q 581 436 576 436 q 599 457 599 436 l 599 462 l 598 467 q 594 510 598 490 q 585 566 589 530 q 578 613 580 602 l 574 644 q 566 705 566 700 l 560 755 q 553 802 560 802 m 534 1101 q 509 1116 509 1101 l 509 1122 q 621 1286 509 1162 q 688 1321 651 1321 q 722 1325 712 1325 l 747 1328 l 789 1328 q 810 1310 810 1328 q 755 1224 810 1279 q 590 1105 637 1105 q 573 1103 578 1103 l 538 1101 l 534 1101 m 523 998 q 536 1005 523 998 q 599 1013 549 1013 q 662 991 650 1013 q 749 590 707 911 q 795 283 765 472 q 825 85 825 94 l 825 71 q 777 33 825 33 q 668 73 704 33 q 638 181 653 89 q 616 285 624 274 q 529 309 599 309 q 311 286 357 309 q 215 126 285 273 q 182 65 191 75 q 47 31 153 31 q 12 43 12 31 l 12 56 q 57 163 12 75 q 472 943 374 784 q 523 998 496 983 z "},"":{"ha":894,"x_min":14,"x_max":827,"o":"m 566 709 q 563 759 563 733 q 555 784 563 784 l 554 784 l 545 766 l 537 748 q 502 678 528 730 q 426 535 475 626 q 377 431 377 444 q 479 425 377 425 l 534 423 l 549 423 l 554 424 l 568 425 q 583 426 578 426 q 601 446 601 426 l 566 709 m 401 1090 l 401 1100 q 543 1253 401 1133 q 648 1311 612 1311 l 653 1311 q 727 1266 689 1311 q 823 1118 823 1153 l 823 1107 q 779 1081 823 1081 q 696 1120 735 1081 q 628 1185 631 1185 q 596 1162 625 1185 q 526 1110 568 1140 q 438 1080 484 1080 l 427 1080 q 401 1090 401 1080 m 525 983 q 537 990 525 983 q 602 998 550 998 q 667 974 653 998 q 716 804 680 950 q 732 702 722 777 q 751 576 743 626 l 770 451 q 779 390 774 420 q 791 309 783 360 l 796 274 q 814 157 801 239 q 827 73 827 75 l 827 59 q 779 23 827 23 q 669 61 701 23 q 641 169 655 77 q 618 273 627 261 q 531 296 601 296 q 314 275 354 296 q 241 162 287 260 q 186 54 196 64 q 51 22 157 22 q 14 33 14 22 l 14 45 q 59 150 14 62 q 475 928 361 741 q 525 983 500 968 z "},"":{"ha":894,"x_min":11,"x_max":866,"o":"m 552 774 l 551 774 q 538 749 550 774 q 450 582 526 724 q 374 426 374 441 l 374 422 q 476 415 374 415 l 542 414 q 597 433 597 414 l 597 441 l 597 446 q 583 551 597 449 l 581 566 l 579 575 l 575 605 q 568 660 568 652 l 562 715 q 552 774 562 774 m 530 1247 l 554 1247 q 638 1218 585 1247 q 714 1189 690 1189 q 771 1213 737 1189 q 836 1236 806 1236 q 866 1213 866 1236 l 866 1207 q 818 1121 866 1162 q 716 1080 770 1080 l 703 1080 q 611 1111 668 1080 q 531 1141 553 1141 q 478 1115 508 1141 q 405 1090 448 1090 q 380 1112 380 1090 q 429 1205 380 1164 q 530 1247 478 1247 m 523 974 q 535 981 523 974 q 600 988 547 988 q 663 967 652 988 q 713 794 678 937 q 730 690 714 792 l 738 637 q 748 568 743 602 l 751 550 l 755 514 l 764 460 q 799 227 774 388 q 824 64 824 66 l 824 50 q 776 14 824 14 q 665 52 698 14 q 637 161 652 68 q 615 264 623 254 q 528 288 598 288 q 311 265 354 288 q 247 170 292 256 l 216 105 q 183 44 189 50 q 63 13 155 13 l 33 13 q 11 24 11 13 l 11 36 q 64 156 11 58 q 265 551 217 438 q 473 919 313 663 q 523 974 498 959 z "},"":{"ha":894,"x_min":20,"x_max":846,"o":"m 562 786 l 560 786 q 548 761 559 786 q 460 594 536 735 q 384 437 384 452 l 384 434 q 486 427 384 427 l 551 425 q 607 444 607 425 l 607 453 l 606 458 q 593 562 606 460 l 591 577 q 584 624 589 584 q 578 671 578 664 l 571 726 q 562 786 571 786 m 498 1090 l 473 1090 q 458 1093 463 1093 q 410 1148 410 1093 l 410 1162 l 410 1165 l 410 1171 q 412 1179 412 1177 q 444 1241 412 1209 q 496 1256 458 1256 l 510 1256 q 559 1242 542 1256 q 576 1208 576 1227 q 578 1200 578 1203 l 578 1189 l 578 1186 l 578 1183 q 555 1117 578 1144 q 498 1090 533 1090 m 846 1200 l 846 1178 q 823 1115 846 1138 q 774 1092 800 1092 l 758 1090 l 747 1090 q 678 1151 678 1090 l 678 1162 q 710 1239 678 1207 q 770 1256 727 1256 l 775 1256 q 846 1200 846 1256 m 532 986 q 544 993 532 986 q 608 1000 555 1000 q 672 979 661 1000 q 723 806 688 948 q 739 701 724 804 l 747 649 q 759 569 752 614 q 775 462 766 525 q 809 238 784 399 q 833 75 833 77 l 833 61 q 785 25 833 25 q 675 63 707 25 q 647 173 661 79 q 625 276 632 266 q 537 299 608 299 q 320 277 363 299 q 256 181 301 267 l 225 117 q 193 56 199 62 q 73 24 164 24 l 43 24 q 20 47 20 24 q 73 168 20 70 q 275 562 222 441 q 482 930 328 683 q 532 986 508 972 z "},"":{"ha":905,"x_min":18,"x_max":837,"o":"m 618 1296 q 604 1294 612 1294 q 576 1275 595 1294 q 557 1238 557 1256 l 555 1225 l 555 1215 l 555 1213 l 555 1208 q 557 1200 557 1202 q 598 1163 557 1163 l 611 1161 l 616 1161 l 618 1162 l 623 1162 l 631 1163 q 666 1183 646 1163 q 686 1227 686 1203 l 686 1245 q 684 1255 684 1251 q 645 1294 684 1294 l 634 1296 l 618 1296 m 618 467 l 618 475 l 612 522 q 610 532 610 530 l 602 589 l 597 620 l 589 676 l 585 707 q 575 805 575 783 q 568 827 575 827 q 476 644 567 827 q 385 460 385 461 q 492 453 385 453 l 545 452 l 570 452 l 600 454 q 618 467 618 454 m 762 1244 l 762 1236 q 718 1139 762 1183 q 608 1095 673 1095 l 604 1095 l 599 1096 q 514 1131 549 1096 q 479 1208 479 1165 l 479 1221 q 524 1318 479 1274 q 624 1362 568 1362 l 642 1362 q 726 1327 691 1362 q 762 1244 762 1292 m 492 980 q 508 1001 492 980 q 590 1023 525 1023 q 666 1007 654 1023 q 724 838 687 978 q 749 683 728 824 q 775 513 770 543 l 783 457 q 813 269 790 409 q 837 101 837 130 q 803 39 837 39 q 739 56 785 39 q 682 87 692 73 q 659 201 672 102 q 637 315 646 301 q 560 330 627 330 q 309 295 351 330 q 245 176 291 280 q 186 61 200 73 q 86 35 155 35 q 18 54 18 35 q 60 161 18 79 q 201 446 179 394 q 332 720 279 629 q 492 980 459 936 z "},"":{"ha":1227,"x_min":130,"x_max":1224,"o":"m 709 700 q 709 701 709 700 q 724 745 709 707 q 747 810 741 784 q 734 819 747 819 l 727 819 q 660 778 679 819 q 572 616 624 699 l 476 461 l 438 392 l 481 385 q 551 379 484 379 q 604 380 574 379 l 709 700 m 1089 179 q 1094 174 1089 179 q 1098 135 1098 168 q 1073 93 1098 102 q 981 83 1048 83 q 666 106 728 83 q 619 136 628 121 q 610 208 610 151 q 599 276 610 266 q 522 286 587 286 q 431 273 457 286 q 344 187 404 259 q 256 98 283 115 q 155 81 229 81 q 130 98 130 81 q 490 679 130 151 q 645 875 601 842 q 762 916 690 908 q 1018 930 886 930 q 1173 925 1149 930 q 1224 883 1224 915 q 1167 817 1224 829 q 1047 810 1148 813 q 921 794 945 808 q 888 767 896 781 q 867 646 867 728 q 885 592 867 604 q 977 581 904 581 l 1027 580 q 1077 579 1053 579 q 1139 543 1139 579 q 1107 473 1139 492 q 976 446 1076 454 q 854 418 876 437 q 821 273 821 390 q 834 198 821 210 q 937 187 846 187 l 1022 190 q 1089 179 1081 190 z "},"":{"ha":846,"x_min":114,"x_max":913,"o":"m 114 366 l 114 410 q 157 642 114 526 q 433 964 243 871 q 629 1010 527 1010 l 650 1010 q 824 973 735 1010 q 913 904 913 936 l 913 886 q 882 816 913 863 q 844 791 866 791 q 785 806 822 791 q 601 849 680 849 q 469 811 524 849 q 318 578 362 736 q 294 412 294 491 q 354 196 294 267 q 505 138 403 138 q 626 174 548 138 q 738 209 705 209 q 783 192 771 209 q 794 139 794 176 q 781 84 794 102 q 682 24 768 66 q 498 -18 596 -18 q 336 4 399 -18 q 221 78 272 27 q 142 205 171 128 q 114 366 114 281 m 379 -296 l 363 -296 q 288 -256 288 -296 l 288 -254 q 305 -243 289 -248 q 396 -160 396 -220 q 381 -130 396 -145 q 366 -108 366 -115 q 394 -52 366 -83 q 447 -20 422 -20 l 463 -20 q 496 -53 496 -20 l 500 -71 q 511 -98 500 -78 q 522 -139 522 -118 l 522 -144 q 476 -246 522 -195 q 379 -296 430 -296 z "},"":{"ha":772,"x_min":64,"x_max":798,"o":"m 441 1310 q 480 1305 465 1305 q 538 1271 516 1305 q 613 1113 613 1159 l 612 1109 l 612 1106 q 577 1080 612 1080 l 573 1080 l 565 1080 l 549 1082 q 466 1128 507 1082 q 363 1278 363 1244 l 364 1282 l 364 1285 q 398 1310 364 1310 l 441 1310 m 407 14 l 264 14 q 87 26 111 14 q 64 89 64 38 q 128 450 64 140 q 199 848 193 760 q 212 949 206 937 q 252 985 225 979 q 466 995 296 995 l 514 996 l 610 997 l 658 997 q 751 992 732 997 q 798 950 798 981 q 765 873 798 906 q 669 840 732 840 l 648 842 l 578 846 q 466 850 495 850 q 376 802 401 850 q 342 650 342 732 q 389 610 342 618 q 542 597 436 602 q 658 587 648 593 q 668 555 668 581 q 632 463 668 477 q 476 453 623 459 q 312 431 329 446 q 288 380 295 415 q 266 221 266 262 q 283 167 266 179 q 359 155 300 155 l 383 155 q 432 156 408 156 q 503 159 456 156 l 526 161 l 548 164 q 597 166 568 166 q 649 154 627 166 q 670 92 670 141 q 619 26 670 43 q 407 14 585 14 z "},"":{"ha":770,"x_min":66,"x_max":798,"o":"m 467 1086 q 441 1104 441 1086 l 441 1107 q 556 1275 441 1146 q 641 1310 587 1310 l 659 1312 l 680 1314 l 722 1314 q 743 1298 743 1314 l 743 1292 q 685 1207 743 1259 q 523 1091 555 1091 q 510 1089 511 1089 l 484 1087 l 480 1086 l 467 1086 m 593 163 q 667 98 666 163 q 652 45 667 60 q 597 22 637 31 q 406 14 557 14 l 262 14 q 100 24 157 14 q 66 60 66 30 q 133 466 66 141 q 200 843 200 791 q 213 952 208 939 q 253 991 225 984 q 584 1004 308 1004 l 631 1004 q 749 999 729 1004 q 798 956 798 987 q 763 883 798 918 q 668 848 728 848 l 466 857 q 378 806 404 857 q 345 655 345 741 q 387 613 345 621 q 536 600 421 606 q 655 591 651 593 q 670 532 670 583 q 634 467 670 482 q 477 455 623 462 q 315 435 332 449 q 291 384 298 420 q 266 199 266 266 q 291 164 266 174 q 367 155 315 155 q 498 158 418 155 l 522 159 l 545 161 q 593 163 564 163 z "},"":{"ha":772,"x_min":64,"x_max":798,"o":"m 362 1078 l 351 1078 q 326 1088 326 1078 l 326 1093 q 467 1250 326 1120 q 570 1309 530 1309 q 644 1272 610 1309 q 747 1115 747 1160 l 747 1104 q 703 1078 747 1078 q 620 1118 659 1078 q 553 1182 555 1182 q 527 1164 550 1182 q 457 1113 504 1146 q 380 1080 411 1080 q 362 1078 363 1078 m 407 11 l 264 11 q 87 23 110 11 q 64 86 64 35 q 128 447 64 137 q 199 845 193 757 q 212 945 206 933 q 257 983 224 976 q 417 990 290 990 l 490 992 l 610 994 l 634 994 q 751 989 732 994 q 798 947 798 977 q 765 870 798 903 q 669 837 732 837 l 625 840 q 553 844 610 840 q 487 847 495 847 q 386 813 413 847 q 358 732 374 798 q 342 646 342 667 q 386 607 342 615 q 539 594 431 599 q 658 583 648 589 q 668 551 668 577 q 632 459 668 474 q 476 449 623 456 q 312 427 329 443 q 288 376 295 412 q 267 194 267 263 q 296 158 267 169 q 382 152 313 152 q 511 157 452 152 q 598 163 571 163 q 648 150 626 163 q 670 88 670 137 q 619 22 670 39 q 407 11 585 11 z "},"":{"ha":774,"x_min":75,"x_max":808,"o":"m 515 1199 l 515 1177 q 513 1155 513 1168 q 493 1116 513 1141 q 449 1092 473 1092 q 441 1090 444 1090 l 429 1089 l 412 1089 q 349 1134 349 1089 l 347 1147 l 347 1164 q 369 1226 347 1200 q 416 1253 391 1253 l 431 1255 l 453 1255 q 498 1240 480 1255 q 515 1199 515 1225 m 785 1199 l 785 1177 q 783 1155 783 1168 q 762 1116 783 1141 q 715 1091 741 1091 l 702 1089 l 679 1089 q 665 1091 671 1091 q 616 1147 616 1091 l 616 1161 l 617 1164 l 617 1170 q 618 1178 618 1175 q 638 1227 618 1203 q 680 1251 659 1251 q 691 1253 688 1253 l 705 1255 l 720 1255 q 769 1239 753 1255 q 785 1199 785 1223 m 394 16 l 275 16 q 98 28 122 16 q 75 79 75 41 q 138 450 75 153 q 211 845 202 747 q 223 951 220 944 q 272 989 236 981 q 477 997 308 997 l 525 998 l 621 999 l 669 999 q 763 994 744 999 q 808 952 808 983 q 776 875 808 907 q 680 842 743 842 l 659 844 l 589 848 q 477 852 505 852 q 387 804 412 852 q 353 652 353 739 q 400 612 353 620 q 553 600 447 604 q 669 589 659 595 q 679 531 679 583 q 643 465 679 479 q 487 455 634 461 q 323 433 340 448 q 299 382 307 417 q 277 229 277 277 q 295 169 277 181 q 370 157 312 157 l 394 157 q 443 158 418 158 q 514 161 468 158 l 536 163 l 559 166 q 609 168 579 168 q 660 156 639 168 q 681 94 681 143 q 630 28 681 45 q 394 16 596 16 z "},"":{"ha":413,"x_min":81,"x_max":427,"o":"m 426 1101 q 391 1077 426 1077 l 387 1077 l 382 1078 l 367 1078 q 288 1116 320 1078 q 180 1268 180 1239 l 180 1280 q 215 1299 180 1299 l 257 1299 l 273 1297 l 288 1296 q 351 1267 332 1296 q 427 1107 427 1154 l 426 1104 l 426 1101 m 411 955 l 411 945 q 400 863 411 907 q 380 763 389 820 l 368 690 l 349 580 l 344 555 q 281 127 281 181 q 267 44 281 74 q 210 15 253 15 q 99 25 132 15 q 81 67 81 31 q 96 158 81 103 q 121 247 116 219 q 208 804 208 759 l 203 865 q 233 973 203 945 q 345 992 252 992 l 370 994 q 411 955 411 994 z "},"":{"ha":421,"x_min":92,"x_max":566,"o":"m 290 1082 q 265 1097 265 1082 l 265 1100 q 376 1261 265 1137 q 449 1297 408 1297 q 462 1299 457 1299 l 470 1300 l 512 1303 l 532 1303 q 566 1288 566 1303 q 509 1202 566 1254 q 336 1086 377 1086 q 323 1084 328 1084 l 302 1082 l 290 1082 m 420 961 l 420 941 q 408 863 420 908 q 385 742 397 817 q 368 646 372 667 l 354 559 q 292 131 292 189 q 222 15 292 15 q 105 26 118 15 q 92 66 92 37 q 155 393 92 73 q 217 806 217 714 l 216 816 l 214 836 q 212 867 212 856 q 248 984 212 961 q 377 999 271 999 q 420 961 420 999 z "},"":{"ha":424,"x_min":80,"x_max":557,"o":"m 299 1259 q 384 1295 346 1295 q 448 1265 421 1295 q 557 1097 557 1147 q 511 1073 557 1073 q 429 1109 465 1073 q 362 1172 366 1172 q 324 1145 359 1172 q 174 1072 231 1072 l 168 1073 q 136 1086 136 1073 q 299 1259 136 1134 m 409 951 l 409 931 q 398 859 409 903 q 381 775 388 815 q 370 711 374 735 l 353 613 q 315 385 349 593 q 280 123 280 176 q 220 12 280 12 q 220 12 220 12 l 209 12 l 198 12 q 92 22 104 12 q 80 70 80 32 q 98 169 80 108 q 119 243 117 230 q 206 800 206 755 l 202 861 q 227 966 202 943 q 355 989 251 989 l 380 989 q 409 951 409 989 z "},"":{"ha":422,"x_min":101,"x_max":597,"o":"m 170 1152 l 172 1175 q 193 1220 172 1195 q 239 1245 214 1245 l 252 1247 l 271 1247 q 319 1231 302 1247 q 336 1188 336 1214 l 336 1171 q 303 1099 336 1131 q 248 1082 286 1082 l 239 1082 q 169 1147 169 1082 l 169 1149 l 170 1152 m 597 1191 l 597 1168 q 595 1147 595 1160 q 574 1109 595 1134 q 526 1084 553 1084 l 509 1082 l 498 1082 q 431 1146 431 1082 l 431 1152 q 454 1220 431 1192 q 513 1247 477 1247 l 532 1247 q 580 1231 564 1247 q 597 1191 597 1214 m 101 54 l 101 75 q 119 166 101 111 q 154 327 136 222 q 175 452 171 431 q 227 802 227 728 l 226 812 l 222 863 q 259 977 222 956 q 389 991 283 991 q 430 954 430 991 l 430 933 q 365 566 430 899 q 300 153 300 233 q 287 44 300 74 q 240 14 273 14 l 218 14 q 118 24 151 14 q 101 54 101 29 z "},"":{"ha":949,"x_min":55,"x_max":937,"o":"m 757 554 l 757 604 q 736 708 757 655 q 683 791 715 762 q 494 846 624 846 l 483 845 q 388 814 403 845 q 353 600 353 741 q 459 559 353 559 q 520 538 520 559 q 508 463 520 484 q 417 442 496 442 q 318 412 337 442 q 294 299 312 402 q 277 185 277 196 q 316 146 277 146 l 363 146 q 528 170 466 146 q 641 249 589 194 q 725 390 693 303 q 757 554 757 477 m 937 598 l 937 581 q 888 336 937 453 q 573 37 793 113 q 303 5 484 5 l 269 5 q 79 33 79 5 q 109 214 79 51 q 139 408 139 376 q 97 445 139 435 q 55 481 55 454 q 81 551 55 529 q 112 561 89 557 q 138 565 135 564 q 175 601 166 575 q 217 888 217 724 q 240 969 217 955 q 353 984 262 984 l 370 985 q 403 985 387 985 l 488 987 q 684 967 613 986 q 903 781 838 926 q 937 598 937 703 z "},"":{"ha":997,"x_min":89,"x_max":1004,"o":"m 576 1238 l 594 1238 q 678 1208 631 1238 q 751 1179 725 1179 q 804 1203 777 1179 q 865 1228 831 1228 q 900 1209 900 1228 q 854 1116 900 1158 q 751 1074 808 1074 l 745 1074 q 651 1104 712 1074 q 576 1135 590 1135 q 528 1108 562 1135 q 461 1082 494 1082 q 428 1100 428 1082 l 428 1105 q 476 1197 428 1156 q 576 1238 525 1238 m 852 42 q 797 6 840 6 q 726 18 754 6 q 674 64 699 29 q 506 398 650 99 q 351 696 363 696 q 297 395 348 696 q 237 66 247 94 q 155 24 221 24 q 89 51 89 24 q 115 218 89 61 l 130 301 q 162 508 141 358 q 193 717 182 657 q 206 809 203 777 q 212 899 208 842 l 214 926 q 239 961 220 949 q 302 973 257 973 q 376 956 347 973 q 444 878 406 939 q 584 626 530 740 q 663 460 639 512 l 732 312 q 795 617 743 312 q 850 930 846 922 q 947 985 871 985 l 975 985 q 1004 962 1004 985 q 930 493 1004 928 q 852 42 857 58 z "},"":{"ha":1019,"x_min":88,"x_max":1007,"o":"m 827 590 l 827 623 q 767 811 827 739 q 615 884 708 884 l 593 884 q 470 847 531 884 q 294 603 346 772 q 269 446 269 522 l 269 414 q 327 227 269 302 q 481 152 385 152 l 503 152 q 628 190 564 152 q 735 292 692 229 q 802 434 778 355 q 827 590 827 513 m 724 1119 l 724 1116 q 690 1090 724 1090 l 682 1090 l 677 1090 l 662 1091 q 564 1148 615 1091 q 473 1284 473 1251 l 473 1290 q 517 1310 473 1310 l 552 1310 l 568 1308 l 583 1307 q 646 1277 623 1307 q 724 1119 724 1177 m 1007 627 l 1007 611 q 969 387 1007 496 q 860 195 931 279 q 691 60 788 111 q 489 9 595 9 l 456 9 q 308 39 377 9 q 113 254 163 101 q 88 410 88 330 l 88 442 q 134 671 88 557 q 253 862 180 784 q 418 983 326 939 q 606 1027 510 1027 l 639 1027 q 911 910 805 1027 q 982 782 958 859 q 1007 627 1007 706 z "},"":{"ha":1023,"x_min":89,"x_max":1009,"o":"m 830 593 l 830 615 l 829 626 q 768 819 829 748 q 617 890 707 890 l 595 890 q 470 853 532 890 q 363 753 408 816 q 294 606 319 690 q 269 448 269 523 l 269 415 q 328 225 269 301 q 482 149 388 149 l 493 149 q 728 278 627 149 q 803 428 777 339 q 830 593 830 517 m 576 1095 q 549 1109 549 1095 l 549 1112 q 571 1159 549 1128 q 676 1286 634 1249 q 790 1312 705 1312 l 803 1313 l 811 1313 q 854 1298 854 1313 q 726 1154 854 1268 q 614 1097 661 1097 q 601 1096 604 1096 l 584 1095 l 576 1095 m 1009 636 l 1009 604 q 971 388 1009 497 q 861 195 933 279 q 693 60 789 111 q 497 9 597 9 l 465 9 q 308 40 379 9 q 189 122 236 71 q 115 250 142 174 q 89 406 89 326 l 89 437 q 133 670 89 559 q 410 983 220 888 q 617 1032 507 1032 l 633 1032 q 909 919 802 1032 q 980 798 951 873 q 1009 636 1009 722 z "},"":{"ha":1019,"x_min":87,"x_max":1006,"o":"m 501 144 q 622 179 560 144 q 801 425 747 251 q 826 593 826 506 l 826 604 q 764 807 826 737 q 603 876 701 876 q 370 749 470 876 q 295 602 321 688 q 268 449 268 516 l 268 406 q 325 220 268 297 q 479 144 381 144 l 501 144 m 685 1301 l 690 1301 q 760 1262 724 1301 q 863 1108 863 1150 l 863 1103 q 819 1080 863 1080 q 734 1115 774 1080 q 699 1149 730 1118 q 666 1179 669 1179 q 648 1167 663 1179 q 628 1152 632 1155 q 602 1133 623 1149 l 578 1116 q 479 1080 528 1080 l 474 1080 q 441 1094 441 1080 q 567 1237 441 1131 q 685 1301 643 1301 m 1006 619 l 1006 587 q 967 376 1006 487 q 849 176 928 266 q 472 1 694 2 q 189 114 290 1 q 87 418 87 227 q 127 648 87 534 q 245 846 168 762 q 621 1019 402 1019 l 638 1019 q 642 1019 638 1019 q 787 990 719 1019 q 977 787 924 931 q 1006 619 1006 706 z "},"":{"ha":1019,"x_min":85,"x_max":1004,"o":"m 824 574 l 824 606 q 766 792 824 718 q 612 867 707 867 l 591 867 q 467 830 530 867 q 288 576 344 759 q 266 429 266 506 l 266 397 q 322 212 266 288 q 477 135 378 135 l 500 135 q 625 174 561 135 q 731 274 689 212 q 799 415 773 336 q 824 574 824 494 m 561 1249 l 585 1249 q 668 1219 619 1249 q 742 1188 717 1188 q 792 1215 768 1188 q 852 1241 816 1241 q 888 1220 888 1241 l 888 1215 q 841 1124 888 1164 q 741 1084 794 1084 l 734 1084 q 643 1116 699 1084 q 567 1147 588 1147 q 518 1119 546 1147 q 455 1091 490 1091 q 420 1112 420 1091 l 420 1117 q 466 1207 420 1164 q 561 1249 513 1249 m 1004 627 l 1004 578 q 958 349 1004 462 q 837 155 913 235 q 471 -7 685 -7 q 110 238 195 -7 q 85 393 85 308 l 85 425 q 130 652 85 541 q 248 842 175 762 q 619 1010 401 1010 q 971 787 879 1010 q 1004 627 1004 709 z "},"":{"ha":1019,"x_min":86,"x_max":1005,"o":"m 825 582 l 825 614 q 765 803 825 730 q 614 876 706 876 l 591 876 q 473 842 536 876 q 367 747 411 808 q 294 604 322 685 q 267 438 267 524 l 267 416 l 267 406 q 330 212 267 281 q 490 143 392 143 q 719 266 623 144 q 798 418 770 331 q 825 582 825 505 m 513 1255 l 533 1255 q 582 1238 565 1255 q 598 1199 598 1221 l 598 1177 l 595 1160 q 575 1117 595 1141 q 528 1092 554 1092 l 517 1090 l 512 1090 l 504 1089 l 501 1089 q 430 1150 430 1089 l 430 1159 l 433 1181 q 458 1233 433 1212 q 513 1255 484 1255 m 868 1179 q 867 1165 868 1179 q 845 1117 867 1142 q 796 1091 824 1091 l 780 1089 l 768 1089 q 717 1105 733 1089 q 701 1147 701 1122 l 701 1162 q 723 1226 701 1199 q 773 1253 745 1253 l 789 1255 l 804 1255 q 849 1240 832 1255 q 867 1206 867 1225 l 869 1190 l 869 1182 l 868 1179 m 1005 618 l 1005 603 q 967 379 1005 488 q 860 188 929 270 q 694 54 790 106 q 487 1 599 1 l 454 1 q 307 30 374 1 q 116 232 166 90 q 86 401 86 315 l 86 433 q 133 665 86 553 q 412 973 224 884 q 604 1019 508 1019 l 637 1019 q 784 990 712 1019 q 905 907 856 963 q 1005 618 1005 792 z "},"":{"ha":740,"x_min":94,"x_max":686,"o":"m 636 208 q 603 160 636 190 q 552 130 569 130 q 460 220 536 130 q 382 311 384 311 q 278 220 375 311 q 163 129 180 129 q 124 160 155 129 q 94 202 94 192 q 194 309 94 212 q 294 411 294 405 q 219 510 294 418 q 145 610 145 602 q 182 659 145 627 q 233 690 218 690 q 321 598 247 690 q 400 505 396 505 q 504 597 405 505 q 610 689 602 689 q 657 658 628 689 q 686 614 686 627 q 589 511 686 602 q 491 409 491 420 q 564 308 491 397 q 636 208 636 218 z "},"":{"ha":981,"x_min":117,"x_max":981,"o":"m 279 427 l 279 401 q 300 280 279 328 q 307 269 305 269 q 433 429 323 269 q 680 815 680 790 q 662 844 680 827 q 606 861 643 861 l 599 861 l 591 861 q 589 861 591 861 q 476 826 535 861 q 301 576 358 758 q 279 427 279 506 m 469 140 l 486 140 q 600 175 540 141 q 776 421 720 244 q 800 587 800 496 l 800 595 q 780 718 800 671 q 769 730 774 730 q 646 567 755 730 q 400 186 400 199 q 418 157 400 173 q 469 140 435 140 m 981 614 l 981 595 q 947 385 981 490 q 704 66 878 173 q 507 -6 589 -6 l 491 -6 l 474 -5 l 457 -4 l 421 -5 l 294 7 l 256 1 l 218 0 q 128 26 156 0 q 120 57 120 33 q 137 125 120 80 q 154 184 154 171 q 136 250 154 198 q 117 375 117 302 l 117 393 q 237 823 117 686 q 460 966 311 905 q 664 998 541 998 l 696 998 l 710 1000 l 768 997 q 802 1007 770 997 q 850 1017 834 1017 l 863 1017 q 935 970 935 1017 l 916 866 q 932 826 916 859 q 981 614 981 730 z "},"":{"ha":943,"x_min":125,"x_max":968,"o":"m 634 1076 q 543 1129 589 1076 q 448 1272 448 1238 l 448 1278 q 482 1297 448 1297 l 532 1297 l 551 1295 q 616 1269 593 1295 q 661 1195 625 1259 q 696 1114 696 1132 l 695 1095 q 665 1076 695 1076 l 657 1075 l 654 1076 l 646 1076 l 642 1076 l 634 1076 m 299 336 q 475 148 299 148 q 580 181 530 148 q 664 279 630 214 q 770 777 697 344 q 805 943 794 918 q 840 984 816 969 q 916 998 863 998 q 968 972 968 998 q 869 397 968 880 q 808 212 846 283 q 662 58 754 113 q 464 3 570 3 l 439 3 q 207 87 289 3 q 125 325 125 172 q 134 417 125 367 q 151 548 142 467 q 175 721 160 629 q 198 886 189 813 q 210 966 206 959 q 315 984 222 984 q 370 932 370 984 q 366 885 370 922 q 347 712 361 848 q 316 478 332 576 q 299 336 299 380 z "},"":{"ha":946,"x_min":130,"x_max":972,"o":"m 565 1080 q 536 1095 536 1080 l 536 1101 q 570 1167 536 1110 q 663 1276 604 1223 q 774 1301 691 1301 l 815 1301 q 836 1286 836 1301 l 836 1283 q 776 1198 836 1252 q 615 1085 648 1085 q 586 1082 595 1082 l 569 1080 l 565 1080 m 371 940 q 362 838 371 918 q 347 680 354 759 q 322 496 340 601 q 304 316 304 391 q 350 194 304 241 q 463 147 395 147 q 665 271 597 147 q 750 626 701 339 q 807 940 798 912 q 841 985 817 968 q 922 1002 865 1002 l 944 1002 q 972 983 972 1002 q 877 408 972 876 q 817 220 854 293 q 673 61 766 120 q 439 3 581 3 q 214 87 297 3 q 130 321 130 172 q 190 791 130 433 q 202 903 199 844 q 209 968 206 962 q 312 989 220 989 q 371 940 371 989 z "},"":{"ha":943,"x_min":125,"x_max":968,"o":"m 463 1069 l 446 1069 q 420 1079 420 1069 l 420 1084 q 569 1245 420 1119 q 664 1292 625 1292 l 669 1292 q 735 1258 704 1292 q 840 1099 840 1144 l 840 1094 q 797 1069 840 1069 l 791 1069 q 681 1137 741 1069 q 646 1168 652 1168 q 585 1126 640 1168 l 562 1109 q 463 1069 507 1069 m 299 332 q 475 144 299 144 q 587 181 539 144 q 665 277 634 218 q 744 620 695 336 q 795 913 793 904 q 836 977 810 960 q 900 994 863 994 l 924 994 q 968 968 968 994 q 869 393 968 876 q 801 195 846 279 q 663 55 755 112 q 464 -2 571 -2 l 439 -2 q 208 83 290 -2 q 125 320 125 169 q 135 425 125 361 q 152 555 144 488 q 175 719 159 623 q 197 883 191 814 q 210 962 204 952 q 315 980 222 980 q 370 928 370 980 q 365 878 370 918 q 356 798 360 838 l 340 643 q 315 472 331 559 q 299 332 299 385 z "},"":{"ha":943,"x_min":132,"x_max":974,"o":"m 588 1186 l 588 1175 q 565 1110 588 1138 q 502 1082 542 1082 l 488 1082 q 438 1098 456 1082 q 420 1138 420 1113 l 420 1158 q 450 1229 420 1192 q 503 1248 466 1248 l 522 1248 q 571 1231 554 1248 q 588 1186 588 1214 m 857 1175 q 836 1111 857 1137 q 790 1085 814 1085 q 782 1084 785 1084 l 771 1082 l 754 1082 q 707 1098 726 1082 q 689 1144 689 1113 l 689 1155 q 711 1219 689 1192 q 762 1246 734 1246 l 778 1248 l 789 1248 q 806 1246 798 1246 q 855 1200 855 1246 l 857 1183 l 857 1175 m 305 335 q 481 146 305 146 q 671 283 603 146 q 750 625 702 344 q 806 930 799 906 q 835 975 812 954 q 906 996 858 996 l 930 996 q 974 970 974 996 q 876 396 974 881 q 673 59 827 155 q 470 1 580 1 l 445 1 q 159 168 236 1 q 132 298 132 227 l 132 323 q 166 623 132 347 q 209 934 201 899 q 233 976 216 969 q 321 983 250 983 q 376 930 376 983 q 370 867 376 928 l 367 845 q 361 801 362 806 l 355 734 q 344 633 350 690 q 321 478 338 576 q 305 335 305 380 z "},"":{"ha":834,"x_min":126,"x_max":911,"o":"m 502 1084 q 476 1101 476 1084 l 476 1105 q 593 1275 476 1158 q 671 1306 625 1306 l 676 1307 l 680 1308 l 697 1309 l 701 1310 l 723 1311 l 748 1311 q 777 1295 777 1311 l 777 1289 q 713 1198 777 1255 q 549 1087 588 1087 q 536 1086 540 1086 l 510 1084 l 502 1084 m 437 652 q 464 597 461 597 q 593 754 466 597 l 654 829 q 693 884 660 836 q 728 935 726 932 q 846 989 774 989 l 881 989 q 911 978 911 989 q 740 719 911 960 q 551 441 569 479 q 493 234 515 368 q 453 60 471 100 q 394 20 436 20 q 312 27 332 20 q 292 62 292 35 q 313 208 292 63 q 334 392 334 353 q 287 585 334 471 l 202 768 q 126 945 126 939 q 148 965 126 951 q 208 979 170 979 q 300 937 270 979 q 437 652 342 876 z "},"":{"ha":742,"x_min":85,"x_max":795,"o":"m 626 587 q 583 677 626 645 q 457 710 539 710 l 440 710 q 370 691 380 710 q 354 618 361 671 q 341 528 348 566 q 332 477 334 490 q 324 427 331 465 q 317 385 317 390 q 352 366 317 366 l 386 366 l 391 367 l 409 368 l 438 370 q 569 425 513 370 q 625 557 625 481 l 626 569 l 626 587 m 334 978 q 378 971 372 978 q 394 914 383 964 q 416 857 405 863 q 494 846 421 854 q 587 832 566 838 q 795 587 795 775 q 705 352 795 443 q 571 271 650 298 q 439 244 546 262 q 321 219 333 226 q 257 105 280 195 q 204 16 233 16 q 85 45 85 16 q 171 596 85 144 q 196 794 184 667 q 219 950 208 922 q 334 978 231 978 z "},"":{"ha":797,"x_min":26,"x_max":742,"o":"m 578 233 q 508 377 578 304 q 438 512 438 449 q 500 659 438 575 q 562 767 562 743 q 545 811 562 791 q 494 831 528 831 q 418 794 460 831 q 348 692 377 758 q 273 354 319 625 q 191 -26 227 83 q 94 -111 164 -111 q 42 -95 58 -111 q 26 -65 26 -80 q 49 38 26 -50 q 100 300 71 125 q 130 558 130 474 l 129 583 l 128 602 q 172 749 128 670 q 273 884 216 829 q 515 994 386 994 l 542 994 q 680 936 622 994 q 737 804 737 878 q 679 650 737 729 q 620 514 620 572 q 681 415 620 496 q 742 266 742 334 q 657 58 742 137 q 423 -20 572 -20 q 341 -3 375 -20 q 307 49 307 14 q 327 86 307 62 q 360 116 346 111 q 437 126 374 122 q 532 151 500 130 q 578 233 578 182 z "},"":{"ha":751,"x_min":66,"x_max":728,"o":"m 235 314 l 235 282 q 261 191 235 228 q 332 154 286 154 l 338 155 q 408 180 370 155 q 463 235 446 205 q 528 452 528 343 l 530 471 l 530 513 q 510 581 530 564 q 445 597 490 597 l 439 597 q 300 509 365 597 q 235 314 235 421 m 542 812 l 515 812 q 441 853 477 812 q 338 1029 338 972 l 338 1033 l 338 1036 q 372 1053 338 1053 l 380 1053 l 384 1053 l 438 1051 q 446 1050 442 1050 q 504 1017 483 1050 q 569 859 569 913 l 571 840 l 571 833 q 542 812 571 812 m 66 254 l 66 294 q 94 438 66 358 q 174 581 121 517 q 293 680 227 645 q 422 715 359 715 l 435 715 q 544 700 507 715 q 594 684 580 684 q 631 690 608 684 q 674 696 654 696 q 728 645 728 696 l 728 634 q 695 463 728 613 q 663 210 663 312 q 669 159 663 176 q 675 136 675 142 q 652 65 675 92 q 590 39 629 39 q 530 64 551 39 q 494 109 494 109 q 461 89 489 109 q 373 48 433 68 q 270 28 313 28 q 125 93 183 28 q 66 254 66 159 z "},"":{"ha":752,"x_min":66,"x_max":728,"o":"m 238 321 l 238 283 q 262 191 238 229 q 328 153 287 153 l 340 153 q 406 176 368 153 q 470 241 445 199 q 532 469 532 345 l 534 482 l 534 518 q 515 588 534 572 q 455 604 496 604 l 443 604 q 371 582 409 604 q 305 517 334 559 q 238 321 238 420 m 704 1046 l 704 1041 q 565 868 704 1007 q 473 819 516 819 l 447 819 q 416 833 416 819 q 445 903 416 846 q 524 1017 473 960 q 606 1055 557 1055 l 610 1055 l 615 1056 l 644 1057 l 682 1057 q 704 1046 704 1057 m 668 703 q 728 651 728 703 q 697 463 728 625 q 666 207 666 300 q 674 141 666 179 q 659 73 674 93 q 578 39 633 39 q 529 64 548 39 q 493 106 497 106 q 460 85 488 106 q 368 45 432 64 q 278 26 304 26 l 266 26 q 121 98 176 26 q 66 272 66 169 l 67 286 l 67 298 q 67 301 67 300 q 96 445 67 365 q 303 690 158 616 q 424 722 363 722 l 437 722 q 478 720 461 720 q 522 714 494 720 q 566 701 549 709 q 597 694 584 694 l 668 703 z "},"":{"ha":751,"x_min":68,"x_max":730,"o":"m 237 304 l 237 279 q 263 181 237 218 q 334 144 288 144 l 340 144 q 410 170 372 144 q 469 229 448 195 q 533 479 533 336 l 533 490 q 517 567 533 547 q 448 587 500 587 l 441 587 q 309 508 366 587 q 237 304 237 411 m 334 802 l 322 802 l 317 803 q 295 816 295 803 l 295 821 q 455 1002 295 854 q 539 1046 504 1046 q 605 1008 575 1046 q 703 829 703 881 q 673 802 703 802 l 662 802 q 608 819 627 802 q 557 876 589 835 q 520 917 525 917 q 494 897 516 917 q 459 866 472 877 q 431 842 446 856 q 394 815 416 829 q 334 802 372 802 m 68 258 l 68 284 q 98 431 68 353 q 293 669 159 597 q 425 705 361 705 l 437 705 q 547 689 512 705 q 595 674 581 674 q 633 680 609 674 q 677 686 656 686 q 730 635 730 686 l 730 624 q 697 452 730 603 q 665 199 665 302 q 671 153 665 173 q 677 126 677 134 q 654 55 677 81 q 591 29 631 29 q 533 54 551 29 q 497 99 498 99 q 462 77 496 99 q 372 37 429 56 q 272 18 315 18 q 124 87 179 18 q 68 258 68 157 z "},"":{"ha":751,"x_min":65,"x_max":745,"o":"m 234 291 l 234 278 q 259 176 234 214 q 324 137 283 137 l 336 137 q 403 160 365 137 q 471 233 441 183 q 530 466 530 330 l 530 490 q 528 521 528 502 q 514 560 528 541 q 456 580 499 580 l 432 580 q 369 559 408 580 q 294 486 329 538 q 234 291 234 395 m 417 972 l 435 972 q 520 942 469 972 q 596 911 572 911 q 650 936 620 911 q 712 961 680 961 q 745 941 745 961 q 695 843 745 884 q 595 802 646 802 l 589 802 l 583 802 q 493 833 545 802 q 417 864 441 864 q 363 838 393 864 q 300 812 332 812 q 267 831 267 812 l 267 837 q 317 931 267 889 q 417 972 366 972 m 727 628 q 694 448 727 600 q 661 202 661 296 q 667 149 661 174 q 673 119 673 124 q 581 22 673 22 q 530 47 548 22 q 492 92 495 92 q 462 72 488 92 q 374 32 435 52 q 281 11 313 11 l 269 11 q 120 80 176 11 q 65 251 65 150 l 65 264 q 95 426 65 343 q 175 566 125 508 q 422 698 288 698 l 434 698 q 540 683 498 698 q 592 667 581 667 l 673 680 q 727 628 727 680 z "},"":{"ha":751,"x_min":76,"x_max":738,"o":"m 245 313 l 245 275 q 270 185 245 223 q 336 146 295 146 l 347 146 q 414 170 376 146 q 479 237 453 193 q 541 469 541 338 l 541 499 q 521 573 541 557 q 461 589 501 589 l 443 589 q 310 502 374 589 q 245 313 245 414 m 472 913 l 469 888 q 448 845 469 869 q 400 820 427 820 l 383 818 l 372 818 q 323 832 340 818 q 306 865 306 846 l 304 878 l 304 895 q 334 968 304 932 q 387 987 350 987 l 407 987 q 472 924 472 987 l 472 913 m 635 818 q 589 832 606 818 q 572 864 572 846 l 570 878 l 570 895 q 573 924 573 911 q 593 961 573 937 q 642 985 614 985 l 658 987 l 669 987 q 738 922 738 987 l 738 916 q 718 849 738 878 q 674 821 698 821 l 666 819 l 652 818 l 635 818 m 738 637 l 738 626 q 728 567 738 618 q 715 501 718 515 l 709 476 q 672 245 672 300 q 678 161 672 190 q 684 128 684 132 q 593 32 684 32 q 541 56 560 32 q 504 101 505 101 q 471 81 498 101 q 387 41 445 61 q 292 20 330 20 l 267 20 q 131 90 186 20 q 76 260 76 160 l 76 273 q 104 431 76 352 q 301 671 165 600 q 433 707 370 707 l 446 707 q 549 692 508 707 q 603 677 591 677 l 684 689 q 738 637 738 689 z "},"":{"ha":751,"x_min":68,"x_max":729,"o":"m 509 1008 q 493 1006 503 1006 q 465 983 483 1006 q 447 946 447 960 l 446 937 l 446 924 l 446 922 l 446 918 q 448 909 448 911 q 486 875 448 875 l 496 873 l 509 873 q 528 876 517 876 q 556 897 538 876 q 574 935 574 919 l 575 945 l 575 956 q 535 1006 575 1006 l 524 1008 l 509 1008 m 237 314 l 237 282 q 262 191 237 228 q 321 155 288 155 l 345 155 q 406 178 368 155 q 465 235 444 201 q 530 458 530 345 l 532 471 l 532 513 q 512 581 532 564 q 446 597 492 597 l 440 597 q 301 509 366 597 q 237 314 237 421 m 360 917 l 360 936 q 411 1038 360 993 q 522 1084 461 1084 l 532 1084 q 621 1048 582 1084 q 660 960 660 1013 l 660 950 q 610 843 660 888 q 503 798 560 798 l 488 798 q 397 835 433 798 q 360 917 360 871 m 425 715 l 450 715 q 543 700 505 715 q 593 684 581 684 q 632 690 605 684 q 676 696 659 696 q 729 645 729 696 l 729 634 q 696 463 729 613 q 664 210 664 312 q 670 159 664 176 q 676 136 676 142 q 653 65 676 92 q 590 39 630 39 q 532 64 551 39 q 494 109 498 109 q 462 89 491 109 q 374 48 433 68 q 271 28 314 28 q 126 93 184 28 q 68 255 68 159 l 68 294 q 97 443 68 363 q 178 584 127 523 q 294 680 229 645 q 425 715 360 715 z "},"":{"ha":1180,"x_min":90,"x_max":1200,"o":"m 272 319 l 272 291 q 301 187 272 224 q 369 151 330 151 l 382 151 q 463 176 416 151 q 522 229 509 202 q 545 325 527 238 q 567 424 564 412 q 573 451 570 436 q 578 473 576 467 l 604 579 q 582 600 604 585 q 510 615 561 615 l 484 615 q 412 591 453 615 q 340 522 372 567 q 272 319 272 422 m 758 467 q 762 449 762 454 q 777 444 762 444 l 785 444 l 789 444 l 863 450 l 877 452 q 905 455 894 455 l 924 458 l 945 461 q 1015 478 988 461 q 1042 499 1042 494 l 1042 519 q 1040 530 1040 527 q 1011 593 1040 564 q 939 622 982 622 l 922 622 q 816 570 874 622 q 758 470 758 519 l 758 467 m 846 5 l 824 5 q 670 47 734 5 l 654 60 l 639 73 q 587 99 601 99 q 486 53 572 99 q 327 6 399 6 q 157 76 224 6 q 90 277 90 146 l 90 298 q 124 466 90 380 q 216 616 159 551 q 494 752 334 752 q 534 749 509 752 l 555 745 l 574 741 l 591 745 q 644 747 604 747 q 723 718 684 747 l 750 697 q 783 714 751 697 q 856 745 815 732 q 961 759 896 759 q 1134 697 1067 759 q 1200 520 1200 636 q 1124 391 1200 431 q 975 348 1080 366 q 832 330 871 330 l 768 326 q 733 268 733 319 q 781 184 733 216 q 901 153 829 153 q 983 166 925 153 q 1060 180 1040 180 q 1105 151 1105 180 q 1079 71 1105 91 q 984 28 1053 51 q 846 5 916 5 z "},"":{"ha":639,"x_min":73,"x_max":663,"o":"m 461 720 q 583 699 536 720 q 663 631 663 661 l 663 618 q 640 566 663 591 q 604 541 616 541 q 569 555 591 541 q 522 581 547 569 q 452 593 496 593 q 365 562 407 593 q 244 265 244 470 q 279 157 244 196 q 362 119 313 119 q 472 146 412 119 q 557 173 533 173 q 581 122 581 173 q 523 37 581 71 q 341 -16 435 -16 q 94 142 155 -16 q 74 254 74 195 l 73 271 q 106 443 73 355 q 197 595 139 531 q 461 720 309 720 m 269 -301 l 248 -301 q 176 -262 176 -301 l 176 -260 q 209 -245 176 -251 q 288 -170 288 -231 q 269 -139 288 -158 q 250 -117 250 -120 q 278 -58 250 -92 q 326 -24 306 -24 l 347 -24 q 374 -53 374 -24 q 394 -96 374 -73 q 414 -143 414 -119 l 414 -148 l 414 -153 q 366 -253 414 -205 q 269 -301 318 -301 z "},"":{"ha":661,"x_min":75,"x_max":674,"o":"m 298 412 q 338 416 321 416 q 466 451 404 416 q 528 519 528 486 l 528 529 q 504 580 528 559 q 451 601 479 601 l 432 601 q 421 600 425 600 q 319 538 372 600 q 266 436 266 477 l 263 422 l 263 420 q 280 412 263 412 l 298 412 m 538 844 l 538 833 q 497 812 538 812 l 485 812 q 416 844 444 812 q 304 1029 304 970 l 304 1033 q 335 1053 304 1053 l 374 1053 q 464 1026 440 1053 q 513 930 488 998 q 538 844 538 861 m 360 22 l 345 22 q 100 164 161 22 q 75 273 75 220 l 75 302 q 106 464 75 385 q 307 689 170 625 q 442 720 372 720 l 473 720 q 613 669 551 720 q 674 536 674 618 l 674 522 q 615 399 674 437 q 485 342 555 361 q 361 318 414 324 q 286 304 309 311 q 253 251 253 293 q 284 182 253 209 q 366 155 316 155 q 475 173 416 155 l 559 199 q 595 150 595 199 q 516 61 595 100 q 360 22 437 22 z "},"":{"ha":665,"x_min":70,"x_max":671,"o":"m 443 608 l 435 608 q 318 548 378 608 q 257 424 257 487 l 257 420 q 275 413 257 413 l 292 413 l 296 414 l 311 415 q 322 416 319 416 q 459 453 393 416 q 525 525 525 490 l 525 532 l 524 536 q 502 586 524 563 q 443 608 479 608 m 400 820 q 378 829 378 820 l 378 836 q 480 1011 378 880 q 564 1055 514 1055 q 576 1056 572 1056 l 585 1057 l 651 1057 q 665 1044 665 1057 l 665 1041 q 607 947 665 1013 q 450 822 496 822 l 438 820 l 400 820 m 357 20 l 342 20 q 94 164 157 20 q 70 288 70 220 l 70 302 q 102 468 70 385 q 301 694 163 629 q 437 727 370 727 l 467 727 q 611 675 551 727 q 671 543 671 623 l 671 528 q 654 452 671 483 q 577 384 636 422 q 360 320 518 347 q 280 305 287 308 q 250 251 250 294 q 282 181 250 208 q 361 153 314 153 q 439 162 408 153 q 508 184 471 170 q 560 197 545 197 q 595 147 595 197 q 512 59 595 97 q 357 20 429 20 z "},"":{"ha":661,"x_min":71,"x_max":670,"o":"m 524 509 l 524 519 q 501 569 524 546 q 439 591 478 591 l 435 591 l 432 591 q 318 532 376 591 q 259 410 259 473 q 283 401 259 401 l 286 401 l 290 402 l 304 403 l 323 405 q 346 408 342 408 q 479 451 394 408 q 524 509 524 473 m 296 802 l 285 802 l 279 802 q 257 815 257 802 l 257 820 q 418 1002 257 853 q 502 1046 467 1046 q 571 1002 536 1046 q 665 828 665 883 q 627 802 665 802 q 572 816 590 802 q 520 873 554 830 q 481 916 486 916 q 425 869 480 916 q 352 812 370 823 q 296 802 334 802 m 356 12 l 326 12 q 148 78 216 12 q 91 166 110 115 q 71 262 71 217 l 71 292 q 102 452 71 372 q 182 588 132 531 q 454 711 288 711 q 650 607 596 711 q 670 526 670 568 l 670 511 q 617 393 670 433 q 375 311 538 335 q 281 294 294 298 q 250 229 250 284 q 285 168 250 192 q 366 144 321 144 q 471 163 412 144 l 555 189 q 591 139 591 189 q 512 51 591 90 q 356 12 434 12 z "},"":{"ha":664,"x_min":82,"x_max":699,"o":"m 309 404 q 342 408 329 408 q 473 443 410 408 q 535 511 535 477 l 535 522 q 512 571 535 548 q 458 593 490 593 l 443 593 q 425 591 433 591 q 329 534 386 591 q 272 422 272 477 l 271 415 l 271 412 q 284 404 271 404 l 309 404 m 332 819 q 288 833 306 819 q 270 876 270 848 l 270 898 l 273 915 q 293 961 273 937 q 338 985 313 985 l 352 987 l 374 987 q 437 922 437 987 l 437 916 q 415 847 437 873 q 368 821 393 821 l 354 819 l 332 819 m 533 895 l 534 909 q 559 967 534 946 q 614 987 585 987 l 635 987 q 681 972 663 987 q 699 924 699 957 l 699 913 l 698 902 l 696 888 q 675 844 696 869 q 628 820 655 820 l 611 818 l 600 818 q 532 878 532 818 l 532 892 l 533 895 m 368 14 l 337 14 q 232 35 282 14 q 150 90 182 55 q 82 279 82 163 l 82 294 q 117 464 83 382 q 314 682 182 619 q 450 713 380 713 l 465 713 q 621 660 560 713 q 682 528 682 608 l 682 514 q 620 391 681 430 q 387 313 533 336 q 293 296 307 301 q 260 241 260 286 q 295 172 260 196 q 380 147 330 147 q 496 169 430 147 q 567 191 562 191 q 602 142 602 191 q 523 54 602 93 q 368 14 444 14 z "},"":{"ha":353,"x_min":70,"x_max":330,"o":"m 330 819 l 330 812 q 290 795 330 795 l 271 795 q 199 837 231 795 q 98 1010 98 967 l 98 1016 q 145 1031 98 1031 l 203 1031 q 264 1001 247 1031 q 330 819 330 882 m 318 680 l 318 663 q 289 460 318 642 q 260 174 260 278 q 237 32 260 70 q 115 10 223 10 l 98 10 q 70 33 70 10 l 70 80 l 71 88 l 71 104 q 72 126 72 113 q 100 312 72 138 q 134 561 127 486 q 147 659 140 635 q 227 692 157 692 l 253 693 l 262 693 q 318 680 318 693 z "},"":{"ha":356,"x_min":87,"x_max":491,"o":"m 262 804 l 220 804 q 200 814 200 804 l 200 818 q 311 998 200 856 q 381 1037 340 1037 l 451 1037 q 491 1026 491 1037 l 491 1023 q 370 873 491 981 q 262 804 292 804 m 140 11 l 114 11 q 87 35 87 11 l 87 43 l 87 51 q 87 67 87 59 l 90 133 q 123 367 90 151 l 129 402 q 135 437 132 419 l 143 489 q 161 611 155 560 q 168 667 167 663 q 237 701 176 701 l 281 701 q 336 686 336 701 l 336 678 q 307 467 336 661 q 277 208 277 273 l 276 187 l 273 157 q 248 25 273 51 q 140 11 233 11 z "},"":{"ha":370,"x_min":70,"x_max":474,"o":"m 132 793 l 109 793 q 70 808 70 793 q 227 991 70 834 q 312 1036 272 1036 l 317 1036 q 384 995 359 1036 q 474 812 474 844 q 433 795 474 795 q 377 805 391 795 q 329 859 363 815 q 290 903 295 903 q 225 848 285 903 q 132 793 165 793 m 329 676 l 329 660 q 299 461 329 652 q 270 201 270 269 q 243 23 270 48 q 125 8 227 8 l 108 7 q 79 45 79 7 l 79 62 l 80 69 l 80 77 q 110 308 80 116 q 140 507 139 500 q 158 658 150 627 q 237 689 166 689 l 263 690 l 272 690 q 329 676 329 690 z "},"":{"ha":378,"x_min":74,"x_max":503,"o":"m 159 802 l 142 802 q 95 819 115 802 q 76 854 76 835 q 75 863 75 860 l 74 877 l 74 880 q 103 953 74 918 q 158 975 122 975 l 175 975 q 195 973 185 973 q 224 957 204 973 q 243 909 243 940 l 243 895 l 241 875 q 215 824 241 846 q 159 802 189 802 m 503 912 l 503 889 q 466 817 503 843 q 413 802 445 802 l 408 802 q 355 818 374 802 q 336 854 336 834 l 333 873 l 333 879 q 356 945 333 917 q 404 972 379 972 q 412 974 409 974 l 426 975 l 431 975 q 481 958 460 975 q 503 912 503 940 m 131 8 l 113 8 q 85 54 85 8 l 85 62 l 87 102 q 87 127 87 111 q 111 292 87 144 l 115 311 l 120 346 l 122 355 l 129 399 q 134 424 132 417 l 142 475 q 146 517 144 494 l 153 583 l 155 600 l 157 624 q 199 688 163 688 q 225 690 216 690 l 277 691 q 334 677 334 691 l 334 661 q 306 470 334 613 q 279 281 279 328 q 277 258 279 280 l 275 235 q 275 215 275 225 l 276 178 l 274 146 q 248 24 274 50 q 131 8 233 8 z "},"":{"ha":727,"x_min":64,"x_max":709,"o":"m 229 267 q 261 165 229 206 q 338 123 293 123 l 350 123 q 415 143 378 123 q 477 203 451 162 q 535 399 535 293 l 536 406 q 506 508 536 469 q 427 547 475 547 l 409 547 q 288 474 346 547 q 231 309 231 401 l 229 297 l 229 267 m 64 270 q 91 410 64 339 q 165 538 117 481 q 277 625 214 595 q 395 654 340 654 l 413 654 l 445 652 q 518 674 518 652 q 491 740 518 715 q 441 765 464 765 q 393 760 418 765 l 378 758 q 351 752 354 752 q 313 800 313 752 q 352 842 313 817 q 391 877 391 866 q 363 915 391 887 q 334 958 334 942 q 354 994 334 973 q 398 1014 374 1014 q 482 979 422 1014 q 558 944 543 944 q 604 957 574 944 q 646 969 633 969 q 692 932 692 969 q 655 883 692 912 q 618 829 618 853 q 646 750 618 821 q 709 415 709 588 q 609 120 709 241 q 493 30 562 63 q 353 -3 425 -3 q 152 60 224 -3 q 64 270 64 135 z "},"":{"ha":746,"x_min":60,"x_max":735,"o":"m 591 792 l 567 792 q 485 823 537 792 q 407 854 432 854 q 354 828 382 854 q 292 802 326 802 q 258 821 258 802 l 258 827 q 304 917 258 871 q 414 963 350 963 l 420 963 q 510 932 460 963 q 584 901 559 901 q 641 926 608 901 q 704 951 673 951 q 735 931 735 951 q 690 837 735 882 q 591 792 645 792 m 531 12 q 498 46 505 12 q 490 138 490 80 q 490 142 490 140 q 510 305 490 200 q 530 456 530 414 q 439 554 530 553 q 368 524 406 554 q 309 450 330 494 q 255 243 287 406 q 212 52 224 79 q 125 11 195 11 l 109 11 q 60 47 60 11 q 92 233 60 60 q 134 499 125 405 q 153 623 144 593 q 216 681 171 681 q 278 666 262 681 q 301 624 294 651 q 312 597 309 597 q 349 621 319 597 q 518 684 429 684 q 654 635 606 684 q 701 507 701 586 l 701 490 q 696 437 701 471 q 687 355 692 403 q 675 267 682 308 q 663 156 669 226 q 644 53 657 85 q 531 12 627 12 z "},"":{"ha":730,"x_min":64,"x_max":726,"o":"m 345 140 l 357 140 q 426 161 389 140 q 492 227 463 182 q 549 416 549 312 l 549 429 q 521 552 549 507 q 440 596 492 596 l 420 596 q 357 574 393 596 q 292 511 320 552 q 233 320 233 421 l 233 288 q 265 181 233 222 q 345 140 297 140 m 540 838 l 540 828 q 507 812 540 812 l 488 812 q 412 848 444 812 q 306 1025 306 968 q 338 1046 306 1046 l 380 1046 l 383 1046 l 406 1045 q 414 1044 410 1044 q 471 1017 452 1044 q 540 838 540 913 m 726 477 l 726 445 q 690 283 726 370 q 484 47 620 113 q 338 13 412 13 l 326 13 q 134 90 205 13 q 64 283 64 167 l 64 305 q 92 457 64 379 q 172 593 121 534 q 441 720 283 719 l 453 719 q 648 641 562 719 q 704 561 683 608 q 726 477 726 513 z "},"":{"ha":735,"x_min":62,"x_max":728,"o":"m 345 139 l 364 139 q 425 160 388 139 q 506 247 462 180 q 550 425 550 313 l 550 431 q 521 557 550 513 q 441 602 492 602 l 428 602 q 303 530 356 602 q 233 321 233 434 l 233 289 q 265 180 233 220 q 345 139 297 139 m 404 819 q 382 829 382 819 l 382 832 q 414 902 382 843 q 498 1020 446 961 q 559 1047 523 1047 q 571 1048 567 1048 l 592 1050 l 658 1050 q 673 1038 673 1050 q 581 913 673 1006 q 450 821 488 821 l 442 819 l 404 819 m 728 480 l 728 447 q 692 286 728 374 q 484 46 620 111 q 336 12 412 12 l 324 12 q 216 33 266 12 q 81 178 116 74 q 62 286 62 235 l 62 297 l 62 309 q 91 461 62 382 q 174 602 120 540 q 298 695 229 664 q 433 726 367 726 l 456 726 q 650 645 562 726 q 707 564 685 613 q 728 480 728 515 z "},"":{"ha":730,"x_min":64,"x_max":726,"o":"m 345 132 l 357 132 q 489 213 429 132 q 549 393 549 294 l 549 433 q 520 543 549 499 q 440 587 492 587 l 420 587 q 357 565 393 587 q 292 502 320 543 q 232 298 232 411 l 232 292 l 233 286 q 266 171 233 210 q 345 132 298 132 m 637 803 l 626 803 l 621 804 q 564 823 586 804 q 524 869 562 825 q 481 914 486 914 q 446 885 477 914 q 402 847 414 857 q 305 803 346 803 l 300 803 q 259 816 259 803 q 279 854 259 829 q 420 1001 342 935 q 505 1042 468 1042 q 574 1001 543 1042 q 668 823 668 878 q 637 803 668 803 m 64 262 l 64 308 q 96 458 64 373 q 184 598 128 543 q 441 711 296 711 l 453 710 q 648 632 562 710 q 704 552 683 600 q 726 458 726 503 l 726 436 q 693 282 726 368 q 606 133 661 195 q 338 4 493 4 q 337 4 338 4 l 326 4 q 146 70 215 4 q 85 161 107 107 q 64 262 64 215 z "},"":{"ha":730,"x_min":63,"x_max":725,"o":"m 344 124 l 357 124 q 425 145 388 124 q 492 210 462 166 q 549 399 549 296 l 549 412 q 520 535 549 491 q 439 580 492 580 l 427 580 q 362 561 399 580 q 295 499 325 543 q 232 304 232 408 l 232 271 q 262 167 232 210 q 344 124 293 124 m 387 974 l 399 974 l 405 973 q 486 942 439 973 q 557 911 532 911 q 608 937 583 911 q 668 963 634 963 q 703 943 703 963 l 703 937 q 655 847 703 888 q 562 806 607 806 l 545 806 q 459 838 511 806 q 384 869 406 869 q 337 843 361 869 q 277 817 313 817 q 241 835 241 817 q 289 930 241 886 q 387 974 336 974 m 348 -3 l 313 -3 q 217 16 264 -3 q 82 159 119 57 q 63 267 63 211 l 63 289 q 92 441 64 365 q 294 671 154 603 q 430 703 360 703 l 452 703 q 560 681 509 703 q 705 542 663 637 q 725 461 725 496 l 725 428 q 689 268 725 353 q 603 123 654 182 q 484 31 551 64 q 348 -3 416 -3 z "},"":{"ha":730,"x_min":68,"x_max":730,"o":"m 349 132 l 362 132 q 494 214 434 132 q 553 394 553 295 l 553 433 q 527 542 553 495 q 445 588 500 588 l 431 588 l 425 587 q 358 564 397 587 q 293 497 319 541 q 237 305 237 404 l 237 286 q 270 172 237 211 q 349 132 303 132 m 351 987 l 366 987 q 416 970 399 987 q 433 926 433 953 l 433 910 l 431 890 q 405 840 431 861 q 345 819 380 819 l 336 819 q 287 832 306 819 q 267 868 267 846 l 265 884 l 265 890 l 268 913 q 294 966 268 945 q 351 987 319 987 m 699 910 q 698 896 699 910 q 672 840 698 861 q 616 819 646 819 l 600 819 l 597 819 l 591 819 q 576 821 586 821 q 550 834 567 821 q 534 868 534 848 l 532 884 l 532 892 q 557 962 532 937 q 621 987 582 987 l 629 987 q 679 972 661 987 q 697 940 697 958 q 699 932 699 935 l 700 921 l 700 913 l 699 910 m 353 5 l 330 5 q 138 82 208 5 q 68 286 68 160 q 178 586 68 460 q 446 711 288 711 l 458 711 q 652 633 569 711 q 710 550 689 597 q 730 458 730 504 l 730 436 q 697 283 730 370 q 613 137 665 196 q 495 42 562 79 q 353 5 429 5 z "},"":{"ha":764,"x_min":72,"x_max":715,"o":"m 427 600 l 405 600 q 354 615 373 600 q 335 661 335 631 l 335 682 q 363 755 335 722 q 419 774 380 774 l 443 774 q 494 758 475 774 q 513 709 513 742 l 513 692 l 510 668 q 486 619 510 639 q 427 600 463 600 m 666 375 l 96 375 q 72 396 72 375 q 87 481 72 450 q 121 496 94 496 l 698 496 q 715 482 715 496 l 715 468 q 701 389 715 416 q 666 375 693 375 m 370 270 l 376 270 l 400 267 q 436 251 420 267 q 452 204 452 235 l 452 186 q 431 122 452 146 q 382 97 410 97 q 374 96 377 96 l 362 94 l 344 94 q 294 110 312 94 q 275 148 275 125 l 273 165 l 273 172 l 276 195 q 301 249 276 229 q 370 270 326 270 z "},"":{"ha":700,"x_min":62,"x_max":692,"o":"m 452 549 l 452 555 q 420 572 452 572 l 403 572 q 341 553 375 572 q 279 490 307 533 q 228 311 228 409 l 228 292 l 229 279 l 231 261 q 239 232 231 232 l 241 232 q 312 324 253 232 q 452 549 452 545 m 304 149 l 304 139 q 335 125 304 125 l 353 125 q 463 191 415 125 q 524 358 524 275 l 525 362 l 526 367 l 526 381 l 526 416 l 524 442 q 514 468 524 468 q 405 311 505 468 q 304 149 304 153 m 62 261 l 62 288 q 100 463 62 377 q 330 680 175 631 q 450 701 395 701 q 453 701 452 701 q 519 700 509 700 l 603 724 l 621 724 q 653 715 644 724 q 662 665 662 705 l 659 618 q 676 550 659 600 q 692 450 692 500 l 692 437 l 692 424 l 692 411 q 662 254 692 334 q 572 110 632 173 q 440 21 511 47 q 279 -5 370 -5 l 258 -6 l 237 -5 q 201 -13 231 -5 q 153 -21 172 -21 l 144 -21 q 102 -14 115 -21 q 90 24 90 -7 l 87 42 l 90 60 l 90 95 q 76 161 90 115 q 62 261 62 208 z "},"":{"ha":742,"x_min":85,"x_max":722,"o":"m 543 812 q 510 791 543 791 l 486 791 q 413 832 448 791 q 310 1005 310 950 l 310 1011 q 344 1032 310 1032 l 351 1032 l 355 1031 l 410 1030 q 417 1029 414 1029 q 477 994 458 1029 q 541 833 541 879 l 543 826 l 543 812 m 256 241 q 338 144 256 144 q 407 169 370 144 q 471 235 445 193 q 526 435 496 277 q 576 639 555 592 q 645 686 597 686 q 707 671 692 686 q 722 643 722 656 q 693 466 722 630 q 657 202 665 301 q 583 26 645 26 q 514 38 529 26 q 491 73 500 50 q 479 96 483 96 q 444 75 476 96 q 262 18 355 18 l 245 18 q 130 66 174 18 q 85 189 85 115 l 85 206 q 120 437 85 226 q 157 654 155 649 q 236 688 170 688 q 293 672 277 688 q 308 612 308 657 q 282 417 308 566 q 256 241 256 269 z "},"":{"ha":748,"x_min":87,"x_max":726,"o":"m 656 1037 q 675 1023 675 1037 l 675 1021 q 545 857 675 972 q 444 799 480 799 l 418 799 q 388 808 388 799 l 388 815 q 416 883 388 826 q 496 997 445 939 q 578 1034 529 1034 l 586 1036 l 615 1037 l 656 1037 m 260 242 q 342 144 260 144 q 413 171 373 144 q 477 244 453 198 q 528 438 500 291 q 571 623 556 586 q 603 676 585 661 q 659 692 621 692 q 711 677 696 692 q 726 641 726 663 q 700 481 726 620 q 666 249 674 342 q 646 107 659 155 q 585 26 625 26 q 517 39 532 26 q 495 76 503 52 q 485 100 488 100 q 444 74 483 100 q 363 33 404 48 q 253 17 323 17 q 135 62 184 17 q 87 194 87 108 l 87 211 q 121 441 87 225 q 159 663 156 657 q 240 694 173 694 q 296 678 281 694 q 310 612 310 661 q 285 419 310 564 q 260 242 260 274 z "},"":{"ha":742,"x_min":85,"x_max":722,"o":"m 309 789 l 286 789 q 264 803 264 789 l 264 808 q 429 993 264 853 q 510 1034 477 1034 q 578 990 542 1034 q 672 821 672 880 l 672 816 q 643 789 672 789 l 631 789 l 626 790 q 550 833 586 790 q 488 904 490 904 q 421 847 483 904 q 309 789 360 789 m 256 237 q 338 140 256 140 q 407 164 370 140 q 470 230 444 189 q 524 425 495 272 q 568 614 553 578 q 643 681 594 681 q 712 661 692 681 q 722 641 722 652 q 690 445 722 629 q 658 188 658 260 q 628 57 658 115 q 583 22 610 22 q 514 34 530 22 q 491 68 499 45 q 479 91 482 91 q 439 68 477 91 q 392 41 401 45 q 262 13 332 13 l 245 13 q 131 61 176 13 q 85 184 85 109 l 85 201 q 103 345 85 250 q 136 535 121 439 q 157 649 150 631 q 236 683 170 683 q 292 668 276 683 q 308 606 308 654 q 282 413 308 559 q 256 237 256 267 z "},"":{"ha":742,"x_min":93,"x_max":729,"o":"m 269 886 l 270 901 q 289 949 270 922 q 334 976 309 976 q 342 977 340 977 l 354 979 l 371 979 q 418 963 399 979 q 436 918 436 948 l 436 901 q 413 837 436 864 q 347 809 390 809 l 339 809 l 317 812 q 285 826 302 812 q 268 869 268 840 l 268 884 l 269 886 m 534 886 l 536 900 q 561 958 536 937 q 620 979 587 979 l 633 979 q 650 977 644 977 q 700 929 700 977 l 702 913 l 702 904 q 679 837 702 864 q 618 809 656 809 l 599 809 q 550 825 566 809 q 534 869 534 842 l 534 883 l 534 886 m 264 244 q 346 146 264 146 q 413 170 376 146 q 476 235 450 193 q 533 438 502 277 q 581 635 564 600 q 656 688 605 688 q 729 645 729 688 q 697 452 729 637 q 665 195 665 268 q 635 64 665 123 q 590 28 617 28 q 522 41 536 28 q 498 75 507 53 q 488 98 489 98 q 447 76 483 98 q 399 48 411 54 q 270 20 341 20 l 253 20 q 138 68 184 20 q 93 191 93 116 l 93 208 q 127 441 93 230 q 163 656 162 652 q 243 690 178 690 l 260 690 q 299 675 283 690 q 315 613 315 660 q 290 419 315 566 q 264 244 264 273 z "},"":{"ha":706,"x_min":81,"x_max":734,"o":"m 402 806 q 372 816 372 806 l 372 819 q 481 1000 372 878 q 557 1039 515 1039 q 583 1042 576 1042 l 604 1042 l 645 1042 q 663 1028 663 1042 q 603 931 663 991 q 440 807 479 807 l 432 806 l 402 806 m 303 65 q 238 138 303 66 q 149 275 174 209 q 102 627 102 406 q 126 661 102 646 q 202 691 174 691 q 287 599 262 691 q 309 390 301 547 q 332 234 317 234 q 432 338 368 234 q 519 522 471 402 q 584 662 567 641 q 699 702 617 702 q 734 684 734 702 q 603 353 734 667 q 441 -7 472 39 q 317 -147 385 -93 q 138 -243 195 -243 q 81 -218 81 -243 q 141 -174 81 -216 q 224 -102 202 -132 q 303 65 303 -1 z "},"":{"ha":737,"x_min":-10,"x_max":704,"o":"m 329 115 l 354 115 q 480 197 420 115 q 541 396 541 279 l 541 421 q 516 518 541 479 q 452 557 492 557 l 446 557 l 441 557 q 368 530 410 557 q 304 463 326 503 q 246 218 246 354 l 246 195 q 267 136 246 157 q 329 115 288 115 m 704 420 l 704 401 q 671 239 704 319 q 591 104 639 159 q 340 -7 492 -7 q 268 8 309 -7 q 224 23 227 23 q 181 -108 205 23 q 150 -252 157 -239 q 47 -298 125 -298 l 29 -298 q -10 -283 -10 -298 q 28 -59 -10 -275 l 49 55 q 63 134 56 92 q 130 538 71 175 q 204 960 188 901 q 275 1009 218 1009 l 293 1009 q 342 988 332 1009 q 352 916 352 967 q 335 760 352 865 q 318 645 318 654 q 328 635 318 635 q 345 640 329 635 q 506 677 455 677 q 646 608 587 677 q 704 420 704 539 z "},"":{"ha":706,"x_min":77,"x_max":740,"o":"m 250 886 q 272 953 250 926 q 315 979 294 979 q 324 981 321 981 l 335 982 l 352 982 q 397 968 380 982 q 414 936 414 954 l 416 922 l 416 905 l 414 886 q 389 833 414 853 q 326 812 364 812 l 320 812 l 298 815 q 252 859 252 815 l 250 876 l 250 886 m 578 812 q 513 869 513 812 l 513 889 q 543 962 513 927 q 598 982 559 982 l 615 982 q 661 968 644 982 q 678 932 678 954 q 680 925 680 928 l 680 913 l 680 911 l 680 905 l 677 888 q 657 839 677 864 q 608 814 636 814 l 592 812 l 578 812 m 299 57 q 236 141 299 65 q 150 290 174 216 q 107 622 107 423 q 130 658 107 642 q 203 688 171 688 q 254 669 235 688 q 311 428 301 624 q 338 231 321 231 q 436 338 372 231 q 525 523 476 403 q 589 659 574 642 q 707 697 623 697 q 740 682 740 697 q 612 361 740 667 q 434 -21 484 56 q 289 -170 384 -97 q 135 -243 193 -243 q 77 -216 77 -243 q 133 -172 77 -212 q 216 -99 189 -132 q 299 57 299 -1 z "},"":{"ha":360,"x_min":58,"x_max":325,"o":"m 109 0 l 81 0 q 58 44 58 0 l 58 68 q 112 425 58 144 q 135 591 127 507 q 161 690 142 676 q 229 698 170 698 l 265 698 q 325 675 325 698 l 325 667 q 291 465 325 646 q 258 211 258 283 l 260 169 q 230 18 260 46 q 109 0 211 0 z "},"":{"ha":746,"x_min":66,"x_max":728,"o":"m 162 -5 q 102 57 102 -5 q 121 177 102 85 q 140 302 140 269 q 112 336 140 336 q 87 333 92 333 q 66 369 66 333 q 82 476 66 447 q 138 539 99 506 q 182 584 178 572 q 218 773 218 687 l 218 791 q 216 828 216 827 q 233 918 216 903 q 338 947 263 947 l 355 947 q 395 939 387 947 q 403 888 403 931 l 409 749 q 437 670 409 670 l 451 673 q 536 692 521 692 q 579 669 579 692 q 545 581 579 625 q 494 541 528 561 q 367 429 402 489 q 323 221 323 351 l 321 168 q 529 119 321 119 l 548 119 l 567 121 l 588 120 l 608 119 l 671 119 q 721 112 713 119 q 728 65 728 104 q 713 -12 728 26 q 671 -50 698 -50 l 650 -50 q 431 -27 596 -50 q 162 -5 266 -5 z "},"":{"ha":457,"x_min":56,"x_max":462,"o":"m 304 202 q 309 169 304 187 q 313 150 313 151 q 280 32 313 61 q 163 2 248 2 q 116 22 126 2 q 105 92 105 42 q 124 219 105 142 q 144 329 144 296 q 81 347 144 347 q 56 372 56 347 q 75 446 56 417 q 127 488 81 456 q 186 548 174 519 q 218 686 198 577 q 239 817 239 795 q 276 956 239 920 q 355 975 296 975 l 368 975 q 419 929 419 975 q 401 812 419 900 q 382 665 382 725 q 406 631 382 631 l 443 638 q 462 578 462 638 q 417 505 462 543 q 361 444 372 467 q 306 251 306 323 l 304 231 l 304 202 z "},"":{"ha":981,"x_min":96,"x_max":1006,"o":"m 766 1380 l 776 1380 l 781 1379 l 838 1377 q 919 1363 919 1377 l 919 1360 q 866 1299 919 1352 q 808 1240 814 1246 q 668 1135 713 1135 l 654 1135 l 649 1136 l 630 1136 q 578 1156 578 1136 q 633 1241 578 1160 q 697 1334 687 1322 q 766 1380 739 1380 m 788 37 l 728 37 q 663 70 684 37 q 545 338 642 102 q 441 591 449 574 q 356 726 379 726 l 351 703 l 347 673 l 342 644 q 327 556 336 605 l 317 498 q 288 335 311 469 q 236 131 265 202 q 142 90 219 90 q 106 104 116 90 q 96 154 96 119 l 127 330 q 157 528 157 507 q 176 724 157 640 q 195 888 195 808 q 212 994 195 968 q 334 1031 236 1031 q 395 999 366 1031 q 555 760 447 939 q 650 546 579 720 q 724 371 722 371 q 786 654 736 371 q 847 968 836 937 q 886 1017 859 1000 q 976 1047 932 1047 q 1006 1002 1006 1047 l 1006 952 l 991 864 q 975 777 985 835 l 944 601 q 850 75 856 94 q 788 37 838 37 z "},"":{"ha":776,"x_min":50,"x_max":753,"o":"m 435 812 q 418 833 418 812 l 419 838 l 419 843 q 558 1048 419 909 q 711 1093 603 1093 l 725 1093 q 753 1069 753 1093 l 753 1065 q 564 854 753 1008 q 449 813 515 813 l 439 812 l 435 812 m 561 504 q 471 604 561 604 q 390 579 431 604 q 322 510 350 554 q 260 272 295 466 q 212 58 224 79 q 104 25 193 25 l 85 25 q 50 43 50 25 l 50 60 q 88 263 50 73 l 136 504 q 147 559 141 530 l 158 615 q 170 670 169 667 q 199 721 182 713 q 260 729 216 729 q 315 711 304 729 q 323 674 318 707 q 339 641 328 641 l 379 671 q 545 734 464 734 l 564 734 q 688 684 643 734 q 732 549 732 633 q 723 455 732 507 q 709 347 714 404 q 696 251 703 290 q 688 201 690 212 q 662 58 677 87 q 574 28 647 28 q 500 65 500 28 q 531 309 500 146 q 561 504 561 471 z "},"":{"ha":1292,"x_min":102,"x_max":1314,"o":"m 443 140 l 472 140 q 571 170 537 140 q 696 467 644 235 q 720 667 720 570 l 720 694 q 689 805 720 775 q 583 836 659 836 l 574 835 l 564 835 q 562 835 564 835 q 462 803 513 835 q 310 583 363 743 q 277 403 277 485 l 277 354 q 325 195 277 251 q 443 140 372 140 m 1174 94 q 925 9 1174 9 q 770 14 798 9 q 715 37 742 20 q 677 54 688 54 q 641 46 666 54 l 616 36 q 437 -1 519 -1 q 126 203 195 -1 q 102 387 102 274 q 144 613 103 499 q 250 808 184 727 q 602 974 383 974 q 735 948 663 974 q 838 922 807 922 l 856 930 l 873 944 q 915 959 890 955 q 1069 964 939 964 q 1243 956 1200 964 q 1306 923 1287 948 q 1314 897 1314 912 q 1252 830 1314 848 q 1104 825 1234 825 q 949 800 975 825 q 905 634 905 757 q 925 583 905 592 q 1060 573 945 573 q 1188 567 1175 573 q 1202 506 1202 562 q 1154 437 1202 450 q 1018 435 1146 435 q 874 409 890 435 q 846 326 864 393 q 828 210 828 259 q 877 162 828 175 q 1022 149 926 149 q 1129 144 1118 149 q 1174 94 1174 126 z "},"":{"ha":1133,"x_min":91,"x_max":1136,"o":"m 256 267 q 286 161 256 193 q 367 128 316 128 l 373 129 q 494 203 445 129 q 556 413 556 296 l 556 451 q 530 550 556 515 q 457 584 505 584 l 445 584 q 323 511 372 584 q 258 313 258 414 l 258 306 l 257 300 l 256 280 l 256 267 m 878 586 q 784 531 831 586 q 737 434 737 477 l 737 431 q 762 415 737 415 l 769 415 l 773 416 l 895 423 q 937 428 919 428 q 971 443 954 428 q 988 488 988 457 l 988 509 q 968 564 988 540 q 911 587 947 587 l 888 587 q 878 586 882 586 m 1136 497 q 1073 345 1135 387 q 904 313 1040 323 q 744 295 768 303 q 720 238 720 286 q 753 162 720 189 q 830 135 786 135 q 920 155 874 135 q 983 176 966 176 q 1056 135 1056 176 q 978 40 1056 79 q 813 1 899 1 q 689 20 727 1 q 620 68 652 39 q 586 97 589 97 q 532 64 583 97 q 435 16 481 31 q 331 0 389 0 q 153 71 215 0 q 91 267 91 141 q 121 438 91 354 q 198 581 151 522 q 311 674 246 640 q 449 709 376 709 l 490 709 q 645 646 572 709 q 684 616 678 616 q 730 646 688 617 q 923 709 821 709 l 924 709 q 1082 655 1027 709 q 1136 517 1136 600 l 1136 497 z "},"":{"ha":777,"x_min":81,"x_max":784,"o":"m 784 1267 q 577 1065 784 1234 q 511 1042 550 1042 l 500 1042 q 409 1106 473 1042 q 345 1182 345 1171 l 345 1191 l 346 1195 q 412 1227 346 1227 l 431 1227 q 444 1226 438 1226 q 536 1179 489 1226 q 554 1164 551 1164 q 566 1175 557 1164 q 634 1244 597 1220 q 731 1268 671 1268 l 751 1269 q 772 1270 760 1268 q 776 1270 774 1270 q 784 1267 784 1270 m 744 848 q 719 834 734 834 q 628 864 704 834 q 496 893 552 893 q 403 861 439 893 q 366 777 366 829 q 416 686 366 725 q 545 616 447 662 q 689 515 642 570 q 735 381 735 460 q 637 150 735 237 q 526 85 593 111 q 385 60 460 60 l 363 60 q 173 98 265 60 q 81 175 81 135 q 115 263 81 220 q 137 281 129 281 q 248 244 161 281 q 394 207 336 207 q 491 241 453 207 q 528 328 528 276 q 480 420 528 379 q 361 494 458 439 q 230 591 264 548 q 180 745 180 654 q 208 859 180 806 q 359 1004 258 960 q 504 1036 433 1036 l 525 1036 q 695 1005 616 1036 q 773 939 773 973 q 744 848 773 890 z "},"":{"ha":589,"x_min":54,"x_max":637,"o":"m 216 948 l 216 958 q 263 980 216 980 q 330 969 310 980 q 385 926 351 958 l 403 909 q 423 892 420 892 q 457 934 426 892 q 512 993 489 976 q 576 1010 535 1010 l 589 1010 l 595 1009 q 637 1001 637 1009 q 521 886 637 994 q 384 778 405 778 l 370 779 q 280 855 345 779 q 216 948 216 930 m 380 744 l 395 744 q 523 720 465 744 q 582 667 582 695 q 563 614 582 638 q 528 591 543 591 q 476 608 528 591 q 382 625 424 625 q 316 603 340 625 q 292 548 292 580 q 326 490 292 516 q 408 449 336 482 q 507 389 479 416 q 552 263 552 343 q 480 117 552 182 q 304 52 408 52 l 257 52 q 121 76 189 52 q 54 132 54 100 q 76 184 54 156 q 105 213 97 213 q 170 188 114 213 q 270 163 225 163 q 345 186 315 163 q 375 245 375 208 q 345 307 375 282 q 258 353 329 320 q 155 423 187 385 q 123 515 123 461 q 197 683 123 621 q 380 744 272 744 z "},"":{"ha":806,"x_min":149,"x_max":888,"o":"m 515 1190 l 515 1183 q 484 1089 515 1127 q 425 1072 469 1072 l 408 1072 l 389 1075 q 354 1101 354 1075 q 353 1109 353 1106 l 351 1122 l 351 1133 q 372 1210 351 1181 q 425 1240 393 1240 q 433 1241 430 1241 l 447 1242 l 458 1242 l 479 1239 q 515 1190 515 1239 m 669 1074 q 632 1102 632 1074 l 630 1115 l 630 1141 l 633 1164 q 658 1222 633 1201 q 727 1242 683 1242 l 732 1242 q 791 1209 791 1242 l 793 1194 l 793 1179 l 793 1176 l 793 1173 l 791 1156 q 764 1093 791 1132 q 724 1076 753 1076 q 713 1074 716 1074 l 699 1072 l 682 1072 q 669 1074 674 1074 m 460 597 q 595 752 480 597 q 668 858 637 807 q 724 931 699 909 q 846 968 766 968 l 863 968 q 888 955 888 968 q 737 720 888 935 q 549 441 585 505 q 489 255 512 377 q 445 77 467 133 q 373 22 422 22 q 292 30 324 22 q 273 52 273 35 q 304 212 273 69 q 335 415 335 355 q 293 558 335 474 q 224 716 251 642 l 189 808 q 163 867 178 838 q 149 919 149 897 q 252 962 149 962 q 336 907 302 962 q 398 744 347 890 q 460 597 449 597 z "},"":{"ha":792,"x_min":27,"x_max":857,"o":"m 380 1240 l 380 1251 q 429 1280 380 1280 q 515 1240 478 1280 q 577 1179 571 1179 q 667 1244 584 1179 q 766 1282 715 1282 l 772 1282 q 803 1263 803 1282 l 803 1259 q 662 1111 803 1230 q 556 1057 597 1057 l 545 1057 l 539 1057 q 492 1080 515 1057 q 380 1240 380 1192 m 857 961 q 806 845 857 915 q 678 680 792 827 l 650 644 q 606 589 613 598 l 535 498 q 287 161 287 178 q 362 144 287 144 q 526 153 438 144 q 642 161 613 161 q 690 151 671 161 q 709 107 709 141 q 687 27 709 44 q 534 11 665 11 l 117 11 q 27 33 27 11 l 27 50 q 89 170 27 87 q 198 311 151 253 q 421 595 245 370 q 596 834 596 821 q 515 848 596 848 q 364 839 434 848 q 245 830 294 830 q 195 879 195 830 q 221 961 195 941 q 391 981 246 981 l 763 981 q 857 961 857 981 z "},"":{"ha":642,"x_min":21,"x_max":667,"o":"m 255 986 l 255 996 q 316 1023 255 1023 q 385 980 351 1023 q 441 911 438 911 q 485 944 449 911 q 528 981 521 976 q 627 1025 585 1025 l 632 1025 q 667 1005 667 1025 q 511 831 667 975 q 419 787 463 787 l 408 787 q 357 814 378 787 q 255 986 255 947 m 149 574 q 144 580 149 574 q 139 632 139 586 q 166 689 139 677 q 283 700 193 700 l 607 700 q 656 668 656 700 q 616 582 656 636 l 530 476 q 486 424 508 450 l 465 398 q 346 255 433 361 q 260 144 260 150 q 319 132 260 132 q 393 138 332 132 q 495 145 454 145 q 545 132 536 145 q 555 76 555 118 q 537 21 555 34 q 427 9 519 9 l 68 9 q 21 29 21 9 q 65 132 21 71 q 263 370 109 193 q 416 568 416 547 q 374 578 416 578 l 183 562 q 149 574 158 562 z "},"":{"ha":624,"x_min":-56,"x_max":715,"o":"m 589 827 q 497 784 532 827 q 461 684 461 741 l 468 673 q 580 652 492 652 q 613 600 613 652 q 529 542 613 557 q 412 458 446 527 q 338 210 386 406 q 270 -47 290 14 q 209 -162 250 -108 q 125 -236 169 -216 q 12 -256 81 -256 q -56 -227 -56 -256 q -35 -138 -56 -171 q 12 -114 -24 -122 q 66 -94 48 -106 q 129 1 102 -68 q 190 244 155 70 q 226 480 226 419 q 197 568 226 541 q 185 600 185 578 q 219 651 185 621 q 260 676 232 663 q 296 700 288 689 q 314 742 304 711 q 332 793 323 773 q 488 946 377 908 q 583 964 538 964 l 602 964 q 691 950 667 964 q 715 923 715 936 q 685 838 715 875 q 643 822 672 822 l 625 824 q 589 827 594 827 z "},"":{"ha":615,"x_min":185,"x_max":606,"o":"m 437 985 l 442 985 q 504 952 478 985 q 606 781 606 823 q 557 749 606 749 q 473 791 509 749 q 411 858 417 858 q 383 837 406 858 q 316 782 360 817 q 231 747 273 747 l 226 747 q 185 764 185 747 l 185 768 q 344 941 185 795 q 437 985 391 985 z "},"":{"ha":574,"x_min":207,"x_max":621,"o":"m 366 716 l 361 716 l 355 717 q 298 758 326 717 q 207 918 207 895 l 207 923 q 256 955 207 955 q 337 911 306 955 q 399 842 387 842 q 486 916 400 842 q 586 959 536 959 l 592 959 q 621 943 621 959 l 621 939 q 456 756 621 896 q 366 716 408 716 z "},"":{"ha":593,"x_min":178,"x_max":623,"o":"m 556 888 l 567 888 q 623 850 623 888 q 596 800 623 840 q 527 732 569 760 q 387 684 452 684 l 374 683 l 361 683 q 243 723 291 683 q 178 846 178 779 l 178 852 q 258 887 178 887 q 296 851 275 887 q 337 803 316 816 q 401 789 357 789 q 484 827 446 789 q 556 888 545 888 z "},"":{"ha":505,"x_min":262,"x_max":465,"o":"m 465 848 l 465 829 q 431 720 465 760 q 363 706 419 706 l 345 706 l 342 707 l 332 707 q 314 709 315 709 q 264 742 264 709 l 262 758 l 262 775 l 264 789 l 266 806 q 296 884 266 853 q 361 898 311 898 l 385 898 l 413 895 q 465 848 465 895 z "},"":{"ha":538,"x_min":184,"x_max":492,"o":"m 406 817 l 406 833 q 390 868 406 853 q 356 884 375 884 l 340 884 q 321 880 330 880 q 292 859 313 880 q 271 810 271 838 l 271 793 q 321 743 271 743 l 337 743 l 352 746 q 384 767 363 746 q 406 817 406 789 m 184 787 l 184 802 q 186 817 186 811 q 236 915 186 869 q 351 960 286 960 l 366 960 q 455 927 418 960 q 492 840 492 894 l 492 826 q 443 716 492 764 q 326 667 395 667 l 311 667 q 221 701 258 667 q 184 787 184 734 z "},"":{"ha":482,"x_min":77,"x_max":337,"o":"m 337 -227 l 337 -235 q 315 -275 337 -263 q 219 -297 277 -297 l 206 -297 q 114 -268 151 -297 q 77 -188 77 -239 l 77 -176 q 138 -49 77 -110 q 283 35 222 35 l 288 36 l 294 37 l 312 37 q 334 12 334 37 q 301 -24 334 3 q 265 -56 269 -52 q 219 -146 219 -106 q 239 -179 219 -165 q 298 -193 258 -193 q 337 -227 337 -193 z "},"":{"ha":638,"x_min":185,"x_max":675,"o":"m 340 945 l 366 945 q 449 912 398 945 q 523 879 500 879 q 577 907 547 879 q 641 935 608 935 q 675 903 675 935 q 626 809 675 854 q 513 764 576 764 l 506 764 q 414 797 468 764 q 338 831 360 831 q 285 802 317 831 q 219 772 253 772 q 185 804 185 772 q 237 901 185 857 q 340 945 289 945 z "},"":{"ha":709,"x_min":195,"x_max":739,"o":"m 214 642 q 195 655 195 642 l 195 667 q 313 869 195 718 q 379 900 337 900 l 384 901 l 392 902 l 449 905 l 461 905 q 483 894 483 905 l 483 887 q 323 677 483 854 q 261 646 296 646 q 248 644 253 644 l 218 642 l 214 642 m 715 905 q 739 890 739 905 l 739 888 q 712 839 739 868 q 552 663 559 669 q 473 643 526 643 l 460 642 l 456 642 q 435 661 435 642 l 435 668 q 469 732 435 685 q 528 818 503 779 q 574 879 553 857 q 636 901 596 901 q 658 903 652 903 l 707 905 q 715 905 711 905 z "},"":{"ha":749,"x_min":80,"x_max":698,"o":"m 638 327 l 107 327 q 80 342 80 327 l 80 347 q 102 436 80 412 q 176 444 109 444 l 648 444 q 698 429 698 444 l 698 423 q 685 349 698 371 q 638 327 673 327 z "},"":{"ha":1100,"x_min":72,"x_max":1062,"o":"m 1010 327 l 96 327 q 72 345 72 327 l 72 354 q 125 444 72 444 l 1038 444 q 1062 426 1062 444 l 1062 416 q 1010 327 1062 327 z "},"":{"ha":338,"x_min":139,"x_max":341,"o":"m 301 1015 l 310 1015 q 341 989 341 1015 l 340 985 l 340 982 q 319 936 340 979 q 297 875 297 892 q 306 824 297 858 q 315 751 315 791 q 297 693 315 711 q 235 675 279 675 l 224 674 l 200 674 q 139 710 139 674 l 139 720 l 140 725 l 141 749 q 142 759 142 755 q 195 931 142 840 q 255 995 220 975 q 301 1015 289 1015 z "},"":{"ha":338,"x_min":138,"x_max":359,"o":"m 311 1008 q 359 986 359 1008 l 359 972 q 357 958 357 962 q 310 793 357 874 q 228 689 263 713 q 177 665 192 665 l 172 665 q 138 699 138 665 l 139 702 q 163 749 139 713 q 188 817 188 786 l 179 894 q 194 979 179 954 q 250 1005 209 1005 l 260 1006 l 296 1008 l 311 1008 z "},"":{"ha":346,"x_min":33,"x_max":254,"o":"m 33 -116 q 58 -69 34 -110 q 82 -9 82 -31 q 78 30 82 9 q 75 53 75 45 l 75 62 l 75 71 q 91 160 75 134 q 146 185 107 185 l 151 186 l 157 186 l 176 187 l 212 187 q 254 165 254 187 l 254 146 q 186 -56 254 60 q 122 -129 158 -104 q 71 -153 85 -153 l 66 -153 q 33 -126 33 -153 l 33 -116 z "},"":{"ha":562,"x_min":115,"x_max":577,"o":"m 326 998 l 326 987 q 303 940 326 978 q 281 877 281 901 q 286 831 281 852 q 292 778 292 810 l 291 764 q 289 745 289 749 q 210 683 289 683 l 200 682 l 176 682 q 115 707 115 682 l 115 726 l 118 755 q 176 930 118 840 q 290 1021 233 1021 l 294 1021 q 326 998 326 1021 m 541 1021 l 545 1021 q 577 995 577 1021 l 577 991 q 554 940 577 979 q 532 872 532 901 l 533 858 q 534 851 534 854 l 537 836 q 543 765 543 806 q 525 704 543 724 q 462 683 506 683 l 452 682 l 427 682 q 366 711 366 682 l 366 720 l 367 725 l 368 745 q 430 935 368 829 q 488 998 454 975 q 541 1021 522 1021 z "},"":{"ha":553,"x_min":114,"x_max":583,"o":"m 155 883 l 155 898 q 175 986 155 966 q 255 1006 195 1006 l 290 1006 q 332 985 332 1006 l 332 970 q 330 951 330 956 q 267 764 330 873 q 205 692 239 718 q 151 667 170 667 l 147 667 q 114 692 114 667 l 114 707 q 148 766 114 708 q 161 824 161 789 l 156 868 q 155 883 155 876 m 511 1006 l 541 1006 q 583 984 583 1006 l 583 975 l 583 970 q 527 781 583 876 q 455 692 490 718 q 401 667 420 667 l 397 667 q 364 693 364 667 l 364 707 q 380 738 364 715 q 404 777 395 761 q 412 825 412 793 l 410 849 l 406 868 l 405 889 q 431 993 405 969 q 511 1006 447 1006 z "},"":{"ha":580,"x_min":21,"x_max":498,"o":"m 21 -142 l 21 -132 q 46 -84 21 -121 q 71 -12 71 -46 q 66 18 71 -4 q 62 80 62 41 q 128 172 62 172 q 129 172 128 172 l 138 173 l 184 175 l 189 175 q 243 149 243 175 l 243 140 l 243 135 q 186 -52 243 52 q 120 -137 158 -106 q 60 -168 81 -168 l 56 -168 q 21 -142 21 -168 m 317 53 l 317 65 q 337 154 317 134 q 429 174 357 174 l 439 175 l 444 175 q 498 149 498 175 l 498 139 q 438 -57 498 45 q 372 -139 408 -110 q 314 -168 336 -168 q 275 -138 275 -168 l 275 -132 q 300 -84 275 -125 q 325 -9 325 -44 l 318 39 q 317 53 317 47 z "},"":{"ha":624,"x_min":73,"x_max":646,"o":"m 73 621 q 146 698 73 698 l 198 694 q 248 693 209 693 q 301 724 286 693 q 316 826 305 733 q 342 937 327 918 q 414 955 357 955 l 431 955 q 490 927 490 955 l 450 730 q 471 696 450 705 q 529 694 478 694 l 593 696 q 646 650 646 696 q 624 598 646 617 q 515 566 587 566 l 481 567 q 406 503 432 567 q 387 384 398 483 q 338 103 375 285 q 298 -94 302 -79 q 224 -162 278 -162 l 207 -162 q 155 -141 155 -162 q 183 66 155 -117 q 238 369 212 250 q 264 505 264 488 q 228 570 264 570 l 161 566 q 87 589 121 566 q 73 621 73 599 z "},"":{"ha":634,"x_min":24,"x_max":653,"o":"m 52 116 q 24 165 24 130 q 50 214 24 201 q 134 236 76 227 q 199 253 191 245 q 245 351 225 279 q 283 538 283 490 q 245 573 283 573 l 201 569 q 108 579 125 569 q 92 628 92 589 q 120 692 92 667 q 158 700 130 700 l 180 698 l 202 696 l 264 696 q 318 730 306 696 q 330 822 319 734 q 347 921 341 909 q 413 955 363 955 l 435 955 q 506 934 506 955 q 483 833 506 932 q 460 722 460 735 q 509 696 460 696 l 529 697 q 569 698 549 698 l 610 699 q 653 656 653 699 l 653 636 q 621 580 653 596 q 477 572 604 572 q 434 551 442 572 q 393 325 393 454 q 410 252 393 269 q 437 241 418 243 l 456 240 q 491 235 473 239 q 563 194 563 218 q 526 127 563 158 q 471 114 511 114 q 353 82 375 114 q 328 -35 340 62 q 310 -144 316 -132 q 247 -182 291 -182 l 224 -182 q 152 -162 152 -182 q 161 -119 152 -160 l 166 -98 q 179 -40 174 -64 q 185 -11 184 -16 l 200 54 q 183 92 200 81 q 115 106 166 102 q 52 116 63 111 z "},"":{"ha":621,"x_min":149,"x_max":520,"o":"m 520 454 l 520 430 q 459 298 520 354 q 326 242 399 242 l 319 242 q 198 291 246 242 q 149 399 149 339 l 149 423 q 210 556 149 500 q 344 612 271 612 l 350 612 q 469 565 418 612 q 520 454 520 518 z "},"":{"ha":1057,"x_min":58,"x_max":942,"o":"m 154 -6 l 131 -6 l 127 -5 l 121 -5 q 111 -4 115 -4 q 58 53 58 -4 l 58 73 l 60 96 q 92 168 60 140 q 153 183 111 183 l 177 183 q 232 170 213 183 q 250 123 250 157 l 250 104 l 248 81 q 154 -6 248 -6 m 404 73 l 406 90 q 436 166 406 136 q 484 181 451 181 l 503 183 l 519 183 q 593 142 593 183 q 596 127 596 130 l 596 101 q 594 84 594 91 q 566 14 594 54 q 516 -4 553 -4 l 496 -6 l 477 -6 l 454 -3 q 404 56 404 -3 l 404 69 l 404 73 m 942 101 q 909 12 942 44 q 846 -6 892 -6 l 823 -6 l 820 -5 l 813 -5 q 804 -4 806 -4 q 751 41 751 -4 q 750 50 750 46 l 749 62 l 749 66 l 750 69 q 780 163 750 121 q 846 183 794 183 l 869 183 q 940 139 940 183 l 942 123 l 942 101 z "},"":{"ha":1427,"x_min":83,"x_max":1388,"o":"m 359 854 l 342 854 q 275 802 304 854 q 246 690 246 750 l 246 664 q 248 642 248 654 q 264 611 248 629 q 303 593 279 593 l 307 593 q 377 640 348 593 q 406 730 406 686 l 407 739 l 409 772 l 409 776 q 391 837 409 819 q 359 854 373 854 m 661 155 q 678 101 661 119 q 714 84 695 84 l 721 84 q 789 129 760 84 q 819 219 819 174 q 821 234 821 229 l 823 253 l 823 271 q 805 329 823 311 q 772 347 787 347 l 758 347 q 692 299 722 347 q 663 203 663 252 l 662 199 l 661 196 l 661 181 l 661 155 m 1106 163 q 1123 103 1106 123 q 1160 84 1139 84 l 1166 84 l 1170 85 q 1240 136 1212 85 q 1269 248 1269 187 l 1269 274 q 1252 327 1269 308 q 1219 347 1235 347 l 1202 347 q 1138 299 1168 347 q 1109 204 1109 252 q 1107 193 1107 197 l 1106 174 l 1106 163 m 127 656 l 127 678 q 200 875 127 791 q 274 930 229 908 q 360 953 318 953 l 375 953 q 485 908 443 953 q 526 791 526 863 l 526 770 q 506 665 526 719 q 378 515 465 555 q 294 495 332 495 l 279 495 q 171 538 214 495 q 127 656 127 582 m 180 -24 l 168 -24 q 83 -12 83 -24 q 810 914 83 12 q 876 951 840 951 l 889 951 q 974 938 974 951 q 254 22 974 915 q 180 -24 216 -24 m 715 -13 l 686 -13 q 584 32 626 -13 q 542 155 542 77 l 542 163 q 610 361 542 277 q 776 445 678 445 l 790 445 q 900 399 857 445 q 942 276 942 353 l 942 269 q 877 73 942 155 q 799 9 844 32 q 715 -13 754 -13 m 1162 -13 l 1133 -13 q 1028 34 1069 -13 q 988 155 988 81 l 988 163 q 1059 363 988 282 q 1222 445 1129 445 l 1236 445 q 1346 399 1303 445 q 1388 276 1388 353 l 1388 269 q 1323 73 1388 155 q 1245 9 1290 32 q 1162 -13 1200 -13 z "},"":{"ha":524,"x_min":108,"x_max":479,"o":"m 479 610 q 376 480 479 583 q 273 368 273 376 q 299 320 273 359 q 397 143 397 176 q 377 111 397 126 q 347 95 358 95 l 340 95 q 258 142 298 95 q 108 365 108 322 l 108 372 q 345 610 108 400 q 426 648 387 648 l 433 648 q 479 616 479 648 l 479 610 z "},"":{"ha":525,"x_min":96,"x_max":456,"o":"m 96 132 q 199 266 96 155 q 303 379 303 376 q 241 478 303 383 q 179 598 179 574 q 197 636 179 623 q 224 649 215 649 l 231 649 q 307 606 273 649 q 456 377 456 410 q 222 138 456 344 q 136 96 176 96 q 96 125 96 96 l 96 132 z "},"":{"ha":433,"x_min":-139,"x_max":722,"o":"m 532 895 q 664 984 606 984 q 722 963 722 984 l 722 952 q 669 873 722 943 q 43 58 111 137 q -82 -21 -26 -21 q -139 0 -139 -21 l -139 11 q -87 90 -139 23 l -28 165 q 20 228 5 209 q 54 272 35 248 q 93 323 73 296 q 137 381 113 351 q 169 422 161 411 q 240 514 177 433 q 400 725 303 595 q 532 895 498 855 z "},"":{"ha":837,"x_min":58,"x_max":854,"o":"m 436 437 q 588 399 588 437 q 545 343 588 368 q 476 325 529 334 q 382 298 422 315 q 357 256 357 287 q 396 189 357 225 q 500 153 435 153 q 610 166 534 153 q 703 179 686 179 q 732 127 732 179 q 648 42 732 85 q 479 -1 564 -1 q 192 174 262 -1 q 143 283 153 270 q 96 316 134 297 q 58 371 58 336 q 80 422 58 406 q 122 435 90 429 q 160 451 154 441 q 167 494 167 462 q 132 523 167 511 q 96 557 96 535 q 117 605 96 580 q 161 640 138 629 l 182 648 l 201 658 q 270 746 220 669 q 637 959 410 959 q 788 923 722 959 q 854 840 854 887 q 832 793 854 814 q 774 773 810 773 q 691 789 767 773 q 577 805 615 805 q 484 761 539 805 q 429 680 429 718 q 538 635 429 653 q 648 601 648 618 q 621 536 648 550 q 495 522 593 522 q 378 513 398 522 q 345 468 345 499 q 436 437 345 437 z "},"":{"ha":1055,"x_min":137,"x_max":1034,"o":"m 511 951 l 511 930 q 494 899 511 907 q 432 890 477 890 q 378 870 387 890 q 351 711 368 850 l 330 536 q 279 517 323 517 l 271 517 q 226 545 226 517 l 258 836 q 212 886 258 886 l 198 884 l 177 884 q 137 909 137 884 l 137 925 q 163 968 137 960 q 283 975 189 975 l 494 975 q 511 951 511 975 m 644 791 q 625 683 640 791 q 598 554 609 574 q 533 521 581 521 q 511 557 511 521 q 538 734 511 567 l 553 831 q 570 926 569 924 q 661 968 583 968 q 707 926 686 968 q 743 808 708 924 q 780 692 779 692 l 844 817 q 913 947 905 937 q 960 975 933 975 q 1024 958 1006 975 q 1034 890 1034 949 q 1010 551 1034 631 q 968 524 1002 524 q 924 546 935 524 q 913 624 913 569 q 918 725 913 678 q 923 782 923 771 q 920 792 923 792 q 865 695 917 792 q 807 589 813 597 q 757 562 787 562 q 716 587 728 562 q 680 702 705 613 q 644 791 654 791 z "},"":{"ha":707,"x_min":75,"x_max":666,"o":"m 77 399 q 92 458 77 444 q 150 472 106 472 l 635 472 q 666 457 666 472 l 666 451 l 665 445 q 654 380 665 398 q 612 362 642 362 l 598 361 l 99 361 q 75 381 75 361 q 77 399 77 393 z "}}}
